<?xml version="1.0" standalone="no"?>
<!DOCTYPE svg PUBLIC "-//W3C//DTD SVG 1.1//EN" "http://www.w3.org/Graphics/SVG/1.1/DTD/svg11.dtd" >
<svg xmlns="http://www.w3.org/2000/svg">
<metadata></metadata>
<defs>
<font id="bellmedregular" horiz-adv-x="1024" >
<font-face units-per-em="2048" ascent="1370" descent="-678" />
<missing-glyph horiz-adv-x="614" />
<glyph unicode="&#xfb01;" horiz-adv-x="1165" d="M47 834q0 53 41 53h107v35q0 212 79 321q50 68 125.5 107t161.5 39q85 0 143 -40t58 -98q0 -34 -23 -58t-55 -24q-30 0 -47 18t-35 66q-27 84 -102 84q-37 0 -70.5 -31.5t-56.5 -88.5q-17 -45 -24 -109t-7 -186v-35h147q29 0 29 -15q-1 -35 -10 -47t-33 -12h-133v-518 q0 -107 9 -159t30.5 -75t67.5 -30q18 -3 18 -19t-21 -16q-2 0 -49 6q-69 6 -129 6q-63 0 -174 -12h-4q-20 0 -20 16t18 19q47 7 68.5 30.5t30 74.5t8.5 159v518h-125q-23 0 -23 21zM682 870q0 19 20 19h11q14 -2 41 -2q49 0 178 20q4 2 14 2q17 0 23 -44.5t6 -182.5v-387 q0 -107 8.5 -159t30 -75t67.5 -30q19 -3 19 -19t-21 -16q-2 0 -49 6q-75 6 -131 6q-87 0 -178 -12h-4q-21 0 -21 16t19 19q67 10 86.5 59t19.5 205v285q0 82 -11 148t-28 89q-10 17 -25.5 24.5t-43.5 10.5q-31 3 -31 18zM788 1221q0 37 28.5 64.5t66.5 27.5q41 0 70.5 -28.5 t29.5 -67.5q0 -40 -28.5 -69.5t-67.5 -29.5t-69 31t-30 72z" />
<glyph unicode="&#xfb02;" horiz-adv-x="1142" d="M47 834q0 53 41 53h107v35q0 212 79 321q50 68 126.5 107t162.5 39q68 0 129 -31q5 10 17 10t48.5 -3t43.5 -3q18 0 127 8h8q12 0 18 -6q3 -3 4 -6t2 -20.5t1 -48.5v-95v-899q0 -107 8.5 -159t30 -75t67.5 -30q18 -3 18 -19t-20 -16q-2 0 -49 6q-75 6 -131 6 q-87 0 -178 -12h-5q-20 0 -20 16t18 19q47 7 68.5 30.5t30 74.5t8.5 159v733q0 169 -14 223t-64 76q33 -41 33 -74q0 -35 -23 -59.5t-55 -24.5q-30 0 -47 18t-35 66q-27 84 -102 84q-37 0 -70.5 -31.5t-56.5 -88.5q-17 -45 -24 -109t-7 -186v-35h147q27 0 27 -15 q0 -32 -10 -45.5t-33 -13.5h-131v-518q0 -107 9 -159t30.5 -75t67.5 -30q18 -3 18 -19t-21 -16q-2 0 -49 6q-69 6 -129 6q-63 0 -174 -12h-4q-20 0 -20 16t18 19q47 7 68.5 30.5t30 74.5t8.5 159v518h-125q-23 0 -23 21z" />
<glyph unicode="&#xfb03;" horiz-adv-x="1792" d="M47 834q0 53 41 53h107v35q0 212 79 321q50 68 125.5 107t161.5 39q85 0 143 -40t58 -98q0 -34 -23 -58t-55 -24q-30 0 -47 18t-35 66q-27 84 -102 84q-37 0 -70.5 -31.5t-56.5 -88.5q-17 -45 -24 -109t-7 -186v-35h147q29 0 29 -15q-1 -35 -10 -47t-33 -12h-133v-518 q0 -107 9 -159t30.5 -75t67.5 -30q18 -3 18 -19t-21 -16q-2 0 -49 6q-69 6 -129 6q-63 0 -174 -12h-4q-20 0 -20 16t18 19q47 7 68.5 30.5t30 74.5t8.5 159v518h-125q-23 0 -23 21zM674 834q0 53 41 53h106v35q0 210 80 321q50 68 125.5 107t161.5 39q85 0 143 -40t58 -98 q0 -34 -23 -58t-55 -24q-30 0 -47 18t-35 66q-13 41 -40 62.5t-63 21.5q-37 0 -70.5 -31.5t-56.5 -88.5q-17 -44 -23.5 -107.5t-6.5 -187.5v-35h147q29 0 29 -15q-1 -35 -10 -47t-33 -12h-133v-518q0 -107 8.5 -159t30 -75t67.5 -30q19 -3 19 -19t-21 -16q-2 0 -49 6 q-69 6 -129 6q-63 0 -174 -12h-4q-21 0 -21 16t19 19q67 10 86.5 59t19.5 205v518h-125q-22 0 -22 21zM1309 870q0 19 20 19h10q14 -2 41 -2q50 0 179 20q4 2 14 2q17 0 23 -44.5t6 -182.5v-387q0 -107 8.5 -159t30 -75t67.5 -30q18 -3 18 -19t-20 -16q-2 0 -49 6 q-75 6 -131 6q-87 0 -178 -12h-5q-20 0 -20 16t18 19q47 7 68.5 30.5t30 74.5t8.5 159v285q0 82 -11 148t-28 89q-18 29 -70 35q-30 3 -30 18zM1413 1221q0 37 28 64.5t66 27.5q41 0 71 -29t30 -67q0 -40 -28.5 -69.5t-68.5 -29.5q-38 0 -68 31t-30 72z" />
<glyph unicode="&#xfb04;" horiz-adv-x="1769" d="M47 834q0 53 41 53h107v35q0 212 79 321q50 68 125.5 107t161.5 39q85 0 143 -40t58 -98q0 -34 -23 -58t-55 -24q-30 0 -47 18t-35 66q-27 84 -102 84q-37 0 -70.5 -31.5t-56.5 -88.5q-17 -45 -24 -109t-7 -186v-35h147q29 0 29 -15q-1 -35 -10 -47t-33 -12h-133v-518 q0 -107 9 -159t30.5 -75t67.5 -30q18 -3 18 -19t-21 -16q-2 0 -49 6q-69 6 -129 6q-63 0 -174 -12h-4q-20 0 -20 16t18 19q47 7 68.5 30.5t30 74.5t8.5 159v518h-125q-23 0 -23 21zM674 834q0 53 41 53h106v35q0 210 80 321q50 68 126.5 107t162.5 39q68 0 129 -31 q5 10 16 10q12 0 49 -3t43 -3q18 0 127 8h9q12 0 18 -6q5 -4 5.5 -25.5t0.5 -144.5v-899q0 -107 9 -159t30.5 -75t67.5 -30q18 -3 18 -19t-20 -16q-3 0 -50 6q-75 6 -131 6q-87 0 -178 -12h-4q-20 0 -20 16t18 19q47 7 68.5 30.5t30 74.5t8.5 159v733q0 169 -14 223t-64 76 q33 -41 33 -74q0 -35 -23 -59.5t-55 -24.5q-30 0 -47 18t-35 66q-13 41 -40 62.5t-63 21.5q-37 0 -70.5 -31.5t-56.5 -88.5q-17 -44 -23.5 -107.5t-6.5 -187.5v-35h147q27 0 27 -15q0 -32 -10 -45.5t-33 -13.5h-131v-518q0 -107 8.5 -159t30 -75t67.5 -30q19 -3 19 -19 t-21 -16q-2 0 -49 6q-69 6 -129 6q-63 0 -174 -12h-4q-21 0 -21 16t19 19q67 10 86.5 59t19.5 205v518h-125q-22 0 -22 21z" />
<glyph horiz-adv-x="2048" />
<glyph horiz-adv-x="2048" />
<glyph unicode="&#xd;" horiz-adv-x="2048" />
<glyph unicode=" "  horiz-adv-x="614" />
<glyph unicode="&#x09;" horiz-adv-x="614" />
<glyph unicode="&#xa0;" horiz-adv-x="614" />
<glyph unicode="!" horiz-adv-x="491" d="M150 80q0 35 27.5 62.5t64.5 27.5q40 0 69 -28t29 -66q0 -40 -28 -68t-66 -28t-67 30t-29 70zM150 1210q0 63 23.5 98t66.5 35q41 0 65.5 -35.5t24.5 -95.5q0 -32 -23 -237q-32 -316 -47 -645q0 -31 -20 -31q-26 0 -23 41q2 2 -2 72q0 3 -0.5 15t-1.5 34.5t-2 42.5 q-7 219 -37 463q-24 186 -24 243z" />
<glyph unicode="&#x22;" horiz-adv-x="694" d="M106 1366h166l-45 -549h-75zM422 1366h168l-47 -549h-74z" />
<glyph unicode="#" horiz-adv-x="1210" d="M94 467l12 76h246l56 305h-240l12 76h246l86 442h82l-88 -442h309l88 442h82l-88 -442h227l-12 -76h-233l-56 -305h228l-13 -76h-233l-92 -467h-82l94 467h-309l-94 -467h-80l92 467h-240zM432 543h311l54 305h-310z" />
<glyph unicode="$" horiz-adv-x="1054" d="M121 1036q0 151 98 238t277 96v148h55v-150q169 -6 332 -86v-313h-37q-19 152 -94 240t-201 108v-531q209 -100 297 -198.5t88 -233.5q0 -155 -102.5 -253t-282.5 -115v-156h-55v156q-102 5 -175 19.5t-190 55.5v338h35q38 -340 330 -358v569q-140 71 -238 148 q-137 106 -137 278zM240 1116q0 -95 69 -170q26 -26 50 -43.5t87 -54.5q10 -7 50 -31v502q-256 -18 -256 -203zM551 41q128 25 188 81.5t60 151.5q0 114 -82 187q-50 48 -166 119v-539z" />
<glyph unicode="%" horiz-adv-x="1488" d="M55 723q0 160 79.5 264.5t201.5 104.5q116 0 184 -92.5t68 -249.5q0 -164 -77.5 -268.5t-199.5 -104.5q-114 0 -185 95.5t-71 250.5zM176 725q0 -165 49 -238q48 -67 103 -67q64 0 103.5 84.5t39.5 222.5q0 149 -37.5 233t-103.5 84q-69 0 -111.5 -88t-42.5 -231zM467 0 l485 1071h72l-485 -1071h-72zM901 326q0 160 79.5 264t201.5 104q116 0 184 -92.5t68 -249.5q0 -164 -77.5 -268t-199.5 -104q-114 0 -185 95.5t-71 250.5zM1022 328q0 -165 49 -238q48 -67 103 -67q64 0 103.5 84.5t39.5 222.5q0 149 -37.5 233t-103.5 84q-69 0 -111.5 -88 t-42.5 -231z" />
<glyph unicode="&#x26;" horiz-adv-x="1460" d="M68 291q0 106 56 190.5t185 175.5q92 60 140 86q-91 61 -145 141t-54 152q0 112 91.5 197.5t211.5 85.5q103 0 174.5 -63.5t71.5 -155.5q0 -41 -14 -72.5t-54 -81.5q-57 -72 -113 -125q80 -62 194 -190t169 -219q75 122 103 186.5t28 112.5q0 37 -24 68t-64 44 q-29 9 -29 23q0 18 27 18q4 0 61 -6q23 -2 84 -2q21 0 158 4h8q27 0 27 -18q0 -14 -25 -23q-39 -12 -59.5 -27.5t-50.5 -54.5q-32 -45 -148 -256q-43 -78 -67 -112q13 -25 38.5 -72.5t30.5 -56.5q86 -158 191 -158q62 0 106 29q15 10 23 10q7 0 13.5 -5.5t6.5 -11.5 q0 -12 -41 -43q-114 -88 -227 -88q-82 0 -139 54t-117 188q-50 -46 -117 -102q-173 -140 -358 -140q-146 0 -249 93t-103 225zM246 375q0 -128 83 -217.5t201 -89.5q85 0 175.5 52.5t166.5 147.5q-71 124 -151.5 218t-228.5 225q-115 -49 -180.5 -139t-65.5 -197zM379 1098 q0 -23 5.5 -44.5t11.5 -37.5t21.5 -34t25 -28t32.5 -27t33 -24t38.5 -25t37.5 -24q65 63 93 115t28 110q0 78 -50 137.5t-116 59.5t-113 -52.5t-47 -125.5z" />
<glyph unicode="'" horiz-adv-x="399" d="M113 1366h172l-47 -549h-80z" />
<glyph unicode="(" horiz-adv-x="731" d="M76 434q0 366 264 703q109 140 211 229h127q-113 -107 -174 -173t-115 -140q-110 -155 -157.5 -295t-47.5 -309q0 -281 117 -506t377 -445h-127q-243 228 -359 457.5t-116 478.5z" />
<glyph unicode=")" horiz-adv-x="731" d="M55 -502q89 82 154.5 152t133 161t110 179t69.5 198t27 228q0 281 -117 505.5t-377 444.5h127q243 -228 359 -457.5t116 -478.5q0 -365 -264 -702q-114 -145 -211 -230h-127z" />
<glyph unicode="*" horiz-adv-x="942" d="M109 1106q0 32 18.5 55t44.5 23q30 0 100 -45q133 -82 158 -82q16 0 16 16q0 24 -30 170q-13 63 -13 90q0 60 70 60q32 0 51 -17t19 -45q0 -21 -15 -86q-32 -135 -32 -176q0 -12 12 -12q11 0 72 31.5t96 56.5q37 25 53 32t35 7q28 0 47.5 -24t19.5 -58q0 -32 -26.5 -48.5 t-83.5 -21.5q-112 -6 -156.5 -13.5t-44.5 -19.5q0 -23 137 -137q40 -31 56 -52t16 -44q0 -26 -24 -48t-52 -22q-38 0 -59 35q-20 34 -76 156q-21 47 -30.5 62.5t-18.5 15.5q-10 0 -36 -47.5t-54 -118.5q-22 -56 -40.5 -78.5t-43.5 -22.5q-31 0 -56.5 23t-25.5 51q0 38 68 92 l77 66q13 14 54 51q10 7 10 14q0 14 -10 17q-11 3 -72 9t-102 7q-72 3 -100.5 20t-28.5 58z" />
<glyph unicode="+" d="M45 655v93h420v395h94v-395h420v-93h-420v-397h-94v397h-420z" />
<glyph unicode="," horiz-adv-x="436" d="M96 68q0 44 32.5 74t78.5 30q57 0 93 -45.5t36 -116.5q0 -63 -37.5 -133.5t-95.5 -114.5q-47 -38 -74 -38q-7 0 -12.5 5t-5.5 13q0 9 5.5 14.5t37.5 28.5q32 22 61 74.5t29 89.5q0 15 -9 21.5t-32 9.5q-56 5 -81.5 26t-25.5 62z" />
<glyph unicode="-" horiz-adv-x="428" d="M0 420v55q0 23 33 23h362q33 0 33 -23v-55q0 -23 -33 -23h-362q-33 0 -33 23z" />
<glyph unicode="." horiz-adv-x="436" d="M123 80q0 35 27.5 62.5t64.5 27.5q40 0 69 -28t29 -66q0 -40 -28 -68t-66 -28t-67 30t-29 70z" />
<glyph unicode="/" horiz-adv-x="983" d="M-180 -502l989 1868h92l-991 -1868h-90z" />
<glyph unicode="0" horiz-adv-x="944" d="M61 526q0 160 54.5 289.5t152 203t217.5 73.5q179 0 289.5 -145t110.5 -380q0 -117 -31.5 -229.5t-87.5 -194.5q-51 -74 -133.5 -118.5t-169.5 -44.5q-179 0 -290.5 151.5t-111.5 394.5zM229 516q0 -211 66 -346q31 -64 82.5 -103.5t105.5 -39.5q101 0 166.5 146 t65.5 374q0 221 -66 358t-172 137q-112 0 -180 -144t-68 -382z" />
<glyph unicode="1" horiz-adv-x="944" d="M252 1051q0 16 24 16q25 0 43 -2h48q74 0 159 10q12 2 21 2q12 0 16 -5.5t4 -22.5v-9l2 -174v-571q-1 -63 0 -97.5t6.5 -67t12.5 -46t25 -26t38 -17t56 -10.5q18 -3 18 -19t-20 -16q-27 0 -80 6q-57 4 -140 4q-52 0 -204 -10h-9q-16 0 -16 16q0 11 9.5 15t62.5 14 q24 3 43.5 23.5t27.5 48.5q13 54 13 182v444q0 62 -1 97.5t-3 70t-9 51.5t-15 32.5t-24.5 22t-33.5 11t-47 8.5q-27 3 -27 19z" />
<glyph unicode="2" horiz-adv-x="944" d="M4 0l12 37q154 99 201.5 135.5t155.5 138.5q186 173 265 293.5t79 229.5q0 88 -56.5 150.5t-134.5 62.5q-121 0 -223 -97t-102 -213q0 -47 24 -75.5t64 -28.5q44 0 82.5 23.5t89.5 80.5q15 15 22 15q9 0 16 -6t7 -13q0 -13 -47 -63q-121 -127 -242 -127q-60 0 -98.5 43 t-38.5 110q0 71 40.5 143t105 127.5t148 90.5t165.5 35q141 0 238 -91.5t97 -224.5q0 -114 -83 -223q-39 -52 -89.5 -92.5t-152.5 -104.5q-174 -109 -305 -213h321q101 0 152.5 26t120.5 114q14 20 26 20q19 0 19 -16q0 -10 -17 -33q-35 -54 -81 -138t-58 -116h-723z" />
<glyph unicode="3" horiz-adv-x="944" d="M68 207q0 37 28.5 62.5t69.5 25.5q29 0 49.5 -18t20.5 -44q-17 -59 -17 -79q0 -56 43.5 -95t104.5 -39q69 0 136 45t118 125q73 115 73 218q0 66 -41 114.5t-96 48.5q-53 0 -147 -79q-20 -17 -31 -17q-7 0 -13 5.5t-6 11.5q0 11 23 32.5t84 65.5q114 85 159.5 147.5 t45.5 134.5q0 80 -41.5 128.5t-110.5 48.5q-91 0 -165 -77t-74 -171q0 -40 20 -68t49 -28q50 0 101 73q11 19 22 19q16 0 16 -17q0 -25 -32 -65q-31 -40 -72 -62t-82 -22q-57 0 -94 41t-37 104q0 130 111 223t266 93q114 0 187 -54t73 -137q0 -74 -54 -137t-190 -148h35 q98 -3 169 -80.5t71 -181.5q0 -155 -134 -264.5t-323 -109.5q-176 0 -262 100q-53 63 -53 127z" />
<glyph unicode="4" horiz-adv-x="944" d="M33 428q0 8 23.5 38.5t164.5 207.5q107 136 211.5 258t147.5 160h77q-12 -106 -12 -295v-326q89 0 137.5 36t67.5 116q8 28 24 28q19 0 19 -33q0 -20 -3 -89t-3 -89l4 -141q0 -35 -21 -35q-12 0 -18 29q-20 71 -68 100.5t-139 26.5v-125q0 -151 23 -201.5t98 -62.5 q18 -5 18 -19q0 -16 -20 -16q-14 0 -64 6q-68 6 -129 6q-21 0 -118.5 -6t-112.5 -6q-21 0 -21 16q0 12 8.5 15t49.5 8q75 6 98 56t23 204v125h-123q-164 0 -281 -6q-14 -2 -37 -2q-24 0 -24 16zM135 471h363v467q-114 -135 -224.5 -277t-138.5 -190z" />
<glyph unicode="5" horiz-adv-x="944" d="M49 197q0 46 27.5 77t68.5 31q34 0 64 -26t27 -52q-2 -18 -4 -32t-2.5 -20t-1.5 -10.5t-1 -6.5v-4q0 -57 38.5 -93t99.5 -36q75 0 145.5 60t114 158t43.5 203q0 91 -51 156.5t-123 65.5q-69 0 -129 -54.5t-115 -169.5q-11 -28 -29 -28q-7 0 -12.5 6.5t-5.5 15.5 q0 17 2 27l108 586q3 17 7.5 22.5t13.5 5.5q8 0 37 -10q83 -25 143 -25q165 0 264 132q19 24 29 24q14 0 14 -18q0 -39 -45 -109q-47 -72 -134 -113.5t-189 -41.5q-43 0 -105 12l-55 -287q72 40 123.5 56t107.5 16q135 0 225.5 -87.5t90.5 -217.5q0 -109 -67.5 -209 t-178.5 -160.5t-232 -60.5q-129 0 -221 64t-92 153z" />
<glyph unicode="6" horiz-adv-x="944" d="M94 414q0 103 29.5 204.5t82 185.5t120 149.5t149 102t164.5 36.5q98 0 165.5 -48.5t67.5 -117.5q0 -40 -24.5 -66t-61.5 -26q-44 0 -59 34q-6 16 -6 70q-2 53 -29 81t-76 28q-128 0 -223.5 -138.5t-120.5 -359.5q119 131 265 131q126 0 209 -85.5t83 -217.5 q0 -105 -53 -196.5t-143 -146t-193 -54.5q-149 0 -247.5 123.5t-98.5 310.5zM238 305q0 -125 52.5 -203.5t137.5 -78.5q103 0 173.5 95.5t70.5 233.5q0 115 -57 188.5t-146 73.5q-97 0 -164 -90t-67 -219z" />
<glyph unicode="7" horiz-adv-x="944" d="M115 756q0 12 30 125q24 95 48 213q8 40 12 49.5t14 9.5q14 0 14 -27t1.5 -34t7.5 -13q13 -20 42 -27.5t91 -7.5h436q26 0 36.5 -5.5t10.5 -18.5q0 -12 -51 -100q-161 -298 -222.5 -473t-113.5 -490q-18 -111 -98 -111q-37 0 -58.5 21.5t-21.5 56.5q0 141 330 750 l118 223h-305q-93 0 -124 -3.5t-62 -16.5q-66 -24 -98 -111q-9 -29 -23 -29t-14 19z" />
<glyph unicode="8" horiz-adv-x="944" d="M94 229q0 185 260 271q-116 60 -169.5 129.5t-53.5 158.5q0 122 107.5 210.5t255.5 88.5q134 0 227.5 -71t93.5 -174q0 -77 -63 -147.5t-168 -110.5q121 -28 193.5 -106t72.5 -181q0 -135 -117 -228.5t-287 -93.5q-149 0 -250.5 73.5t-101.5 180.5zM221 242 q0 -98 67 -161t171 -63q106 0 177 63t71 155t-76 155q-32 26 -54.5 36.5t-125.5 45.5q-24 8 -31 10q-199 -78 -199 -241zM260 844q0 -47 24.5 -92t67.5 -76q29 -20 49.5 -29t98.5 -35q5 0 28 -10q172 72 172 225q0 92 -64 153.5t-159 61.5q-91 0 -154 -57.5t-63 -140.5z" />
<glyph unicode="9" horiz-adv-x="944" d="M53 141q0 37 24.5 63.5t59.5 26.5q36 0 51 -22t15 -78q1 -49 34.5 -76.5t90.5 -27.5q92 0 169.5 67t129.5 193q54 133 57 237q-118 -127 -266 -127q-124 0 -207.5 85.5t-83.5 213.5q0 104 54 195.5t145 146t194 54.5q148 0 245 -123t97 -310q0 -176 -79.5 -333 t-212 -251.5t-281.5 -94.5q-101 0 -168.5 46t-67.5 115zM285 727q0 -116 58 -190t149 -74q97 0 162 90t65 225q0 121 -53.5 196t-139.5 75q-96 0 -168.5 -97t-72.5 -225z" />
<glyph unicode=":" horiz-adv-x="436" d="M123 80q0 35 27.5 62.5t64.5 27.5q40 0 69 -28t29 -66q0 -40 -28 -68t-66 -28t-67 30t-29 70zM123 797q0 35 27.5 62.5t64.5 27.5q40 0 69 -28t29 -66q0 -40 -28 -68.5t-66 -28.5t-67 30.5t-29 70.5z" />
<glyph unicode=";" horiz-adv-x="436" d="M96 68q0 44 32.5 74t78.5 30q57 0 93 -45.5t36 -116.5q0 -63 -37.5 -133.5t-95.5 -114.5q-47 -38 -74 -38q-7 0 -12.5 5t-5.5 13q0 9 5.5 14.5t37.5 28.5q32 22 61 74.5t29 89.5q0 15 -9 21.5t-32 9.5q-56 5 -81.5 26t-25.5 62zM96 797q0 35 27.5 62.5t64.5 27.5 q40 0 69.5 -28t29.5 -66q0 -40 -28 -68.5t-66 -28.5t-67.5 30.5t-29.5 70.5z" />
<glyph unicode="&#x3c;" d="M88 700v13l848 544v-79l-631 -410l631 -422v-215z" />
<glyph unicode="=" d="M45 510v90h934v-90h-934zM45 801v90h934v-90h-934z" />
<glyph unicode="&#x3e;" d="M88 131v82l631 410l-631 421v213l848 -567v-14z" />
<glyph unicode="?" horiz-adv-x="759" d="M82 1178q0 69 70.5 117t171.5 48q161 0 279 -123t118 -292q0 -141 -87 -234.5t-218 -93.5q-82 0 -158 43v-295q0 -29 -7 -40t-24 -11q-20 0 -26 9.5t-8 41.5l-15 369q0 9 4.5 15.5t10.5 6.5q3 0 16 -10q29 -31 71.5 -50.5t77.5 -19.5q83 0 144 96t61 228q0 131 -64.5 221 t-158.5 90q-77 0 -80 -75q-3 -55 -7.5 -72t-21.5 -37q-29 -29 -65 -29q-35 0 -59.5 28t-24.5 69zM143 80q0 35 28 62.5t65 27.5q40 0 69 -28t29 -66q0 -40 -28 -68t-66 -28t-67.5 30t-29.5 70z" />
<glyph unicode="@" horiz-adv-x="1585" d="M102 643q0 182 92 353t246 274q192 129 447 129q266 0 431 -150.5t165 -394.5q0 -143 -59 -275.5t-156.5 -213t-202.5 -80.5q-58 0 -95.5 48.5t-37.5 125.5q0 12 2 22q-132 -202 -281 -202q-85 0 -136.5 71.5t-51.5 188.5q0 125 58.5 250t151 204.5t185.5 79.5 q116 0 182 -110l17 88q60 3 106 14l-118 -481q-23 -102 -23 -140q0 -94 74 -94q85 0 176 111q66 78 101.5 177.5t35.5 205.5q0 218 -144 353.5t-376 135.5q-149 0 -283.5 -57t-226.5 -158q-78 -88 -134.5 -235t-56.5 -265q0 -120 59 -242t154 -202q75 -64 173 -99.5 t198 -35.5q56 0 109.5 11t93 25.5t90 43.5t79 48.5t81.5 57.5l57 -22q-65 -55 -114 -90.5t-115.5 -71.5t-140.5 -53t-158 -17q-178 0 -328.5 89.5t-238 244.5t-87.5 338zM571 494q0 -69 31 -111.5t82 -42.5q88 0 170 113q86 128 107 249q2 8 3.5 17.5t2.5 15t2 8.5l35 111 q4 16 4 18q0 64 -33 105t-86 41q-118 0 -215 -172q-103 -188 -103 -352z" />
<glyph unicode="A" horiz-adv-x="1312" d="M-37 10q0 15 29 21q68 15 116 68.5t95 166.5l348 840q48 111 106 270h68q33 -141 125 -409l211 -594q63 -174 112 -243.5t127 -92.5q33 -8 33 -23q0 -18 -30 -18q-25 0 -164 5t-185 5q-58 0 -168 -10h-12q-20 0 -20 20t34 23q63 6 98.5 41.5t35.5 93.5q0 53 -33 148 l-70 200l-309 2q-90 0 -141 -2l-52 -125q-69 -178 -69 -235q0 -49 35.5 -83.5t95.5 -43.5q41 -3 41 -23q0 -18 -27 -18h-14q-82 8 -168 8l-219 -8q-29 0 -29 16zM393 580q61 -15 164 -15q118 0 242 15l-187 548z" />
<glyph unicode="B" horiz-adv-x="1316" d="M61 14q0 19 27 19q41 2 65.5 8t45.5 27t31 48.5t17.5 85.5t9 125t1.5 179v354q0 112 -1.5 179t-9 125t-17.5 85.5t-31 48.5t-45.5 27t-65.5 8q-27 0 -27 19q0 20 25 20h16q140 -12 228 -12q34 0 360 6h21q201 0 315 -72q119 -76 119 -219q0 -117 -93 -199t-270 -122 q236 -43 347.5 -129.5t111.5 -227.5q0 -95 -55 -183.5t-144 -135.5q-151 -80 -383 -80l-311 10q-71 0 -246 -14h-16q-25 0 -25 20zM438 303q0 -97 6.5 -133t30.5 -70q51 -63 170 -63q166 0 270.5 94.5t104.5 243.5q0 71 -26 135t-72 104q-54 50 -134.5 72.5t-203.5 22.5 q-79 0 -146 -11v-395zM438 754q23 -2 54 -2q163 0 278 51q71 32 117.5 105.5t46.5 154.5q0 117 -91 186.5t-245 69.5q-103 0 -137 -37q-15 -17 -19 -40t-4 -93v-395z" />
<glyph unicode="C" horiz-adv-x="1374" d="M88 690q0 155 61 301.5t164 237.5q187 166 467 166q191 0 342 -92q28 -17 39 -17q9 0 14 1.5t12 9t13 17.5t19 34q12 24 28 24q19 0 22.5 -21.5t6.5 -148.5q1 -32 4 -65t5 -48t8 -56.5t7 -51.5q3 -12 3 -23q0 -28 -25 -28q-22 0 -35 39q-22 63 -65 132t-88 113 q-131 134 -312 134q-206 0 -333.5 -172.5t-127.5 -450.5q0 -186 69.5 -338t191.5 -239t270 -87q138 0 241 69.5t195 225.5q14 25 31 25q10 0 18 -8t8 -17q0 -19 -43 -84q-101 -156 -229 -228.5t-301 -72.5q-193 0 -348.5 93t-243.5 257.5t-88 368.5z" />
<glyph unicode="D" horiz-adv-x="1548" d="M61 14q0 19 27 19q41 2 65.5 8t45.5 27t31 48.5t17.5 85.5t9 125t1.5 179v354q0 112 -1.5 179t-9 125t-17.5 85.5t-31 48.5t-45.5 27t-65.5 8q-27 0 -27 19q0 20 25 20q145 -12 201 -12q46 0 245 12q27 2 111 2q209 0 352 -42t250 -134q105 -91 161 -222t56 -286 q0 -207 -90.5 -365.5t-255.5 -245.5t-381 -87q-51 0 -213 7t-221 7q-61 0 -199 -12h-16q-25 0 -25 20zM446 305q0 -57 3 -88.5t10 -53.5t22 -42q18 -24 49.5 -41.5t73 -27t90.5 -9.5q156 0 278 79.5t189.5 223.5t67.5 328q0 229 -102.5 393.5t-282.5 226.5q-106 35 -258 35 q-86 0 -113 -21t-27 -87v-916z" />
<glyph unicode="E" horiz-adv-x="1282" d="M61 14q0 19 27 19q41 2 65.5 8t45.5 26.5t31 48t17.5 85.5t9 125.5t1.5 179.5v352q0 112 -1.5 180t-9 125.5t-17.5 85.5t-31 49t-45.5 27t-65.5 8q-27 0 -27 19q0 20 25 20h16q136 -12 199 -12q76 0 156 2l633 6q21 -178 45 -252q6 -18 6 -29q0 -9 -7 -15.5t-16 -6.5 t-15 7t-13 30q-13 38 -59.5 83.5t-102.5 76.5q-109 59 -285 59q-150 0 -178 -21q-16 -13 -16 -55v-502h135q94 0 133.5 11.5t70.5 48.5q28 31 40.5 58.5t25.5 90.5q6 27 20 27q17 0 17 -27q0 -36 -5 -139t-5 -147q0 -52 1.5 -74t8.5 -100v-11q0 -26 -19 -26q-7 0 -11 3 t-6 10t-3 21q-4 37 -25 85.5t-41 70.5q-29 29 -74 40t-132 11h-136v-368q0 -85 2.5 -112.5t12.5 -57.5q25 -62 83 -87.5t173 -25.5q128 0 207 22t145 76q44 37 85 83t65 89q18 27 30 27q6 0 10.5 -5.5t4.5 -12.5q0 -5 -5 -25q-54 -181 -67 -299q-176 -4 -201 -4 q-65 0 -303.5 6t-310.5 6q-118 0 -273 -14h-16q-25 0 -25 20z" />
<glyph unicode="F" horiz-adv-x="1206" d="M61 14q0 19 27 19q41 2 65.5 8t45.5 27t31 49t17.5 85.5t9 125.5t1.5 180v352q0 112 -1.5 179t-9 125t-17.5 85.5t-31 48.5t-45.5 27t-65.5 8q-27 0 -27 19q0 20 25 20h16q131 -12 201 -12l551 12l258 -2q9 0 21 2l43 -256q4 -24 4 -29q0 -20 -17 -20q-11 0 -26 27 q-46 104 -159.5 167.5t-250.5 63.5q-229 0 -260 -25q-12 -9 -16.5 -23t-4.5 -50v-457h97q95 0 135 11.5t72 47.5q26 31 38 58.5t25 91.5q6 27 21 27q16 0 16 -27q0 -34 -4 -140t-4 -147q0 -52 1 -74t9 -100v-10q0 -27 -18 -27q-11 0 -15.5 7.5t-5.5 27.5q-5 38 -26 87 t-42 69q-15 15 -32 24.5t-41.5 15.5t-55.5 8.5t-75 2.5h-95v-215q0 -84 1 -140t4.5 -108t8 -83.5t14.5 -59t21.5 -41t30 -24t39 -14t51.5 -5.5q27 0 27 -19q0 -20 -25 -20q-1 0 -36 2t-77.5 5t-87.5 5t-65 2q-100 0 -250 -14h-16q-25 0 -25 20z" />
<glyph unicode="G" horiz-adv-x="1564" d="M88 672q0 322 234 528q103 92 227.5 142.5t251.5 50.5q172 0 354 -95q62 -36 98 -36q18 0 28.5 7.5t23.5 30.5q9 21 22 21q16 0 19 -35l18 -325v-9q0 -28 -21 -28q-14 0 -28 28q-79 184 -208 286.5t-280 102.5q-138 0 -255.5 -88t-186 -238.5t-68.5 -326.5 q0 -130 41 -257.5t113 -221.5q65 -83 163.5 -136t190.5 -53q86 0 165.5 41t164.5 129l4 123v80q0 143 -53 193q-23 21 -53.5 28.5t-108.5 10.5q-15 2 -20.5 6t-5.5 14q0 23 32 23q3 0 9 -0.5l18 -1.5t22 -2q141 -15 228 -15q111 0 272 17h14q23 0 23 -21q0 -18 -27 -18 q-68 -3 -110 -39q-35 -32 -44 -83.5t-9 -215.5v-60q0 -52 -5 -65.5t-30 -28.5q-75 -46 -205 -98q-169 -64 -318 -64q-150 0 -280.5 53t-222.5 145t-144.5 222t-52.5 279z" />
<glyph unicode="H" horiz-adv-x="1597" d="M61 14q0 19 27 19q41 2 65.5 8t45.5 27t31 48.5t17.5 85.5t9 125t1.5 179v354q0 112 -1.5 179t-9 125t-17.5 85.5t-31 48.5t-45.5 27t-65.5 8q-27 0 -27 19q0 20 25 20h16q155 -14 252 -14q102 0 250 14h17q24 0 24 -20q0 -19 -27 -19q-41 -2 -65.5 -8t-45.5 -27 t-31 -48.5t-17 -85.5t-8.5 -125t-1.5 -179v-137q123 -12 337 -12q263 0 365 12v137q0 112 -1.5 179t-9 125t-17.5 85.5t-31 48.5t-45.5 27t-65.5 8q-27 0 -27 19q0 20 25 20h16q153 -14 250 -14q102 0 250 14h16q25 0 25 -20q0 -19 -27 -19q-41 -2 -65.5 -8t-45.5 -27 t-31 -48.5t-17.5 -85.5t-9 -125t-1.5 -179v-354q0 -112 1.5 -179t9 -125t17.5 -85.5t31 -48.5t45.5 -27t65.5 -8q27 0 27 -19q0 -20 -25 -20h-16q-155 14 -250 14q-102 0 -250 -14h-16q-25 0 -25 20q0 19 27 19q41 2 65.5 8t45.5 27t31 48.5t17.5 85.5t9 125t1.5 179v147 q-160 17 -393 17q-181 0 -309 -17v-147q0 -112 1.5 -179t8.5 -125t17 -85.5t31 -48.5t45.5 -27t65.5 -8q27 0 27 -19q0 -20 -24 -20h-17q-155 14 -252 14q-102 0 -250 -14h-16q-25 0 -25 20z" />
<glyph unicode="I" horiz-adv-x="733" d="M76 14q0 19 26 19q41 2 65.5 8t45.5 27t31 48.5t17.5 85.5t9 125t1.5 179v354q0 112 -1.5 179t-9 125t-17.5 85.5t-31 48.5t-45.5 27t-65.5 8q-26 0 -26 19q0 20 24 20h17q153 -14 252 -14q103 0 249 14h17q24 0 24 -20q0 -19 -26 -19q-41 -2 -65.5 -8t-45.5 -27 t-31 -48.5t-17.5 -85.5t-9 -125t-1.5 -179v-354q0 -112 1.5 -179t9 -125t17.5 -85.5t31 -48.5t45.5 -27t65.5 -8q26 0 26 -19q0 -20 -24 -20h-17q-153 14 -251 14q-104 0 -250 -14h-17q-24 0 -24 20z" />
<glyph unicode="J" horiz-adv-x="731" d="M-139 -158q0 44 32.5 76.5t77.5 32.5q38 0 66.5 -31t28.5 -74q0 -13 -3 -34v-23q0 -55 62 -55q49 0 87 33t58 92q11 32 14 67t3 137v797q0 112 -1.5 179t-9 125t-17.5 85.5t-31 48.5t-45.5 27t-65.5 8q-27 0 -27 19q0 20 25 20h16q153 -14 252 -14q104 0 252 14h16 q25 0 25 -20q0 -19 -27 -19q-41 -2 -65.5 -8t-45.5 -27t-31 -48.5t-17.5 -85.5t-9 -125t-1.5 -179v-477q0 -174 -11 -272t-40 -174q-46 -122 -136.5 -190.5t-205.5 -68.5q-94 0 -159.5 47.5t-65.5 116.5z" />
<glyph unicode="K" horiz-adv-x="1394" d="M61 14q0 19 27 19q41 2 65.5 8t45.5 27t31 48.5t17.5 85.5t9 125t1.5 179v354q0 112 -1.5 179t-9 125t-17.5 85.5t-31 48.5t-45.5 27t-65.5 8q-27 0 -27 19q0 20 25 20h16q150 -14 246 -14q74 0 246 14h16q25 0 25 -20q0 -19 -27 -19q-41 -2 -65.5 -8t-45.5 -27 t-31 -48.5t-17.5 -85.5t-9 -125t-1.5 -179v-158q116 61 301 263q108 119 155.5 188.5t47.5 110.5q0 26 -23.5 44t-60.5 21t-37 21t27 18q130 -8 180 -8q130 0 275 8h10q26 0 26 -16q0 -18 -30 -21q-123 -10 -217 -80.5t-289 -298.5q-63 -73 -123 -133q192 -20 283.5 -117 t128.5 -321q40 -192 96 -269t162 -83q18 -3 18 -19t-20 -16q-17 0 -65 4t-73 4q-26 0 -81.5 -4t-81.5 -4q-40 0 -68 66t-57 231q-42 236 -78 321q-64 148 -176 148q-29 0 -68 -10q-34 -32 -80.5 -64t-81.5 -47v-133q0 -112 1.5 -179t9 -125t17.5 -85.5t31 -48.5t45.5 -27 t65.5 -8q27 0 27 -19q0 -20 -25 -20h-16q-150 14 -246 14q-74 0 -246 -14h-16q-25 0 -25 20z" />
<glyph unicode="L" horiz-adv-x="1249" d="M61 14q0 19 27 19q41 2 66 8t45.5 26.5t30.5 48.5t17 85.5t9 125t2 179.5v354q0 112 -1.5 179t-9 125t-17.5 85.5t-31 48.5t-45.5 27t-65.5 8q-27 0 -27 19q0 20 25 20h16q150 -14 248 -14q73 0 248 14h16q25 0 25 -20q0 -19 -27 -19q-41 -2 -65.5 -8t-45.5 -27 t-31 -48.5t-17.5 -85.5t-9 -125t-1.5 -179v-493q0 -122 10.5 -177.5t39.5 -87.5q58 -61 208 -61q188 0 294 67.5t200 247.5q12 21 23 21q20 0 20 -25q0 -18 -6 -39q-52 -231 -55 -313h-590q-174 6 -269 6q-79 0 -215 -12h-16q-25 0 -25 20z" />
<glyph unicode="M" horiz-adv-x="1951" d="M53 14q0 19 27 19q41 2 65.5 8t45.5 27t31 48.5t17.5 85.5t9 125t1.5 179v751q-81 78 -170 78q-27 0 -27 19q0 20 27 20q1 0 47 -4q76 -8 143 -8q6 0 26.5 1t60.5 3.5t69 3.5h10q14 0 23 -9.5t26 -43.5q18 -37 58 -111l41 -73q88 -167 147 -293l252 -529 q274 545 333.5 668t110.5 248q23 61 31.5 84t21.5 40t21.5 18t30.5 1q23 0 98.5 -4t102.5 -4q26 0 116 10h17q24 0 24 -20q0 -19 -26 -19q-41 -2 -65.5 -8t-45.5 -27t-31 -48.5t-17.5 -85.5t-9 -125t-1.5 -179v-354q0 -112 1.5 -179t9 -125t17.5 -85.5t31 -48.5t45.5 -27 t65.5 -8q26 0 26 -19q0 -20 -24 -20h-17q-151 14 -245 14q-74 0 -246 -14h-17q-24 0 -24 20q0 19 26 19q41 2 65.5 8t45.5 27t31 48.5t17.5 85.5t9 125t1.5 179v727q-43 -72 -85 -152.5t-185 -367.5q-212 -429 -252 -541l-45 -115q-10 -26 -18 -26q-12 0 -23 26l-364 744 q-57 117 -127 237.5t-109 173.5v-706q0 -112 1.5 -179t9 -125t17.5 -85.5t31 -48.5t45.5 -27t65.5 -8q27 0 27 -19q0 -20 -25 -20q-146 12 -201 12q-34 0 -182 -12h-16q-25 0 -25 20z" />
<glyph unicode="N" horiz-adv-x="1495" d="M2 1350q0 8 7.5 13t17.5 5h24q33 -4 99 -4q9 0 70 2t71 2q26 0 51 -41q42 -62 326 -393l518 -592v481q0 114 -2 184t-9 129.5t-17.5 89.5t-32 53t-47 32t-66.5 14q-35 3 -35 23q0 18 29 18q14 0 93.5 -3t114.5 -3q34 0 114.5 3t94.5 3q29 0 29 -18q0 -20 -35 -23 q-31 -4 -52 -9.5t-40 -18t-31 -28t-22 -44.5t-15 -62t-8.5 -86t-4.5 -111t-1 -143v-786q0 -25 -3.5 -35t-12.5 -10q-12 0 -31 31q-43 64 -72.5 103t-105.5 128l-709 831v-542q0 -85 1 -143t4.5 -111t8.5 -86t15 -62t22 -44.5t31 -28t40 -18t52 -9.5q20 -1 27.5 -6.5 t7.5 -16.5q0 -18 -29 -18q-14 0 -93.5 3t-114.5 3q-34 0 -114.5 -3t-94.5 -3q-29 0 -29 18q0 20 35 23q31 4 52 9.5t40 18t31 28t22 44.5t15 62t8.5 86t4.5 111t1 143v266q0 144 -11 232.5t-36 142.5q-26 58 -59.5 85.5t-118.5 59.5q-25 6 -25 21z" />
<glyph unicode="O" horiz-adv-x="1579" d="M88 666q0 192 98.5 360t265 267.5t357.5 99.5q138 0 264 -53.5t217 -144.5t145 -216.5t54 -263.5q0 -151 -58 -288.5t-155.5 -237t-232.5 -158t-283 -58.5q-190 0 -344 90t-241 248.5t-87 354.5zM326 680q0 -185 59.5 -334.5t165 -234t235.5 -84.5q128 0 236 87.5 t170.5 238.5t62.5 329q0 126 -31 247t-87 210q-58 91 -153 147.5t-187 56.5q-93 0 -180 -54t-150.5 -144t-102 -212.5t-38.5 -252.5z" />
<glyph unicode="P" horiz-adv-x="1208" d="M61 14q0 19 27 19q41 2 65.5 8t45.5 27t31 48.5t17.5 85.5t9 125t1.5 179v354q0 112 -1.5 179t-9 125t-17.5 85.5t-31 48.5t-45.5 27t-65.5 8q-27 0 -27 19q0 20 25 20h16q137 -14 246 -14q243 12 365 12q211 0 329.5 -94.5t118.5 -261.5q0 -96 -46.5 -175.5 t-129.5 -123.5q-74 -41 -163 -59.5t-218 -18.5q-10 0 -30 0.5t-57 1.5t-73 2v-135q0 -87 1 -143.5t4.5 -110t8.5 -83.5t16.5 -58t23.5 -40t34 -22t45 -12.5t58 -3.5q27 0 27 -19q0 -12 -7.5 -16t-27.5 -4q-2 0 -60.5 3.5t-125.5 7t-91 3.5q-73 0 -248 -14h-16q-25 0 -25 20z M444 688q35 -2 76 -2q168 0 264 51q75 37 118.5 113t43.5 170q0 99 -47 175t-127 105q-68 21 -176 21q-103 0 -127.5 -25t-24.5 -129v-479z" />
<glyph unicode="Q" horiz-adv-x="1579" d="M88 655q0 148 58 284t155 235.5t230 159t278 59.5q187 0 343 -91t246.5 -248t90.5 -345q0 -182 -77.5 -344.5t-215.5 -268.5q-120 -94 -375 -164q-146 -40 -189.5 -56t-105.5 -52q41 8 64 8q54 0 117 -25.5t172 -91.5q158 -95 216.5 -121t114.5 -26q62 0 116 29.5 t83 78.5q17 25 29 25q16 0 16 -18q0 -29 -65 -115q-57 -74 -134.5 -115t-160.5 -41q-84 0 -162.5 38t-245.5 159q-102 72 -147.5 94.5t-92.5 22.5q-130 0 -165 -144q-12 -55 -33.5 -77.5t-61.5 -22.5q-31 0 -50 18t-19 47q0 55 94.5 137t245.5 161t307 126q-141 0 -266.5 53 t-215.5 143.5t-142 217.5t-52 270zM326 678q0 -184 59.5 -333.5t165 -234.5t235.5 -85q128 0 236 87.5t170.5 238.5t62.5 331q0 125 -31.5 246.5t-86.5 210.5q-58 91 -153 147.5t-187 56.5q-124 0 -233 -91.5t-173.5 -245t-64.5 -328.5z" />
<glyph unicode="R" horiz-adv-x="1449" d="M61 14q0 19 27 19q41 2 65.5 8t45.5 27t31 49t17.5 85.5t9 125.5t1.5 180v350q0 112 -1.5 180t-9 125.5t-17.5 85.5t-31 49t-45.5 27t-65.5 8q-27 0 -27 19q0 20 25 20h16q145 -12 209 -12q43 0 258 8q29 2 86 2q112 0 199.5 -12.5t164 -42.5t118 -88t41.5 -142 q0 -88 -54.5 -162t-152.5 -118q-76 -35 -193 -68q194 -31 281 -130.5t119 -327.5q23 -117 76.5 -171t162.5 -73q33 -6 33 -23q0 -18 -27 -18q-105 8 -147 8q-77 0 -172 -10q-54 32 -83 106t-52 240q-37 206 -113 285q-37 37 -85 50t-144 13h-181v-178q0 -112 1.5 -180 t9 -125.5t17.5 -85.5t31 -49t45.5 -27t65.5 -8q27 0 27 -19q0 -20 -25 -20h-16q-153 14 -250 14q-104 0 -250 -14h-16q-25 0 -25 20zM446 737h84q206 0 324.5 88t118.5 240q0 83 -41 143.5t-115 89.5q-73 25 -219 25q-96 0 -124 -17t-28 -75v-494z" />
<glyph unicode="S" horiz-adv-x="1124" d="M102 422q0 31 25 31q20 0 31 -33q65 -191 173 -290t253 -99q126 0 215.5 81.5t89.5 196.5q0 100 -70.5 164.5t-253.5 130.5q-252 91 -350 185.5t-98 246.5q0 149 117.5 253t287.5 104q134 0 252 -62q44 -24 64 -24q18 0 29 11.5t20 39.5q9 26 24 26q19 0 22 -20t3 -141 q0 -31 4 -105l8 -100v-12q0 -29 -22 -29t-35 39q-44 149 -146.5 234t-234.5 85q-107 0 -174.5 -61.5t-67.5 -161.5q0 -108 84 -180q56 -47 236 -111q248 -89 349 -185.5t101 -242.5q0 -111 -61 -208.5t-164.5 -154.5t-222.5 -57q-157 0 -318 90q-35 21 -49 21q-35 0 -63 -61 q-11 -27 -27 -27q-22 0 -22 22q0 15 2 52.5t2 44.5z" />
<glyph unicode="T" horiz-adv-x="1349" d="M14 1036l2 23q22 96 29.5 159t7.5 146q43 4 111 4l522 -8l506 8q63 0 102 -4q0 -136 37 -299q6 -18 6 -25q0 -11 -6.5 -18.5t-15.5 -7.5q-10 0 -18 8.5t-19 30.5q-54 123 -169 191.5t-269 68.5q-6 0 -68 -4v-766q0 -192 7 -279t26 -133q38 -83 168 -92q23 -3 30 -7t7 -14 t-9 -14t-32 -4q-15 0 -33 2q-10 0 -51.5 1t-104 2.5t-96.5 2.5q-285 -7 -309 -8h-6q-29 0 -29 18q0 11 10 15t56 8q62 8 97 34t50 75q27 80 27 393v766q-41 4 -84 4q-134 0 -252 -62q-69 -37 -109.5 -83.5t-71.5 -123.5q-14 -32 -30 -32q-8 0 -13.5 7t-5.5 17z" />
<glyph unicode="U" horiz-adv-x="1511" d="M41 1352q0 20 25 20h16q153 -14 250 -14q104 0 250 14h16q25 0 25 -20q0 -19 -27 -19q-31 -2 -51.5 -5.5t-39 -14t-30 -24t-21.5 -41t-14.5 -58.5t-8 -83t-4.5 -108t-1 -139v-235q0 -193 16.5 -292t59.5 -157q46 -63 119.5 -97t166.5 -34q134 0 236.5 71.5t151.5 198.5 q47 122 47 387v121q0 85 -1 143t-4.5 111t-8.5 86t-15 62t-22 44.5t-31 28t-40 18t-52 9.5q-35 3 -35 23q0 18 28 18t94.5 -3t114.5 -3q50 0 116.5 3t94.5 3q29 0 29 -18q0 -20 -35 -23q-31 -4 -52 -9.5t-40 -18t-31 -28t-22 -44.5t-15 -62t-8.5 -86t-4.5 -111t-1 -143v-123 q0 -190 -25.5 -311t-82.5 -203q-72 -103 -194 -159t-271 -56t-257 61t-165 177q-18 37 -28.5 91t-15.5 133t-5 192v235q0 83 -1 139t-4.5 108t-8 83t-14.5 58.5t-21.5 41t-30 24t-39 14t-51.5 5.5q-27 0 -27 19z" />
<glyph unicode="V" horiz-adv-x="1370" d="M-12 1352q0 18 28 18q1 0 122 -5t141 -5q41 0 129 5t124 5q29 0 29 -18t-41 -23q-55 -7 -84.5 -35.5t-29.5 -72.5q0 -29 8.5 -59.5t44.5 -137.5l143 -416q106 -297 135 -411q365 825 365 1022q0 54 -30.5 78.5t-110.5 35.5q-29 3 -29 21t26 18q11 0 17 -2 q105 -10 207 -10t176 6q46 4 57 4q25 0 25 -16q0 -11 -12.5 -17t-47.5 -12q-68 -15 -107.5 -50t-78 -113t-104.5 -255q-72 -193 -109 -282t-154 -361q-69 -158 -94 -235q-5 -12 -20 -56h-88q-39 149 -185 543l-186 508q-49 135 -63 166.5t-37 60.5q-61 70 -140 82 q-26 3 -26 19z" />
<glyph unicode="W" horiz-adv-x="2228" d="M-78 1348q0 20 33 20q20 0 118.5 -4t149.5 -4q199 0 301 6q46 4 58 4q26 0 26 -18q0 -20 -35 -23q-69 -4 -112 -43t-43 -96q0 -40 24 -127.5t62 -185.5l244 -627l339 862l-18 49q-61 153 -192 174q-29 3 -29 21t26 18h15q44 -4 151 -8t170 -4q130 0 185 4q62 4 73 4 q31 0 31 -18t-31 -21q-83 -11 -130.5 -51.5t-47.5 -101.5q0 -39 14.5 -90t55.5 -156l266 -682q103 229 207 512q74 198 93.5 268t19.5 133q0 82 -38 118.5t-139 51.5q-30 3 -30 21t28 18q5 0 99 -8q78 -4 202 -4q53 0 116.5 4t94.5 4q29 0 29 -20q0 -19 -27 -19 q-105 -7 -159.5 -65t-116.5 -226q-22 -54 -289 -721q-50 -122 -68 -171t-49 -148l-10 -25h-59q-54 166 -84 240l-322 809q-45 -87 -307 -746q-68 -171 -112 -303h-56q-46 155 -102 297l-293 738q-64 178 -122 240t-177 81q-33 5 -33 19z" />
<glyph unicode="X" horiz-adv-x="1425" d="M-6 1350q0 18 26 18l64 -2q82 -6 192 -6q80 0 216 4q62 4 77 4q27 0 27 -16q0 -15 -29 -21q-108 -18 -108 -86q0 -52 61 -137l219 -313l166 219q111 146 111 221q0 35 -32 60t-91 36q-27 6 -27 21q0 18 31 18q4 0 70 -6q29 -2 100 -2q123 0 264 6h10q27 0 27 -18 q0 -17 -27 -23q-91 -19 -160.5 -75.5t-168.5 -190.5l-232 -313l258 -355q144 -199 210.5 -263.5t158.5 -96.5q27 -8 27 -23q0 -18 -27 -18q-16 0 -74 4q-79 6 -194 6q-127 0 -260 -8h-9q-28 0 -28 18q0 15 28 21q46 9 72.5 34t26.5 60t-17.5 71t-74.5 115l-203 287 l-135 -178q-122 -177 -142 -212.5t-20 -70.5q0 -49 29.5 -75t97.5 -35q28 -3 28 -19q0 -18 -26 -18q-4 0 -78 6q-82 4 -141 4q-123 0 -240 -8h-12q-29 0 -29 20q0 18 39 23q90 17 167.5 77t156.5 173l262 362l-281 391q-200 280 -330 289q-26 6 -26 21z" />
<glyph unicode="Y" horiz-adv-x="1280" d="M-63 1354q0 16 24 16q9 0 59 -4q86 -4 156 -4q81 0 199 4q58 4 71 4q29 0 29 -16q0 -19 -29 -25q-88 -23 -88 -80q0 -42 68 -149l264 -404l205 279q35 48 106 164q46 73 46 114q0 43 -39 62q-8 6 -68 18q-18 4 -18 19q0 18 28 18q21 0 72.5 -3t85.5 -3q86 0 164 4l55 2 q27 0 27 -18q0 -15 -29 -21q-71 -14 -124 -57t-128 -148l-239 -335q-57 -76 -74 -122.5t-17 -121.5v-41q0 -266 7 -334.5t38 -99.5q39 -36 115 -39q27 0 27 -19q0 -20 -27 -20h-14q-169 14 -242 14q-71 0 -246 -14h-16q-25 0 -25 20q0 19 27 19q41 2 65.5 8t45.5 27t31 48.5 t17.5 85.5t9 125t1.5 179v80l-338 514q-75 114 -131.5 165t-126.5 68q-24 5 -24 21z" />
<glyph unicode="Z" horiz-adv-x="1216" d="M55 1053q0 13 8 24q68 159 99 293q20 1 58 1q76 0 230 -3q230 -4 248 -4h166q78 2 248 2q27 0 27 -12q0 -13 -13 -29l-819 -1274q117 -2 201 -2q261 0 404 59t247 211q17 23 29 23q16 0 16 -16q0 -11 -6 -23q-34 -80 -62 -174.5t-28 -130.5q-126 -4 -141 -4q-74 0 -311 4 t-349 4q-98 0 -184 -2h-17q-38 0 -38 16q0 10 14 35l819 1262q-167 8 -250 8q-247 0 -387 -86q-48 -31 -73.5 -58.5t-94.5 -125.5q-14 -17 -22 -17t-13.5 6t-5.5 13z" />
<glyph unicode="[" d="M399 -236v1711h377v-41h-78q-101 0 -125 -26.5t-24 -137.5v-1301q0 -111 24 -137.5t125 -26.5h78v-41h-377z" />
<glyph unicode="\" horiz-adv-x="983" d="M82 1366h92l989 -1868h-88z" />
<glyph unicode="]" d="M248 -195h78q101 0 125 26.5t24 137.5v1301q0 111 -24 137.5t-125 26.5h-78v41h377v-1711h-377v41z" />
<glyph unicode="^" d="M-51 584l567 850h14l545 -848h-80l-411 631l-422 -633h-213z" />
<glyph unicode="_" d="M45 -180h934v-92h-934v92z" />
<glyph unicode="`" d="M344 1360q0 31 26 54.5t60 23.5q60 0 96 -76l144 -309q12 -24 12 -35q0 -9 -5.5 -16t-12.5 -7q-14 0 -37 23l-238 254q-45 45 -45 88z" />
<glyph unicode="a" horiz-adv-x="894" d="M53 168q0 52 20 97.5t58.5 81.5t83 65t106 54.5t113.5 43.5t119 37v57q0 91 -4 121.5t-21 62.5q-18 33 -50.5 52.5t-71.5 19.5q-106 0 -130 -112q-15 -63 -36 -87t-62 -24q-37 0 -60.5 20.5t-23.5 51.5q0 76 103 138t229 62q156 0 233 -92q31 -39 40.5 -78t9.5 -135v-381 q0 -92 14 -128t49 -36q18 0 27.5 6t40.5 37q4 7 12 7q9 0 15.5 -8t6.5 -17q0 -15 -32 -47q-51 -45 -117 -45q-69 0 -116 43t-56 115q-79 -90 -150 -130t-151 -40q-88 0 -143.5 52.5t-55.5 135.5zM215 225q0 -60 37.5 -97.5t97.5 -37.5q57 0 113 36t76 85q14 38 14 156v131 q-158 -28 -248 -100.5t-90 -172.5z" />
<glyph unicode="b" horiz-adv-x="1069" d="M35 1352q0 16 16 16q13 0 49 -3t45 -3q16 0 125 8h9q12 0 18 -6q5 -4 5.5 -24t0.5 -136v-413q130 118 272 118q172 0 293 -133t121 -323q0 -129 -60 -238t-162.5 -172t-223.5 -63q-75 0 -128 20t-124 74q-15 12 -29 12q-26 0 -72 -84q-12 -25 -24 -25q-16 0 -16 46v1024 q0 159 -17.5 214t-73.5 70q-24 5 -24 21zM303 338q0 -48 1.5 -79t6.5 -56.5t12.5 -43.5t20.5 -38q30 -43 80 -68.5t108 -25.5q129 0 207 112.5t78 298.5q0 189 -78 301.5t-207 112.5q-48 0 -93 -18.5t-80.5 -51.5t-55.5 -77v-367z" />
<glyph unicode="c" horiz-adv-x="913" d="M82 434q0 130 58.5 239t160 172.5t223.5 63.5q115 0 204 -60t89 -138q0 -31 -24 -53.5t-56 -22.5q-29 0 -45 16.5t-35 67.5q-61 147 -163 147q-103 0 -171.5 -109.5t-68.5 -273.5q0 -179 84.5 -304.5t204.5 -125.5q84 0 158.5 59t99.5 144q8 25 22 25q9 0 16 -7t7 -16 q0 -17 -17 -53.5t-41 -71.5q-50 -72 -131.5 -112.5t-179.5 -40.5q-175 0 -285 126.5t-110 327.5z" />
<glyph unicode="d" horiz-adv-x="1085" d="M80 420q0 131 58 244t155.5 179t210.5 66q73 0 138.5 -37t105.5 -100v311q0 129 -19 181t-72 67q-26 5 -26 21t18 16q13 0 49.5 -3t44.5 -3q16 0 127 8h7q14 0 20 -6q5 -4 5.5 -21.5t0.5 -117.5v-688q0 -85 0.5 -142.5t2.5 -110.5t4.5 -85.5t8 -61.5t11.5 -44t16 -27.5 t21.5 -17.5t27.5 -9q14 -3 18.5 -6t4.5 -10q0 -16 -19 -19q-68 0 -204 -8q-31 0 -39 19t-8 91v70q-43 -91 -123 -143.5t-174 -52.5q-155 0 -263 128t-108 312zM262 442q0 -168 69.5 -274.5t178.5 -106.5q63 0 117.5 40.5t85.5 109.5q35 74 35 201v227q-28 105 -86 161 t-140 56q-114 0 -187 -116t-73 -298z" />
<glyph unicode="e" horiz-adv-x="925" d="M82 420q0 133 57 245.5t154.5 178t212.5 65.5q151 0 250.5 -108t99.5 -271q0 -34 -6.5 -40.5t-38.5 -6.5h-553q-4 -74 -4 -82q0 -149 84 -250.5t207 -101.5q113 0 248 105q17 10 22 10q10 0 18.5 -9t8.5 -20q0 -9 -9.5 -19t-37.5 -32q-144 -104 -310 -104 q-175 0 -289 124.5t-114 315.5zM262 541q78 -4 131 -4q214 0 264 20q35 15 35 90q0 94 -53 156.5t-133 62.5q-95 0 -161 -87.5t-83 -237.5z" />
<glyph unicode="f" horiz-adv-x="626" d="M47 834q0 53 41 53h107v35q0 212 79 321q50 68 125.5 107t161.5 39q85 0 143 -40t58 -98q0 -34 -23 -58t-55 -24q-30 0 -47 18t-35 66q-27 84 -102 84q-37 0 -70.5 -31.5t-56.5 -88.5q-17 -45 -24 -109t-7 -186v-35h147q29 0 29 -15q-1 -35 -10 -47t-33 -12h-133v-518 q0 -107 9 -159t30.5 -75t67.5 -30q18 -3 18 -19t-21 -16q-2 0 -49 6q-69 6 -129 6q-63 0 -174 -12h-4q-20 0 -20 16t18 19q47 7 68.5 30.5t30 74.5t8.5 159v518h-125q-23 0 -23 21z" />
<glyph unicode="g" horiz-adv-x="1058" d="M27 -342q0 75 68.5 143.5t197.5 120.5q-85 13 -138 54t-53 92q0 52 46.5 104t144.5 111q-88 38 -139.5 112t-51.5 162q0 90 55 172t146 131t191 49q124 0 231 -80q28 -22 47 -22q17 0 27.5 6.5t25.5 28.5q46 61 123 61q55 0 99.5 -36.5t44.5 -82.5q0 -25 -21 -43t-49 -18 q-22 0 -37 9t-35 34q-42 53 -80 53q-22 0 -43.5 -26t-27.5 -58q39 -74 39 -157q0 -148 -126 -240.5t-331 -95.5q-74 0 -103.5 -17.5t-29.5 -60.5q0 -63 62 -86q58 -23 209 -23h13h48q80 0 128 -5q63 -7 115 -27q68 -26 109 -87.5t41 -136.5q0 -158 -144.5 -252t-390.5 -94 q-185 0 -298 56.5t-113 148.5zM162 -317q0 -83 78.5 -133t210.5 -50q170 0 283.5 71t113.5 177q0 77 -85.5 123.5t-227.5 46.5q-167 0 -259 -51q-50 -28 -82 -80t-32 -104zM272 578q0 -148 72 -220q61 -67 137 -67q86 0 142.5 79.5t56.5 202.5q0 129 -58 212t-149 83 q-86 0 -143.5 -83.5t-57.5 -206.5z" />
<glyph unicode="h" horiz-adv-x="1095" d="M57 12q0 16 19 19q67 10 86.5 59t19.5 205v473q0 302 -2.5 379t-13.5 113q-18 56 -74 71q-24 5 -24 21t16 16q14 0 49.5 -3t44.5 -3q16 0 125 8h8q13 0 19 -6q4 -4 5 -29.5t1 -173.5v-393q120 141 301 141q133 0 203.5 -74t70.5 -212l-2 -113v-215q0 -107 9 -159 t30.5 -75t67.5 -30q18 -3 18 -19t-20 -16q-2 0 -49 6q-69 6 -129 6q-63 0 -174 -12h-7q-18 0 -18 16t16 19q47 7 68.5 30.5t30 74.5t8.5 159v215q0 196 -39 260q-46 74 -154 74q-63 0 -115.5 -29t-80.5 -80q-35 -58 -35 -184v-256q0 -107 8.5 -159t30 -75t67.5 -30 q17 -3 17 -19t-21 -16q-2 0 -49 6q-69 6 -131 6q-87 0 -176 -12h-4q-21 0 -21 16z" />
<glyph unicode="i" horiz-adv-x="538" d="M55 870q0 19 21 19h10q14 -2 41 -2q49 0 178 20q4 2 14 2q17 0 23 -44.5t6 -182.5v-387q0 -107 9 -159t30.5 -75t67.5 -30q18 -3 18 -19t-20 -16q-3 0 -50 6q-75 6 -131 6q-87 0 -178 -12h-4q-20 0 -20 16t18 19q47 7 68.5 30.5t30 74.5t8.5 159v285q0 82 -11 148t-28 89 q-18 29 -70 35q-31 3 -31 18zM164 1221q0 37 28 64.5t66 27.5q41 0 70.5 -28.5t29.5 -67.5q0 -40 -28.5 -69.5t-67.5 -29.5q-38 0 -68 31t-30 72z" />
<glyph unicode="j" horiz-adv-x="503" d="M-203 -360q0 37 29.5 63.5t69.5 26.5q44 0 64.5 -26t27.5 -95q6 -74 57 -74q38 0 73 30.5t54 80.5q15 40 19 93t4 210v610q0 165 -22 226t-85 67q-31 3 -31 18q0 19 21 19h10q12 -2 39 -2q51 0 180 20q4 2 12 2q19 0 24 -50t5 -230v-568q0 -167 -12.5 -253.5 t-46.5 -149.5q-89 -168 -281 -168q-89 0 -150 43.5t-61 106.5zM160 1274q0 37 28 64.5t66 27.5q41 0 70.5 -28.5t29.5 -67.5q0 -40 -28.5 -69.5t-67.5 -29.5q-38 0 -68 31t-30 72z" />
<glyph unicode="k" d="M57 12q0 16 19 19q67 10 86.5 59t19.5 205v784q0 133 -18 185t-70 67q-24 5 -24 21t16 16q13 0 48 -3t42 -3q19 0 125 8h6q16 0 19 -6q4 -4 5 -25t1 -141v-745q96 55 126 77t117 101q61 57 87 94t26 68q0 52 -80 69q-20 3 -20 15q0 16 24 16q20 0 79 -4t87 -4q62 0 156 8 h8q21 0 21 -14q0 -15 -27 -21q-76 -25 -127 -62.5t-154 -146.5q-37 -39 -71 -69q75 -19 124 -86.5t83 -200.5q16 -63 25.5 -97t23.5 -66t25 -45.5t33.5 -26.5t44 -18t61.5 -11q28 0 28 -17q0 -18 -24 -18q-11 0 -17 2q-73 6 -114 6q-9 0 -60 -3t-72 -3q-30 0 -45.5 15.5 t-23.5 51.5l-25 136q-25 134 -69 195.5t-127 74.5q-7 -3 -17 -9.5t-12 -8.5l-49 -27q-28 -18 -36.5 -37.5t-8.5 -71.5v-20q0 -107 8.5 -159t30 -75t67.5 -30q19 -3 19 -19t-21 -16q-2 0 -49 6q-75 6 -129 6q-65 0 -176 -12h-4q-21 0 -21 16z" />
<glyph unicode="l" horiz-adv-x="518" d="M57 12q0 16 19 19q67 10 86.5 59t19.5 205v733q0 121 -7 179.5t-25.5 86t-57.5 37.5q-26 5 -26 21t18 16q14 0 50 -3t42 -3q18 0 127 8h8q13 0 19 -6q4 -4 5 -25.5t1 -144.5v-899q0 -107 8.5 -159t30 -75t67.5 -30q19 -3 19 -19t-21 -16q-2 0 -49 6q-75 6 -131 6 q-87 0 -178 -12h-4q-21 0 -21 16z" />
<glyph unicode="m" horiz-adv-x="1667" d="M47 872q0 17 23 17h10q12 -2 39 -2q43 0 67 2.5t127 17.5q6 2 15 2q32 0 32 -131v-30q51 75 131.5 117t172.5 42q176 0 258 -141q57 69 134 106t163 37q76 0 139 -30.5t92 -81.5q20 -33 24.5 -62.5t4.5 -122.5v-317q0 -107 8.5 -159t30 -75t67.5 -30q19 -3 19 -19 t-21 -16q-2 0 -49 6q-75 6 -131 6q-87 0 -178 -12h-4q-21 0 -21 16t19 19q67 10 86.5 59t19.5 205v299q0 258 -162 258q-55 0 -115 -33.5t-94 -83.5q-55 -79 -55 -237v-203q0 -107 9 -159t30.5 -75t67.5 -30q18 -3 18 -19t-20 -16q-3 0 -50 6q-69 6 -127 6q-63 0 -174 -12 h-4q-20 0 -20 16t18 19q47 7 68.5 30.5t30 74.5t8.5 159v203q0 162 -25 245q-13 47 -48 74t-81 27q-57 0 -114 -33t-91 -86q-51 -82 -51 -213v-217q0 -163 27 -219q17 -36 82 -45q18 -3 18 -19t-20 -16q-3 0 -50 6q-69 6 -131 6q-65 0 -176 -12h-4q-20 0 -20 16t18 19 q47 7 68.5 30.5t30 74.5t8.5 159v217q0 138 -10 208t-34 100t-71 32q-19 2 -26 6t-7 14z" />
<glyph unicode="n" horiz-adv-x="1142" d="M47 872q0 17 23 17h10q12 -2 39 -2q43 0 67 2.5t127 17.5q6 2 15 2q17 0 23.5 -31.5t6.5 -109.5v-20q118 161 314 161q73 0 137.5 -25.5t99.5 -68.5q27 -32 37 -76t10 -133v-311q0 -107 9 -159t30.5 -75t67.5 -30q18 -3 18 -19t-20 -16q-2 0 -49 6q-75 6 -133 6 q-88 0 -179 -12h-4q-20 0 -20 16t18 19q47 7 68.5 30.5t30 74.5t8.5 159v305q0 129 -44 188.5t-139 59.5q-81 0 -146 -45t-95 -119q-31 -82 -31 -195v-194q0 -167 25 -219q17 -36 82 -45q18 -3 18 -19t-20 -16q-3 0 -50 6q-75 6 -131 6q-87 0 -176 -12h-4q-20 0 -20 16 t18 19q47 7 68.5 30.5t30 74.5t8.5 159v194q0 151 -9.5 225.5t-33 105t-72.5 32.5q-19 2 -26 6t-7 14z" />
<glyph unicode="o" horiz-adv-x="1048" d="M82 440q0 125 61 233t165 172t224 64q180 0 307.5 -132.5t127.5 -319.5q0 -200 -134 -338.5t-327 -138.5q-181 0 -302.5 131.5t-121.5 328.5zM246 453q0 -236 112 -351q79 -82 168 -82q117 0 197 119.5t80 292.5q0 180 -85.5 308t-205.5 128q-112 0 -189 -120.5 t-77 -294.5z" />
<glyph unicode="p" horiz-adv-x="1089" d="M57 -485q0 15 19 18q67 10 86.5 59t19.5 205v676q0 168 -3 223.5t-13 85.5q-8 25 -27.5 45.5t-42.5 26.5q-24 8 -24 18q0 17 18 17q9 0 72 -6q145 10 149 10q17 0 20 -13.5t3 -93.5v-22q65 75 130.5 110t143.5 35q164 0 282 -136.5t118 -326.5q0 -202 -129.5 -334 t-327.5 -132q-103 0 -217 53v-236q0 -107 8.5 -159t30 -75t67.5 -30q19 -3 19 -18q0 -17 -21 -17q-2 0 -49 6q-87 7 -131 7q-80 0 -176 -13h-4q-21 0 -21 17zM334 111q87 -84 196 -84q160 0 242 143q66 116 66 276q0 172 -78.5 288t-194.5 116q-51 0 -101.5 -27t-84.5 -73 q-45 -56 -45 -195v-444z" />
<glyph unicode="q" horiz-adv-x="1071" d="M82 438q0 129 60.5 237.5t164.5 171t228 62.5q63 0 116.5 -15.5t122.5 -53.5q30 -15 43 -15q34 0 53 43q7 20 13.5 26.5t17.5 6.5q25 0 25 -22v-13q-11 -113 -11 -276v-793q0 -107 9 -159t30.5 -75t67.5 -30q18 -3 18 -18q0 -17 -20 -17q-2 0 -49 6q-87 7 -129 7 q-56 0 -176 -13h-4q-21 0 -21 17q0 15 18 18q47 7 68.5 30.5t30 74.5t8.5 159v291q-41 -49 -110.5 -78.5t-143.5 -29.5q-118 0 -217 61t-156 166.5t-57 230.5zM252 436q0 -177 82.5 -293t208.5 -116q78 0 136.5 46.5t86.5 129.5v313q0 159 -29 236q-22 53 -74 84.5 t-116 31.5q-128 0 -211.5 -122.5t-83.5 -309.5z" />
<glyph unicode="r" horiz-adv-x="804" d="M47 872q0 17 23 17h10q12 -2 39 -2q43 0 67 2.5t127 17.5q6 2 15 2q19 0 25.5 -38.5t6.5 -139.5v-26q127 204 285 204q68 0 111 -37.5t43 -95.5q0 -43 -26 -71.5t-64 -28.5q-26 0 -39 10t-39 53q-30 56 -92 56q-75 0 -135 -97.5t-60 -220.5v-182q0 -163 27 -219 q17 -36 82 -45q18 -3 18 -19t-20 -16q-3 0 -50 6q-69 6 -133 6q-63 0 -174 -12h-4q-20 0 -20 16t18 19q47 7 68.5 30.5t30 74.5t8.5 159v172q0 164 -9 241.5t-32.5 109t-73.5 34.5q-19 2 -26 6t-7 14z" />
<glyph unicode="s" horiz-adv-x="792" d="M86 285q0 22 20 22q16 0 27 -31q37 -114 110.5 -179.5t162.5 -65.5q71 0 121.5 46.5t50.5 112.5q0 58 -42 98.5t-159 94.5q-141 66 -194.5 126t-53.5 153q0 104 79 175.5t193 71.5q89 0 160 -49q24 -16 33 -16q25 0 41 28q11 19 20 19q19 0 19 -31l-2 -92q0 -18 4 -67 t4 -56q0 -9 -5.5 -15.5t-12.5 -6.5q-8 0 -13 7.5t-22 43.5q-36 81 -103 132.5t-133 51.5q-63 0 -106 -35.5t-43 -87.5q0 -57 46.5 -99.5t162.5 -92.5q128 -55 172 -97q75 -72 75 -176q0 -117 -85.5 -203.5t-202.5 -86.5q-90 0 -195 63q-25 14 -41 14q-14 0 -21 -7.5 t-16 -31.5q-9 -22 -24 -22q-19 0 -19 31q0 34 2 65v41q0 71 -6 111q-4 32 -4 41z" />
<glyph unicode="t" horiz-adv-x="638" d="M20 829q0 21 8.5 34.5t20.5 15.5q193 3 217 309q3 33 29 33q24 0 24 -43v-291h189q29 0 29 -21q0 -55 -48 -55h-170v-451q0 -88 4.5 -128.5t18.5 -77.5q17 -46 54.5 -74.5t78.5 -28.5q73 0 129 74q11 14 21 14q7 0 13.5 -6.5t6.5 -13.5q0 -22 -53 -72q-70 -67 -184 -67 q-115 0 -183.5 65.5t-68.5 175.5q0 17 8 115q4 66 4 227v248h-113q-20 0 -27.5 4t-7.5 14z" />
<glyph unicode="u" horiz-adv-x="1091" d="M59 874q0 15 19 15q12 0 86 -6q145 10 149 10q16 0 21 -10q2 -4 2 -205v-272q0 -184 29 -273q15 -41 54 -68.5t83 -27.5q71 0 126 41t89 119q22 46 26.5 79t8.5 187v180q0 191 -86 211q-26 5 -32.5 8t-6.5 12q0 15 18 15q12 0 84 -6q145 10 150 10q17 0 20 -10 q2 -4 2 -205v-406q0 -115 23 -168.5t77 -64.5q15 -3 20 -6t5 -10q0 -16 -20 -19l-222 -8q-34 0 -42.5 18.5t-8.5 87.5v37q-58 -83 -126.5 -121t-157.5 -38q-74 0 -136.5 30.5t-93.5 81.5q-20 35 -26.5 76.5t-6.5 140.5v303q0 124 -19.5 178t-68.5 64q-26 5 -32.5 8t-6.5 12z " />
<glyph unicode="v" horiz-adv-x="878" d="M-35 866q0 19 25 19h8q70 -4 143 -4q68 0 168 6h8q19 0 19 -17q0 -15 -21 -18q-35 -7 -47 -18t-12 -35q0 -32 16 -72l232 -545l166 404q49 118 49 192q0 31 -13 47.5t-47 26.5q-20 6 -20 18q0 17 25 17l63 -2q14 -2 57 -2q49 0 123 4h11q18 0 18 -17q0 -12 -23 -18 q-34 -7 -50 -14t-37 -33t-37 -60.5t-50 -113.5l-268 -645h-53q-55 146 -142 352l-139 315q-49 112 -74.5 145t-72.5 48q-25 6 -25 20z" />
<glyph unicode="w" horiz-adv-x="1361" d="M-20 872q0 17 20 17h14q84 -8 156 -8q57 0 176 6h6q23 0 23 -17q0 -13 -25 -16q-71 -13 -71 -80q0 -41 16 -84l186 -491l195 508l-19 53q-22 49 -38.5 66.5t-53.5 29.5q-16 6 -16 16q0 17 26 17q22 0 75 -3t81 -3q72 0 131 6h15q20 0 20 -17q0 -12 -23 -18 q-53 -14 -53 -70q0 -41 15 -84l182 -479l174 469q18 46 18 80t-15.5 53t-53.5 31q-21 6 -21 18q0 15 23 15h10q47 -4 117 -4q2 0 14.5 0.5t37 1.5t46.5 2h8q23 0 23 -17q0 -14 -25 -20q-41 -11 -72 -50.5t-59 -117.5l-170 -434q-73 -198 -84 -260h-37l-252 655l-170 -434 q-20 -52 -79 -221h-43l-263 678q-35 95 -65 134.5t-74 51.5q-26 9 -26 20z" />
<glyph unicode="x" horiz-adv-x="958" d="M-6 10q0 13 22 21q88 21 217 168l185 223l-209 278q-91 125 -166 146q-25 8 -25 20q0 21 29 21h14q76 -6 195 -6q31 0 82 3t63 3q25 0 25 -19q0 -15 -23 -18q-36 -8 -48.5 -18t-12.5 -33q0 -33 49 -101l123 -166l117 144q65 79 65 121q0 22 -11 34t-40 19q-20 6 -20 18 q0 19 30 19l115 -6h41q27 0 86 6h16q27 0 27 -19q0 -14 -27 -20q-87 -18 -225 -184l-143 -172l250 -334q46 -62 78 -90t65 -37q27 -5 27 -19q0 -16 -25 -16q-21 0 -74 4t-82 4q-92 0 -186 -8h-18q-23 0 -23 14q0 16 31 19q22 3 35.5 17.5t13.5 37.5q0 49 -72 143l-114 154 l-146 -176q-57 -74 -57 -115q0 -24 19.5 -37.5t62.5 -21.5q28 -3 28 -19t-26 -16q-13 0 -66.5 3t-77.5 3q-61 0 -153 -8h-15q-26 0 -26 16z" />
<glyph unicode="y" horiz-adv-x="897" d="M-51 -391q0 44 27.5 73t70.5 29q40 0 58.5 -18.5t31.5 -73.5q12 -55 58 -55q62 0 116.5 70t106.5 216l24 66l-276 698q-49 132 -77.5 172.5t-82.5 59.5q-22 8 -22 20q0 19 30 19q123 -4 160 -4l131 2q54 4 64 4q26 0 26 -19q0 -12 -22 -18q-46 -12 -64 -33.5t-18 -64.5 q0 -50 22 -111l205 -520l170 502q19 55 19 114q0 51 -25.5 77.5t-83.5 35.5q-23 7 -23 18q0 19 31 19l64 -2q25 -2 73 -2q53 0 131 4h11q28 0 28 -19q0 -13 -24 -24q-46 -19 -75.5 -63.5t-70.5 -157.5l-243 -693q-56 -158 -88 -226.5t-74 -123.5q-96 -125 -223 -125 q-66 0 -116 46.5t-50 107.5z" />
<glyph unicode="z" horiz-adv-x="854" d="M57 16q0 6 11 23l514 795q-73 8 -138 8q-129 0 -210 -49.5t-138 -163.5q-13 -19 -20 -19q-4 0 -8.5 4t-4.5 9q0 2 2 8.5t3 11.5l57 209q6 25 8.5 29t13.5 6h598q27 0 27 -17q0 -7 -8 -18l-510 -795q66 -10 139 -10q153 0 237.5 46.5t153.5 168.5q8 17 19 17q7 1 10 -7 q2 -4 1.5 -7.5t-1.5 -6.5l-51 -219q-6 -28 -13 -33.5t-36 -5.5h-615q-24 0 -32.5 3.5t-8.5 12.5z" />
<glyph unicode="{" d="M213 633v31q116 8 158.5 45t42.5 133q0 57 -2 86l-2 168q0 155 20.5 226.5t77.5 111.5q35 25 79.5 31.5t196.5 7.5q19 0 37 2v-45q-84 -1 -136 -14.5t-83 -47t-42 -81.5t-11 -126q0 -207 -2 -309q0 -83 -41.5 -135t-116.5 -66v-6q60 -11 101 -51t51 -100q8 -45 8 -191 v-199q-4 -173 52.5 -234.5t219.5 -59.5v-46q-156 3 -194 5.5t-72 13.5q-76 23 -111.5 92t-35.5 193q0 78 6 389q0 92 -46 132.5t-155 43.5z" />
<glyph unicode="|" d="M455 -342v1708h114v-1708h-114z" />
<glyph unicode="}" d="M203 -190q83 -1 135.5 12t83 46.5t42 82.5t11.5 127v332q-3 205 160 235v6q-60 11 -95.5 42t-50 81t-12.5 127l-2 303q-6 127 -64.5 175.5t-207.5 50.5v45q20 -2 37 -2h82q100 -1 149.5 -18t83.5 -60q34 -44 46.5 -107.5t12.5 -191.5q0 -11 -2 -118.5t-2 -139.5 q0 -93 43 -130.5t158 -43.5v-31q-114 -6 -157.5 -43t-43.5 -127q0 -49 3 -194t3 -203q0 -128 -39 -197.5t-124 -91.5q-25 -5 -41 -7t-64.5 -3.5t-144.5 -2.5v46z" />
<glyph unicode="~" horiz-adv-x="1366" d="M254 1274q59 97 132 149t151 52q60 0 182 -45q110 -37 164 -37q110 0 198 110l29 -20q-47 -87 -124.5 -142t-151.5 -55q-32 0 -56.5 6t-132.5 41q-113 39 -176 39q-54 0 -87.5 -21.5t-96.5 -95.5z" />
<glyph unicode="&#xa1;" horiz-adv-x="491" d="M150 811q0 40 28 68t66 28t67 -30t29 -70q0 -35 -27.5 -62.5t-64.5 -27.5q-40 0 -69 28t-29 66zM160 -326q0 42 22 238l25 246q0 14 11 184.5t11 214.5q0 31 21 31q25 0 22 -41q-2 -2 2 -72q0 -4 1 -16t2 -33.5t2 -42.5q10 -249 55 -619q6 -40 6 -88q0 -63 -23.5 -98 t-66.5 -35q-41 0 -65.5 35.5t-24.5 95.5z" />
<glyph unicode="&#xa2;" horiz-adv-x="946" d="M131 688q0 201 109 334t295 158v168h47v-166q137 -2 226 -64t89 -157q0 -35 -20.5 -58.5t-49.5 -23.5q-40 0 -61 30q-9 10 -13 26t-18 89q-4 53 -40.5 78t-112.5 28v-854q27 -6 47 -6q69 0 127 36t121 118l36 -25q-60 -103 -140.5 -154t-190.5 -55v-174h-47v172 q-146 11 -248 103q-71 65 -113.5 172.5t-42.5 224.5zM291 735q0 -151 64 -264.5t180 -167.5v821q-113 -34 -178.5 -138.5t-65.5 -250.5z" />
<glyph unicode="&#xa3;" horiz-adv-x="1064" d="M90 111q0 60 50.5 99.5t127.5 39.5q79 0 166 -37q10 39 10 68q0 32 -17.5 150t-37.5 226h-229v80h207q-22 105 -27.5 143.5t-5.5 90.5q0 189 99 302t265 113q103 0 172.5 -56.5t69.5 -141.5q0 -39 -19.5 -63.5t-50.5 -24.5q-32 0 -51.5 25t-19.5 65q0 5 4 28.5t4 34.5 q0 34 -33 57t-82 23q-88 0 -141 -64.5t-53 -170.5q0 -44 7 -83.5t36 -162.5q7 -31 22 -115h299v-80h-289q7 -96 7 -131q0 -105 -16.5 -182t-55.5 -156q137 -77 258 -77q100 0 168 59t80 156l35 -2q-15 -164 -91 -252t-202 -88q-66 0 -132 27.5t-161 94.5 q-107 -122 -219 -122q-67 0 -110.5 35.5t-43.5 91.5zM172 117q0 -34 24.5 -57t61.5 -23q43 0 84.5 27.5t69.5 74.5q-90 49 -148 49q-41 0 -66.5 -19.5t-25.5 -51.5z" />
<glyph unicode="&#xa4;" horiz-adv-x="1366" d="M123 1194l63 61l189 -188q138 109 307 109q80 0 146.5 -24t158.5 -85l193 190l63 -63l-192 -193q58 -95 79 -158t21 -143q0 -82 -21.5 -144t-82.5 -155l194 -192l-63 -64l-191 191q-88 -59 -157 -83t-150 -24q-79 0 -144 23t-157 82l-189 -189l-61 64l186 186 q-60 86 -84 152t-24 145q0 77 23.5 148t80.5 166zM334 702q0 -145 101.5 -246.5t246.5 -101.5q141 0 243.5 101.5t102.5 240.5q0 149 -101 252t-247 103q-142 0 -244 -103t-102 -246z" />
<glyph unicode="&#xa5;" horiz-adv-x="1193" d="M0 1329v37h473v-37q-101 -2 -128.5 -9.5t-27.5 -35.5q0 -19 35 -84l299 -547l273 480q49 82 49 127q0 37 -29.5 50.5t-114.5 18.5v37h365v-37q-46 -3 -72 -17t-55 -52.5t-80 -129.5l-151 -276h268v-57h-295l-129 -201v-41h424v-59h-424v-295q0 -106 22.5 -135t108.5 -29 h72v-37h-559v37h71q86 0 108.5 28.5t22.5 135.5v295h-422v59h422v20l-137 222h-285v57h258l-155 303q-63 115 -95 142t-112 30z" />
<glyph unicode="&#xa6;" d="M455 313h114v-655h-114v655zM455 678v688h114v-688h-114z" />
<glyph unicode="&#xa7;" horiz-adv-x="933" d="M68 666q0 85 59 142.5t145 57.5h25q-117 164 -117 308q0 109 84.5 186.5t204.5 77.5q92 0 155.5 -55.5t63.5 -135.5q0 -55 -34 -94t-81 -39q-32 0 -55.5 21.5t-23.5 50.5q0 22 6 32.5t37 41.5q24 27 24 53q0 34 -30.5 58t-71.5 24q-71 0 -122.5 -49.5t-51.5 -118.5 q0 -97 86 -228q17 -27 153 -184l84 -102q116 -137 148 -178t55 -84q53 -92 53 -170q0 -54 -29.5 -103.5t-76.5 -75.5q-46 -26 -125 -26q98 -131 98 -283q0 -125 -80 -210t-198 -85q-93 0 -159.5 56.5t-66.5 134.5q0 47 30 81.5t71 34.5q34 0 57 -22.5t23 -56.5 q0 -20 -7 -31.5t-30 -30.5q-31 -25 -31 -49q0 -31 35.5 -53.5t81.5 -22.5q73 0 120.5 52.5t47.5 132.5q0 95 -57.5 195t-213.5 278q-177 201 -231.5 290.5t-54.5 178.5zM160 731q0 -41 44.5 -112t145.5 -191l262 -309h31q55 0 92 27.5t37 68.5q0 29 -12.5 56.5t-52.5 86.5 q-75 111 -156 205l-217 252q-41 8 -66 8q-43 0 -75.5 -27.5t-32.5 -64.5z" />
<glyph unicode="&#xa8;" d="M252 1221q0 37 28 64.5t66 27.5q40 0 70 -29t30 -67q0 -40 -28.5 -69.5t-67.5 -29.5q-38 0 -68 31t-30 72zM580 1221q0 37 28 64.5t66 27.5q40 0 70 -29t30 -67q0 -40 -28.5 -69.5t-67.5 -29.5q-38 0 -68 31t-30 72z" />
<glyph unicode="&#xa9;" horiz-adv-x="1646" d="M113 684q0 192 95 355.5t258.5 258.5t356.5 95q115 0 223.5 -36t195.5 -101.5t152.5 -152.5t101.5 -195.5t36 -223.5q0 -195 -95.5 -358.5t-261 -258t-362.5 -94.5q-188 0 -349.5 96t-256 260t-94.5 355zM178 684q0 -130 51 -249t136.5 -206t203.5 -138.5t246 -51.5 q135 0 255.5 50.5t207 136.5t137.5 205.5t51 252.5q0 174 -86.5 322t-234.5 234.5t-322 86.5q-175 0 -323.5 -86.5t-235 -234.5t-86.5 -322zM455 670q0 172 106.5 285.5t269.5 113.5q73 0 170 -39q30 -12 46 -12q15 0 22 8t16 33q0 1 1 2.5t2 4.5t2 5l34 2v-237h-34 q-25 89 -87 137.5t-153 48.5q-115 0 -184.5 -94.5t-69.5 -251.5q0 -152 71 -239t195 -87q161 0 277 174v-73q-116 -152 -299 -152q-170 0 -277.5 104t-107.5 267z" />
<glyph unicode="&#xaa;" horiz-adv-x="653" d="M61 621v59h576v-59h-576zM70 924q0 149 350 227v90q0 100 -119 100q-43 0 -83 -18.5t-40 -38.5q0 -5 10.5 -27t10.5 -34q0 -23 -15.5 -39.5t-38.5 -16.5t-39 18t-16 44q0 59 68 103t159 44q100 0 147.5 -39.5t47.5 -122.5v-276q0 -52 6.5 -69t26.5 -17q24 0 55 53l23 -12 q-49 -84 -113 -84q-43 0 -62 22t-28 82q-69 -57 -119 -80.5t-102 -23.5q-56 0 -92.5 33t-36.5 82zM166 938q0 -33 22.5 -54.5t57.5 -21.5q75 0 174 92v160q-120 -26 -187 -72.5t-67 -103.5z" />
<glyph unicode="&#xab;" horiz-adv-x="1017" d="M68 451q0 10 18 26l387 373q17 14 29 14q8 0 13 -5t5 -13q0 -6 -10 -23l-254 -374l252 -379q8 -8 8 -21q0 -18 -16 -18q-7 0 -27 20l-391 373q-14 14 -14 27zM463 451q0 8 18 26l387 373q18 14 29 14q7 0 12.5 -5t5.5 -13q0 -6 -10 -23l-254 -374l252 -379q8 -11 8 -21 q0 -18 -16 -18q-7 0 -27 20l-391 373q-14 14 -14 27z" />
<glyph unicode="&#xac;" d="M72 459v88h880v-547h-200v459h-680z" />
<glyph unicode="&#xad;" horiz-adv-x="428" d="M0 420v55q0 23 33 23h362q33 0 33 -23v-55q0 -23 -33 -23h-362q-33 0 -33 23z" />
<glyph unicode="&#xae;" horiz-adv-x="1646" d="M113 684q0 192 95 355.5t258.5 258.5t356.5 95q115 0 223.5 -36t195.5 -101.5t152.5 -152.5t101.5 -195.5t36 -223.5q0 -195 -95.5 -358.5t-261 -258t-362.5 -94.5q-188 0 -349.5 96t-256 260t-94.5 355zM178 684q0 -130 51 -249t136.5 -206t203.5 -138.5t246 -51.5 q135 0 255.5 50.5t207 136.5t137.5 205.5t51 252.5q0 174 -86.5 322t-234.5 234.5t-322 86.5q-175 0 -323.5 -86.5t-235 -234.5t-86.5 -322zM485 1020v37h334q124 0 191 -31q112 -58 112 -174q0 -67 -33 -109t-108 -73l156 -273q17 -29 38 -40t56 -11v-37h-168l-203 357 h-147v-242q0 -46 13.5 -62t53.5 -16h35v-37h-323v37h30q41 0 54.5 15.5t13.5 62.5v518q0 47 -13.5 62.5t-54.5 15.5h-37zM713 700h116q86 0 126 36t40 116q0 75 -44.5 117.5t-123.5 42.5h-114v-312z" />
<glyph unicode="&#xaf;" d="M231 1180v65q0 14 7 19.5t26 5.5h494q19 0 26 -5.5t7 -19.5v-65q0 -14 -7 -19.5t-26 -5.5h-494q-19 0 -26 5.5t-7 19.5z" />
<glyph unicode="&#xb0;" horiz-adv-x="876" d="M242 1122q0 77 55 132t131 55q87 0 148 -56.5t61 -136.5q0 -81 -59 -136.5t-144 -55.5q-78 0 -135 58.5t-57 139.5zM287 1120q0 -63 45.5 -108t109.5 -45q60 0 105 44.5t45 104.5q0 61 -45.5 105.5t-108.5 44.5q-66 0 -108.5 -41.5t-42.5 -104.5z" />
<glyph unicode="&#xb1;" d="M45 109v92h934v-92h-934zM45 678v92h420v395h94v-395h420v-92h-420v-389h-94v389h-420z" />
<glyph unicode="&#xb2;" horiz-adv-x="620" d="M10 426l13 33q76 45 112.5 72.5t108.5 91.5q114 101 162.5 171.5t48.5 133.5q0 49 -33 84t-78 35q-73 0 -135 -56t-62 -121q0 -26 13.5 -40.5t36.5 -14.5q26 0 44.5 11t57.5 48q8 11 18 11q8 0 14.5 -6t6.5 -13q0 -14 -31 -41q-77 -77 -155 -77q-40 0 -66.5 27.5 t-26.5 70.5q0 88 93 163.5t200 75.5q91 0 153 -55t62 -137q0 -70 -48.5 -130t-158.5 -126q-70 -41 -172 -113h179q64 0 90.5 13t72.5 67q14 14 23 14q7 0 12.5 -5t5.5 -11q0 -10 -12 -24q-69 -102 -86 -152h-463z" />
<glyph unicode="&#xb3;" horiz-adv-x="620" d="M51 555q0 26 19.5 42.5t48.5 16.5q22 0 36.5 -12t14.5 -31q-12 -32 -12 -47q0 -29 24.5 -50t59.5 -21q69 0 132.5 72.5t63.5 150.5q0 36 -23 63t-55 27q-17 0 -33.5 -9t-52.5 -38q-15 -12 -22 -12t-13 5t-6 11q0 16 68 63q69 49 97 85.5t28 76.5q0 44 -24 71.5t-64 27.5 q-53 0 -97 -44t-44 -98q0 -20 10.5 -34.5t25.5 -14.5q28 0 56 41q8 14 20 14q17 0 17 -16q0 -31 -41.5 -63.5t-81.5 -32.5q-38 0 -63 26.5t-25 67.5q0 79 70.5 135.5t170.5 56.5q74 0 121 -33t47 -87q0 -43 -29.5 -78.5t-103.5 -81.5q152 -34 152 -162q0 -95 -85 -162 t-206 -67q-85 0 -143 40.5t-58 100.5z" />
<glyph unicode="&#xb4;" d="M342 1018q0 11 12 35l144 309q39 76 96 76q35 0 61.5 -24t26.5 -56q0 -39 -47 -86l-238 -254q-23 -23 -37 -23q-7 0 -12.5 7t-5.5 16z" />
<glyph unicode="&#xb5;" horiz-adv-x="915" d="M-6 -293q0 37 14 123q25 147 41.5 352.5t16.5 382.5v371h153v-586q0 -98 11 -147.5t40 -83.5q47 -53 127 -53q71 0 127.5 36.5t116.5 122.5v711h154v-694q0 -93 16 -125.5t63 -32.5q29 0 62 22v-32l-172 -94q-3 -3 -8 -3q-77 0 -101 132l-6 38q-113 -109 -173 -143.5 t-138 -34.5q-86 0 -140 43.5t-83 137.5q0 -107 4 -173q0 -3 3 -26.5t7 -44.5l14 -94q11 -71 11 -99q0 -44 -22.5 -73t-57.5 -29q-34 0 -57 27.5t-23 68.5z" />
<glyph unicode="&#xb6;" horiz-adv-x="1144" d="M96 1042q0 101 49 180t134 113q55 22 97.5 26.5t211.5 4.5h485v-49h-37q-33 0 -51 -1t-34.5 -7.5t-23 -14.5t-11.5 -28.5t-6 -42.5t-1 -62v-1165q1 -69 3.5 -85t11.5 -28q16 -22 96 -22h43v-49h-246v1503h-188v-1503h-267v49h46q88 0 110 22q12 14 15 29t4 86v721 q-35 -2 -91 -2q-87 0 -140 17.5t-103 60.5q-51 44 -79 109t-28 138zM231 1038q0 -123 59.5 -192.5t162.5 -69.5h84v541h-72q-103 0 -152 -41q-38 -32 -60 -95.5t-22 -142.5z" />
<glyph unicode="&#xb7;" horiz-adv-x="944" d="M377 453q0 35 27.5 62.5t64.5 27.5q40 0 69 -28t29 -66q0 -40 -28 -68.5t-66 -28.5t-67 30.5t-29 70.5z" />
<glyph unicode="&#xb8;" d="M340 -317q0 20 18 20q90 4 128 23t38 59q0 20 -11.5 35.5t-39.5 32.5q-10 5 -10 8q0 4 10 14q33 46 44 69.5t11 53.5l54 2l-9 -41q113 -49 113 -137q0 -75 -83 -119.5t-222 -44.5q-24 0 -32.5 5.5t-8.5 19.5z" />
<glyph unicode="&#xb9;" horiz-adv-x="620" d="M166 1053q0 16 22 16q17 0 27 -2h27q54 0 98 6q8 2 14 2q14 0 17 -8q2 -4 4 -123v-338v-44t1.5 -32.5t3 -25t6.5 -17t9.5 -12.5t14.5 -7.5t19 -6t26 -4.5q16 -3 16 -17q0 -16 -20 -16q-17 0 -62.5 3t-71.5 3q-22 0 -68.5 -3t-62.5 -3q-18 0 -18 16q0 11 6.5 14t42.5 9 q19 3 29 17.5t14 43.5t4 82v264v50t-1.5 37t-2.5 28t-6.5 18.5t-9 13.5t-13.5 7.5t-18 5.5t-25 4q-22 3 -22 19z" />
<glyph unicode="&#xba;" horiz-adv-x="655" d="M39 621v59h575v-59h-575zM63 1092q0 129 74.5 207.5t194.5 78.5q114 0 186 -80.5t72 -207.5t-72.5 -206t-189.5 -79q-118 0 -191.5 79.5t-73.5 207.5zM162 1094q0 -252 166 -252q164 0 164 252q0 247 -164 247q-166 0 -166 -247z" />
<glyph unicode="&#xbb;" horiz-adv-x="1017" d="M102 51q0 9 9 23l256 377l-252 376q-9 9 -9 23q0 6 5 11t12 5t27 -18l389 -375q16 -16 16 -24q0 -11 -18 -29l-390 -371q-16 -16 -26 -16q-8 0 -13.5 5.5t-5.5 12.5zM498 51q0 11 8 23l256 377l-252 376q-8 8 -8 23q0 16 16 16q7 0 27 -18l389 -375q16 -14 16 -24 q0 -8 -2.5 -12t-15.5 -17l-389 -371q-16 -16 -27 -16q-8 0 -13 5.5t-5 12.5z" />
<glyph unicode="&#xbc;" horiz-adv-x="1441" d="M166 1053q0 16 22 16q17 0 27 -2h27q54 0 98 6q8 2 14 2q14 0 17 -8q2 -4 4 -123v-338v-44t1.5 -32.5t3 -25t6.5 -17t9.5 -12.5t14.5 -7.5t19 -6t26 -4.5q16 -3 16 -17q0 -16 -20 -16q-17 0 -62.5 3t-71.5 3q-22 0 -68.5 -3t-62.5 -3q-18 0 -18 16q0 11 6.5 14t42.5 9 q19 3 29 17.5t14 43.5t4 82v264v50t-1.5 37t-2.5 28t-6.5 18.5t-9 13.5t-13.5 7.5t-18 5.5t-25 4q-22 3 -22 19zM442 0l484 1071h71l-483 -1071h-72zM850 260q0 14 147 185t197 212h57q-8 -78 -8 -180v-186q33 1 55.5 10t36.5 27t21 47q8 22 22 22q19 0 19 -26q0 -12 -2 -50 t-2 -51q0 -12 4 -90q0 -10 -5.5 -17t-13.5 -7q-14 0 -20 22q-11 38 -37.5 54.5t-77.5 15.5v-68q0 -87 12.5 -113.5t57.5 -35.5q16 -3 16 -17q0 -16 -20 -16q-11 0 -58 4t-61 4q-17 0 -70 -4t-69 -4q-23 0 -23 16q0 4 1 7t3.5 5t7.5 3.5t12 3t19 2.5q42 3 55 30.5t13 114.5 v68h-70q-123 0 -174 -4h-21q-24 0 -24 16zM934 291h205v252q-17 -21 -65 -77t-87 -103.5t-53 -71.5z" />
<glyph unicode="&#xbd;" horiz-adv-x="1439" d="M166 1053q0 16 22 16q17 0 27 -2h27q54 0 98 6q8 2 14 2q14 0 17 -8q2 -4 4 -123v-338v-44t1.5 -32.5t3 -25t6.5 -17t9.5 -12.5t14.5 -7.5t19 -6t26 -4.5q16 -3 16 -17q0 -16 -20 -16q-17 0 -62.5 3t-71.5 3q-22 0 -68.5 -3t-62.5 -3q-18 0 -18 16q0 11 6.5 14t42.5 9 q19 3 29 17.5t14 43.5t4 82v264v50t-1.5 37t-2.5 28t-6.5 18.5t-9 13.5t-13.5 7.5t-18 5.5t-25 4q-22 3 -22 19zM442 0l484 1071h71l-483 -1071h-72zM829 0l13 33q78 46 115.5 74t105.5 88q58 51 97.5 93t65 79t37 69t11.5 64q0 49 -32.5 83.5t-78.5 34.5q-72 0 -133 -56 t-61 -122q0 -26 12.5 -40.5t34.5 -14.5q26 0 46.5 12t55.5 49q8 11 19 11q5 0 9.5 -2.5t7.5 -7t3 -9.5q0 -14 -31 -41q-78 -78 -153 -78q-40 0 -66 28t-26 69q0 58 42.5 114.5t110.5 91.5t137 35q91 0 153 -55t62 -137q0 -47 -21 -88.5t-66 -82t-119 -83.5 q-74 -44 -154 -102q-10 -7 -16 -11h178q63 0 89.5 13t72.5 67q15 15 22 15q5 0 9.5 -2.5t7 -6.5t2.5 -8q0 -8 -13 -24q-62 -94 -86 -152h-463z" />
<glyph unicode="&#xbe;" horiz-adv-x="1441" d="M51 555q0 26 19.5 42.5t48.5 16.5q22 0 36.5 -12t14.5 -31q-12 -32 -12 -47q0 -29 24.5 -50t59.5 -21q69 0 132.5 72.5t63.5 150.5q0 36 -23 63t-55 27q-17 0 -33.5 -9t-52.5 -38q-15 -12 -22 -12t-13 5t-6 11q0 16 68 63q69 49 97 85.5t28 76.5q0 44 -24 71.5t-64 27.5 q-53 0 -97 -44t-44 -98q0 -20 10.5 -34.5t25.5 -14.5q28 0 56 41q8 14 20 14q17 0 17 -16q0 -31 -41.5 -63.5t-81.5 -32.5q-38 0 -63 26.5t-25 67.5q0 79 70.5 135.5t170.5 56.5q74 0 121 -33t47 -87q0 -43 -29.5 -78.5t-103.5 -81.5q152 -34 152 -162q0 -95 -85 -162 t-206 -67q-85 0 -143 40.5t-58 100.5zM442 0l484 1071h71l-483 -1071h-72zM850 260q0 14 147.5 185t196.5 212h57q-8 -78 -8 -180v-186q49 1 75.5 21t37.5 63q8 22 22 22q19 0 19 -26q0 -12 -2 -50t-2 -51q0 -12 4 -90q0 -10 -5.5 -17t-13.5 -7q-14 0 -20 22 q-11 38 -37.5 54.5t-77.5 15.5v-68q0 -61 5.5 -89t19.5 -41t45 -19q16 -3 16 -17q0 -16 -20 -16q-11 0 -58 4t-61 4q-17 0 -70 -4t-69 -4q-23 0 -23 16q0 11 7.5 14.5t35.5 6.5q42 3 55 30.5t13 114.5v68h-70q-123 0 -174 -4h-21q-24 0 -24 16zM934 291h205v252 q-17 -21 -65 -77t-87 -103.5t-53 -71.5z" />
<glyph unicode="&#xbf;" horiz-adv-x="759" d="M41 -41q0 141 87 234.5t218 93.5q80 0 158 -41v293q0 30 7 41.5t24 11.5q20 0 26 -9.5t8 -43.5l15 -367q0 -10 -4.5 -17.5t-10.5 -7.5q-1 0 -16 11q-29 30 -71.5 49.5t-78.5 19.5q-83 0 -143.5 -95.5t-60.5 -227.5q0 -131 64.5 -221.5t158.5 -90.5q77 0 80 76 q3 56 7 72.5t21 36.5q28 28 66 28q35 0 59.5 -27.5t24.5 -68.5q0 -69 -70.5 -117.5t-171.5 -48.5q-161 0 -279 123.5t-118 292.5zM426 811q0 40 28 68t66 28t67 -30t29 -70q0 -35 -27.5 -62.5t-64.5 -27.5q-40 0 -69 28t-29 66z" />
<glyph unicode="&#xc0;" horiz-adv-x="1312" d="M-37 10q0 15 29 21q68 15 116 68.5t95 166.5l348 840q48 111 106 270h68q33 -141 125 -409l211 -594q63 -174 112 -243.5t127 -92.5q33 -8 33 -23q0 -18 -30 -18q-25 0 -164 5t-185 5q-58 0 -168 -10h-12q-20 0 -20 20t34 23q63 6 98.5 41.5t35.5 93.5q0 53 -33 148 l-70 200l-309 2q-90 0 -141 -2l-52 -125q-69 -178 -69 -235q0 -49 35.5 -83.5t95.5 -43.5q41 -3 41 -23q0 -18 -27 -18h-14q-82 8 -168 8l-219 -8q-29 0 -29 16zM389 1778q0 3 2 6t5 5t7 1l312 -33q9 0 14 -0.5t9 -2.5t5.5 -4t5.5 -7.5t7 -9.5l157 -246q11 -18 11 -25 q0 -8 -7 -14t-16 -6q-10 0 -27 10l-471 305q-14 11 -14 21zM393 580q61 -15 164 -15q118 0 242 15l-187 548z" />
<glyph unicode="&#xc1;" horiz-adv-x="1312" d="M-37 10q0 15 29 21q68 15 116 68.5t95 166.5l348 840q48 111 106 270h68q33 -141 125 -409l211 -594q63 -174 112 -243.5t127 -92.5q33 -8 33 -23q0 -18 -30 -18q-25 0 -164 5t-185 5q-58 0 -168 -10h-12q-20 0 -20 20t34 23q63 6 98.5 41.5t35.5 93.5q0 53 -33 148 l-70 200l-309 2q-90 0 -141 -2l-52 -125q-69 -178 -69 -235q0 -49 35.5 -83.5t95.5 -43.5q41 -3 41 -23q0 -18 -27 -18h-14q-82 8 -168 8l-219 -8q-29 0 -29 16zM393 580q61 -15 164 -15q118 0 242 15l-187 548zM438 1462q0 9 8 25l160 246q1 2 3 5.5t3 4.5t2.5 4t2.5 3.5 t3 2t3 2t3.5 1l5 1t6 0.5h7.5l313 33q5 2 9 -2t4 -10q0 -8 -13 -21l-473 -305q-13 -10 -24 -10q-9 0 -16 6t-7 14z" />
<glyph unicode="&#xc2;" horiz-adv-x="1312" d="M-37 10q0 15 29 21q68 15 116 68.5t95 166.5l348 840q48 111 106 270h68q33 -141 125 -409l211 -594q63 -174 112 -243.5t127 -92.5q33 -8 33 -23q0 -18 -30 -18q-25 0 -164 5t-185 5q-58 0 -168 -10h-12q-20 0 -20 20t34 23q63 6 98.5 41.5t35.5 93.5q0 53 -33 148 l-70 200l-309 2q-90 0 -141 -2l-52 -125q-69 -178 -69 -235q0 -49 35.5 -83.5t95.5 -43.5q41 -3 41 -23q0 -18 -27 -18h-14q-82 8 -168 8l-219 -8q-29 0 -29 16zM268 1483q0 7 17 24l243 252q17 17 39 17h176q9 0 14.5 -1.5t10 -4.5t12.5 -11l250 -252q12 -12 12 -26 q0 -8 -6.5 -14.5t-13.5 -6.5q-11 0 -23 6l-294 150q-31 16 -50 16q-24 0 -53 -16l-295 -150q-6 -4 -18 -4q-9 0 -15 6t-6 15zM393 580q61 -15 164 -15q118 0 242 15l-187 548z" />
<glyph unicode="&#xc3;" horiz-adv-x="1312" d="M-37 10q0 15 29 21q68 15 116 68.5t95 166.5l348 840q48 111 106 270h68q33 -141 125 -409l211 -594q63 -174 112 -243.5t127 -92.5q33 -8 33 -23q0 -18 -30 -18q-25 0 -164 5t-185 5q-58 0 -168 -10h-12q-20 0 -20 20t34 23q63 6 98.5 41.5t35.5 93.5q0 53 -33 148 l-70 200l-309 2q-90 0 -141 -2l-52 -125q-69 -178 -69 -235q0 -49 35.5 -83.5t95.5 -43.5q41 -3 41 -23q0 -18 -27 -18h-14q-82 8 -168 8l-219 -8q-29 0 -29 16zM336 1518q0 18 24 77q72 154 197 154q34 0 79 -14.5t175 -67.5q86 -33 125 -33q41 0 70 37q4 8 24 53 q6 21 27 21q26 0 26 -27q0 -47 -43 -121q-34 -55 -75.5 -80.5t-98.5 -25.5q-40 0 -85 14l-167 60q-90 32 -127 32q-34 0 -49.5 -13t-42.5 -66q-12 -27 -33 -27q-26 0 -26 27zM393 580q61 -15 164 -15q118 0 242 15l-187 548z" />
<glyph unicode="&#xc4;" horiz-adv-x="1312" d="M-37 10q0 15 29 21q68 15 116 68.5t95 166.5l348 840q48 111 106 270h68q33 -141 125 -409l211 -594q63 -174 112 -243.5t127 -92.5q33 -8 33 -23q0 -18 -30 -18q-25 0 -164 5t-185 5q-58 0 -168 -10h-12q-20 0 -20 20t34 23q63 6 98.5 41.5t35.5 93.5q0 53 -33 148 l-70 200l-309 2q-90 0 -141 -2l-52 -125q-69 -178 -69 -235q0 -49 35.5 -83.5t95.5 -43.5q41 -3 41 -23q0 -18 -27 -18h-14q-82 8 -168 8l-219 -8q-29 0 -29 16zM311 1622q0 44 33.5 77.5t79.5 33.5q31 0 58.5 -16t44 -42.5t16.5 -56.5q0 -47 -34 -82t-81 -35 q-46 0 -81.5 37t-35.5 84zM393 580q61 -15 164 -15q118 0 242 15l-187 548zM813 1622q0 44 33.5 77.5t79.5 33.5q47 0 82.5 -34.5t35.5 -80.5q0 -48 -33.5 -82.5t-80.5 -34.5q-46 0 -81.5 37t-35.5 84z" />
<glyph unicode="&#xc5;" horiz-adv-x="1312" d="M-37 10q0 15 29 21q68 15 116 68.5t95 166.5l348 840q48 111 106 270h68q33 -141 125 -409l211 -594q63 -174 112 -243.5t127 -92.5q33 -8 33 -23q0 -18 -30 -18q-25 0 -164 5t-185 5q-58 0 -168 -10h-12q-20 0 -20 20t34 23q63 6 98.5 41.5t35.5 93.5q0 53 -33 148 l-70 200l-309 2q-90 0 -141 -2l-52 -125q-69 -178 -69 -235q0 -49 35.5 -83.5t95.5 -43.5q41 -3 41 -23q0 -18 -27 -18h-14q-82 8 -168 8l-219 -8q-29 0 -29 16zM393 580q61 -15 164 -15q118 0 242 15l-187 548zM530 1624q0 58 43.5 100.5t102.5 42.5q63 0 108 -44t45 -105 q0 -29 -12 -57t-31.5 -48t-47 -32.5t-56.5 -12.5q-60 0 -106 47t-46 109zM592 1622q0 -37 26.5 -64.5t63.5 -27.5q17 0 33 7t27.5 19t18.5 28.5t7 33.5q0 35 -26.5 61.5t-63.5 26.5q-35 0 -60.5 -25t-25.5 -59z" />
<glyph unicode="&#xc6;" horiz-adv-x="2031" d="M-41 10q0 13 23 19q52 12 86 37t76.5 80.5t129.5 189.5l496 794q49 79 49 123q0 35 -37.5 52.5t-124.5 23.5q-42 3 -55.5 8t-13.5 17q0 16 28 16l56 -2q96 -8 299 -8h102l447 6l317 2q11 -159 45 -252q6 -18 6 -31q0 -20 -18 -20q-17 0 -33 37q-51 105 -166.5 162 t-277.5 57q-153 0 -181 -21q-16 -13 -16 -55v-502h135q94 0 134 11.5t71 48.5q28 31 40.5 58.5t25.5 90.5q6 27 20 27q16 0 16 -27q0 -26 -4 -121.5t-4 -121.5q0 -78 6 -217v-11q0 -26 -18 -26q-16 0 -21 34q-5 43 -22.5 86.5t-42.5 69.5q-28 29 -72.5 40t-132.5 11h-133 v-368q0 -98 2 -120.5t12 -49.5q22 -61 80 -87t174 -26q128 0 207.5 22t145.5 76q98 81 149 172q18 27 31 27q14 0 14 -18q0 -9 -4 -25q-55 -186 -68 -299q-176 -4 -200 -4q-65 0 -304 6t-311 6q-117 0 -272 -14h-16q-25 0 -25 20q0 19 27 19q24 1 41.5 3.5t34.5 9t28 14.5 t21.5 23.5t16.5 33t11.5 46t8.5 59t5 76.5t2.5 94t0.5 114v190q-78 2 -172 2q-17 0 -49.5 -0.5t-95 -1.5t-124.5 -2l-235 -383q-68 -113 -68 -178q0 -45 32.5 -69.5t106.5 -34.5q27 -3 27 -17q0 -18 -29 -18q-26 0 -100 4t-115 4q-104 0 -141 -4l-61 -2q-23 0 -23 14z M602 752q99 -9 186 -9q83 0 218 9v350q0 72 -16.5 123t-39.5 51q-9 0 -30 -23.5t-41 -56.5z" />
<glyph unicode="&#xc7;" horiz-adv-x="1374" d="M88 682q0 156 51 288.5t141.5 226t219.5 146t280 52.5q194 0 342 -92q28 -17 39 -17q9 0 14 1.5t12 9t13 17.5t19 34q12 24 28 24q19 0 22.5 -21.5t6.5 -148.5q1 -32 4 -65t5 -48t8 -56.5t7 -51.5q3 -12 3 -23q0 -28 -25 -28q-22 0 -35 39q-60 172 -186 275.5t-277 103.5 q-206 0 -333.5 -172.5t-127.5 -450.5q0 -186 69.5 -338t191.5 -239t270 -87q136 0 240.5 71.5t195.5 225.5q14 25 29 25q10 0 18 -8t8 -17q0 -12 -24 -54t-57 -85q-91 -121 -203.5 -180.5t-263.5 -65.5l-5 -49q57 -15 97.5 -65t40.5 -107q0 -94 -90.5 -148.5t-247.5 -54.5 q-46 0 -66 7t-20 24q0 15 8 25t20 10q35 -6 56 -6q49 0 88 14t61.5 40t22.5 58q0 21 -6 34.5t-21.5 26t-46.5 28.5q-14 7 -14 16q0 8 35 49q24 30 24 72q0 12 -2 26q-136 9 -255 66.5t-203 151t-132.5 221t-48.5 270.5z" />
<glyph unicode="&#xc8;" horiz-adv-x="1282" d="M61 14q0 19 27 19q41 2 65.5 8t45.5 26.5t31 48t17.5 85.5t9 125.5t1.5 179.5v352q0 112 -1.5 180t-9 125.5t-17.5 85.5t-31 49t-45.5 27t-65.5 8q-27 0 -27 19q0 20 25 20h16q136 -12 199 -12q76 0 156 2l633 6q21 -178 45 -252q6 -18 6 -29q0 -9 -7 -15.5t-16 -6.5 t-15 7t-13 30q-13 38 -59.5 83.5t-102.5 76.5q-109 59 -285 59q-150 0 -178 -21q-16 -13 -16 -55v-502h135q94 0 133.5 11.5t70.5 48.5q28 31 40.5 58.5t25.5 90.5q6 27 20 27q17 0 17 -27q0 -36 -5 -139t-5 -147q0 -52 1.5 -74t8.5 -100v-11q0 -26 -19 -26q-7 0 -11 3 t-6 10t-3 21q-4 37 -25 85.5t-41 70.5q-29 29 -74 40t-132 11h-136v-368q0 -85 2.5 -112.5t12.5 -57.5q25 -62 83 -87.5t173 -25.5q128 0 207 22t145 76q44 37 85 83t65 89q18 27 30 27q6 0 10.5 -5.5t4.5 -12.5q0 -5 -5 -25q-54 -181 -67 -299q-176 -4 -201 -4 q-65 0 -303.5 6t-310.5 6q-118 0 -273 -14h-16q-25 0 -25 20zM375 1778q0 3 2 6t5 5t7 1l311 -33q5 0 9 -0.5t7 -0.5t5.5 -1.5t4 -2t3.5 -3t2.5 -4t3.5 -6t4 -6.5l160 -246q8 -16 8 -25q0 -8 -6.5 -14t-15.5 -6q-12 0 -25 10l-471 305q-14 11 -14 21z" />
<glyph unicode="&#xc9;" horiz-adv-x="1282" d="M61 14q0 19 27 19q41 2 65.5 8t45.5 26.5t31 48t17.5 85.5t9 125.5t1.5 179.5v352q0 112 -1.5 180t-9 125.5t-17.5 85.5t-31 49t-45.5 27t-65.5 8q-27 0 -27 19q0 20 25 20h16q136 -12 199 -12q76 0 156 2l633 6q21 -178 45 -252q6 -18 6 -29q0 -9 -7 -15.5t-16 -6.5 t-15 7t-13 30q-13 38 -59.5 83.5t-102.5 76.5q-109 59 -285 59q-150 0 -178 -21q-16 -13 -16 -55v-502h135q94 0 133.5 11.5t70.5 48.5q28 31 40.5 58.5t25.5 90.5q6 27 20 27q17 0 17 -27q0 -36 -5 -139t-5 -147q0 -52 1.5 -74t8.5 -100v-11q0 -26 -19 -26q-7 0 -11 3 t-6 10t-3 21q-4 37 -25 85.5t-41 70.5q-29 29 -74 40t-132 11h-136v-368q0 -85 2.5 -112.5t12.5 -57.5q25 -62 83 -87.5t173 -25.5q128 0 207 22t145 76q44 37 85 83t65 89q18 27 30 27q6 0 10.5 -5.5t4.5 -12.5q0 -5 -5 -25q-54 -181 -67 -299q-176 -4 -201 -4 q-65 0 -303.5 6t-310.5 6q-118 0 -273 -14h-16q-25 0 -25 20zM375 1462q0 9 8 25l160 246q1 2 3.5 6.5t3.5 6t3 4t3.5 3t4 2t5.5 1.5t7 0.5t9 0.5l311 33q6 1 10 -2.5t4 -9.5q0 -10 -14 -21l-471 -305q-13 -10 -27 -10q-7 0 -13.5 6t-6.5 14z" />
<glyph unicode="&#xca;" horiz-adv-x="1282" d="M61 14q0 19 27 19q41 2 65.5 8t45.5 26.5t31 48t17.5 85.5t9 125.5t1.5 179.5v352q0 112 -1.5 180t-9 125.5t-17.5 85.5t-31 49t-45.5 27t-65.5 8q-27 0 -27 19q0 20 25 20h16q136 -12 199 -12q76 0 156 2l633 6q21 -178 45 -252q6 -18 6 -29q0 -9 -7 -15.5t-16 -6.5 t-15 7t-13 30q-13 38 -59.5 83.5t-102.5 76.5q-109 59 -285 59q-150 0 -178 -21q-16 -13 -16 -55v-502h135q94 0 133.5 11.5t70.5 48.5q28 31 40.5 58.5t25.5 90.5q6 27 20 27q17 0 17 -27q0 -36 -5 -139t-5 -147q0 -52 1.5 -74t8.5 -100v-11q0 -26 -19 -26q-7 0 -11 3 t-6 10t-3 21q-4 37 -25 85.5t-41 70.5q-29 29 -74 40t-132 11h-136v-368q0 -85 2.5 -112.5t12.5 -57.5q25 -62 83 -87.5t173 -25.5q128 0 207 22t145 76q44 37 85 83t65 89q18 27 30 27q6 0 10.5 -5.5t4.5 -12.5q0 -5 -5 -25q-54 -181 -67 -299q-176 -4 -201 -4 q-65 0 -303.5 6t-310.5 6q-118 0 -273 -14h-16q-25 0 -25 20zM209 1483q0 8 16 24l242 252q17 17 41 17h176q5 0 8.5 -0.5t7 -1.5t7 -3t7 -5t7.5 -7l248 -252q14 -11 14 -26q0 -8 -6.5 -14.5t-13.5 -6.5q-11 0 -23 6l-297 150q-31 16 -47 16q-23 0 -55 -16l-293 -150 q-6 -4 -21 -4q-8 0 -13 6t-5 15z" />
<glyph unicode="&#xcb;" horiz-adv-x="1282" d="M61 14q0 19 27 19q41 2 65.5 8t45.5 26.5t31 48t17.5 85.5t9 125.5t1.5 179.5v352q0 112 -1.5 180t-9 125.5t-17.5 85.5t-31 49t-45.5 27t-65.5 8q-27 0 -27 19q0 20 25 20h16q136 -12 199 -12q76 0 156 2l633 6q21 -178 45 -252q6 -18 6 -29q0 -9 -7 -15.5t-16 -6.5 t-15 7t-13 30q-13 38 -59.5 83.5t-102.5 76.5q-109 59 -285 59q-150 0 -178 -21q-16 -13 -16 -55v-502h135q94 0 133.5 11.5t70.5 48.5q28 31 40.5 58.5t25.5 90.5q6 27 20 27q17 0 17 -27q0 -36 -5 -139t-5 -147q0 -52 1.5 -74t8.5 -100v-11q0 -26 -19 -26q-7 0 -11 3 t-6 10t-3 21q-4 37 -25 85.5t-41 70.5q-29 29 -74 40t-132 11h-136v-368q0 -85 2.5 -112.5t12.5 -57.5q25 -62 83 -87.5t173 -25.5q128 0 207 22t145 76q44 37 85 83t65 89q18 27 30 27q6 0 10.5 -5.5t4.5 -12.5q0 -5 -5 -25q-54 -181 -67 -299q-176 -4 -201 -4 q-65 0 -303.5 6t-310.5 6q-118 0 -273 -14h-16q-25 0 -25 20zM231 1622q0 44 33.5 77.5t79.5 33.5q31 0 58.5 -16t44 -42.5t16.5 -56.5q0 -47 -34 -82t-81 -35q-46 0 -81.5 37t-35.5 84zM735 1622q0 44 33.5 77.5t79.5 33.5q31 0 58.5 -16t44 -42.5t16.5 -56.5 q0 -47 -34 -82t-81 -35q-46 0 -81.5 37t-35.5 84z" />
<glyph unicode="&#xcc;" horiz-adv-x="733" d="M76 14q0 19 26 19q41 2 65.5 8t45.5 27t31 48.5t17.5 85.5t9 125t1.5 179v354q0 112 -1.5 179t-9 125t-17.5 85.5t-31 48.5t-45.5 27t-65.5 8q-26 0 -26 19q0 20 24 20h17q153 -14 252 -14q103 0 249 14h17q24 0 24 -20q0 -19 -26 -19q-41 -2 -65.5 -8t-45.5 -27 t-31 -48.5t-17.5 -85.5t-9 -125t-1.5 -179v-354q0 -112 1.5 -179t9 -125t17.5 -85.5t31 -48.5t45.5 -27t65.5 -8q26 0 26 -19q0 -20 -24 -20h-17q-153 14 -251 14q-104 0 -250 -14h-17q-24 0 -24 20zM100 1778q0 5 4.5 9t10.5 3l311 -33q8 0 12.5 -0.5t7.5 -1t5.5 -3t4 -4.5 t5 -6.5t6.5 -8.5l158 -246q10 -17 10 -25t-7 -14t-16 -6q-13 0 -26 10l-471 305q-15 11 -15 21z" />
<glyph unicode="&#xcd;" horiz-adv-x="733" d="M76 14q0 19 26 19q41 2 65.5 8t45.5 27t31 48.5t17.5 85.5t9 125t1.5 179v354q0 112 -1.5 179t-9 125t-17.5 85.5t-31 48.5t-45.5 27t-65.5 8q-26 0 -26 19q0 20 24 20h17q153 -14 252 -14q103 0 249 14h17q24 0 24 -20q0 -19 -26 -19q-41 -2 -65.5 -8t-45.5 -27 t-31 -48.5t-17.5 -85.5t-9 -125t-1.5 -179v-354q0 -112 1.5 -179t9 -125t17.5 -85.5t31 -48.5t45.5 -27t65.5 -8q26 0 26 -19q0 -20 -24 -20h-17q-153 14 -251 14q-104 0 -250 -14h-17q-24 0 -24 20zM100 1462q0 7 9 25l159 246q1 2 3 5q7 12 12.5 15.5t23.5 3.5l314 33 q5 2 9.5 -2t4.5 -10q0 -10 -14 -21l-471 -305q-17 -10 -27 -10q-9 0 -16 6t-7 14z" />
<glyph unicode="&#xce;" horiz-adv-x="733" d="M-20 1483q0 8 16 24l242 252q17 17 41 17h176q20 0 37 -17l247 -252q15 -12 15 -26q0 -7 -7 -14t-14 -7q-10 0 -22 6l-297 150q-31 16 -47 16q-24 0 -56 -16l-293 -150q-6 -4 -20 -4q-8 0 -13 6t-5 15zM76 14q0 19 26 19q41 2 65.5 8t45.5 27t31 48.5t17.5 85.5t9 125 t1.5 179v354q0 112 -1.5 179t-9 125t-17.5 85.5t-31 48.5t-45.5 27t-65.5 8q-26 0 -26 19q0 20 24 20h17q153 -14 252 -14q103 0 249 14h17q24 0 24 -20q0 -19 -26 -19q-41 -2 -65.5 -8t-45.5 -27t-31 -48.5t-17.5 -85.5t-9 -125t-1.5 -179v-354q0 -112 1.5 -179t9 -125 t17.5 -85.5t31 -48.5t45.5 -27t65.5 -8q26 0 26 -19q0 -20 -24 -20h-17q-153 14 -251 14q-104 0 -250 -14h-17q-24 0 -24 20z" />
<glyph unicode="&#xcf;" horiz-adv-x="733" d="M35 1624q0 44 30.5 77.5t71.5 33.5q44 0 75.5 -32.5t31.5 -76.5q0 -49 -31.5 -87t-71.5 -38q-42 0 -74 37t-32 86zM74 14q0 19 26 19q41 2 65.5 8t45.5 27t31 48.5t17.5 85.5t9 125t1.5 179v354q0 112 -1.5 179t-9 125t-17.5 85.5t-31 48.5t-45.5 27t-65.5 8 q-26 0 -26 19q0 20 24 20h17q153 -14 252 -14q103 0 249 14h17q24 0 24 -20q0 -19 -26 -19q-41 -2 -65.5 -8t-45.5 -27t-31 -48.5t-17.5 -85.5t-9 -125t-1.5 -179v-354q0 -112 1.5 -179t9 -125t17.5 -85.5t31 -48.5t45.5 -27t65.5 -8q26 0 26 -19q0 -20 -24 -20h-17 q-153 14 -251 14q-104 0 -250 -14h-17q-24 0 -24 20zM487 1624q0 44 31 77.5t72 33.5q44 0 75 -32t31 -77q0 -49 -31 -87t-71 -38q-42 0 -74.5 37t-32.5 86z" />
<glyph unicode="&#xd0;" horiz-adv-x="1548" d="M61 14q0 19 27 19q41 2 65.5 8t45.5 27t31 48.5t17.5 85.5t9 125t1.5 179v168h-164q-19 0 -26 5t-7 19v25q0 14 7 19.5t26 5.5h164v110q0 112 -1.5 180t-9 125.5t-17.5 85.5t-31 49t-45.5 27t-65.5 8q-27 0 -27 19q0 20 25 20q146 -12 201 -12q46 0 245 12q27 2 111 2 q207 0 350.5 -42t249.5 -134q105 -91 161 -222t56 -286q0 -207 -90.5 -365.5t-255.5 -245.5t-381 -87q-50 0 -211.5 7t-220.5 7q-61 0 -199 -12h-16q-25 0 -25 20zM446 305q0 -83 6.5 -119t28.5 -65q59 -78 213 -78q235 0 384 175.5t149 453.5q0 229 -102.5 395t-282.5 227 q-104 35 -256 35q-86 0 -113 -21t-27 -87v-473h347q17 0 23.5 -5.5t6.5 -19.5v-25q0 -14 -6.5 -19t-23.5 -5h-347v-369z" />
<glyph unicode="&#xd1;" horiz-adv-x="1495" d="M2 1350q0 8 7.5 13t17.5 5h24q33 -4 99 -4q9 0 70 2t71 2q26 0 51 -41q42 -62 326 -393l518 -592v481q0 114 -2 184t-9 129.5t-17.5 89.5t-32 53t-47 32t-66.5 14q-35 3 -35 23q0 18 29 18q14 0 93.5 -3t114.5 -3q34 0 114.5 3t94.5 3q29 0 29 -18q0 -20 -35 -23 q-31 -4 -52 -9.5t-40 -18t-31 -28t-22 -44.5t-15 -62t-8.5 -86t-4.5 -111t-1 -143v-786q0 -25 -3.5 -35t-12.5 -10q-12 0 -31 31q-43 64 -72.5 103t-105.5 128l-709 831v-542q0 -85 1 -143t4.5 -111t8.5 -86t15 -62t22 -44.5t31 -28t40 -18t52 -9.5q20 -1 27.5 -6.5 t7.5 -16.5q0 -18 -29 -18q-14 0 -93.5 3t-114.5 3q-34 0 -114.5 -3t-94.5 -3q-29 0 -29 18q0 20 35 23q31 4 52 9.5t40 18t31 28t22 44.5t15 62t8.5 86t4.5 111t1 143v266q0 144 -11 232.5t-36 142.5q-26 58 -59.5 85.5t-118.5 59.5q-25 6 -25 21zM373 1518q0 18 24 77 q72 154 197 154q34 0 79 -14.5t175 -67.5q86 -33 125 -33q40 0 69 37q13 26 25 53q6 21 27 21q26 0 26 -27q0 -47 -43 -121q-34 -55 -75.5 -80.5t-98.5 -25.5q-37 0 -68.5 9.5t-183.5 64.5q-90 32 -127 32q-18 0 -28 -2t-21 -11t-19.5 -23t-23.5 -43q-12 -27 -33 -27 q-26 0 -26 27z" />
<glyph unicode="&#xd2;" horiz-adv-x="1579" d="M88 666q0 192 98.5 360t265 267.5t357.5 99.5q138 0 264 -53.5t217 -144.5t145 -216.5t54 -263.5q0 -151 -58 -288.5t-155.5 -237t-232.5 -158t-283 -58.5q-190 0 -344 90t-241 248.5t-87 354.5zM326 680q0 -185 59.5 -334.5t165 -234t235.5 -84.5q128 0 236 87.5 t170.5 238.5t62.5 329q0 126 -31 247t-87 210q-58 91 -153 147.5t-187 56.5q-93 0 -180 -54t-150.5 -144t-102 -212.5t-38.5 -252.5zM522 1778q0 5 4.5 9t10.5 3l311 -33q9 0 14 -0.5t9 -3t5 -3.5t5.5 -7l7.5 -10l158 -246q8 -16 8 -25q0 -8 -7 -14t-16 -6q-11 0 -24 10 l-471 305q-15 11 -15 21z" />
<glyph unicode="&#xd3;" horiz-adv-x="1579" d="M88 666q0 192 98.5 360t265 267.5t357.5 99.5q138 0 264 -53.5t217 -144.5t145 -216.5t54 -263.5q0 -151 -58 -288.5t-155.5 -237t-232.5 -158t-283 -58.5q-190 0 -344 90t-241 248.5t-87 354.5zM326 680q0 -185 59.5 -334.5t165 -234t235.5 -84.5q128 0 236 87.5 t170.5 238.5t62.5 329q0 126 -31 247t-87 210q-58 91 -153 147.5t-187 56.5q-93 0 -180 -54t-150.5 -144t-102 -212.5t-38.5 -252.5zM522 1462q0 9 8 25l160 246q1 2 3 5.5t3 4.5t2.5 4t2.5 3.5t3 2t3 2t3.5 1l5 1t6 0.5h7.5l313 33q5 2 9 -2t4 -10q0 -8 -13 -21l-473 -305 q-13 -10 -24 -10q-9 0 -16 6t-7 14z" />
<glyph unicode="&#xd4;" horiz-adv-x="1579" d="M88 666q0 192 98.5 360t265 267.5t357.5 99.5q138 0 264 -53.5t217 -144.5t145 -216.5t54 -263.5q0 -151 -58 -288.5t-155.5 -237t-232.5 -158t-283 -58.5q-190 0 -344 90t-241 248.5t-87 354.5zM326 680q0 -185 59.5 -334.5t165 -234t235.5 -84.5q128 0 236 87.5 t170.5 238.5t62.5 329q0 126 -31 247t-87 210q-58 91 -153 147.5t-187 56.5q-93 0 -180 -54t-150.5 -144t-102 -212.5t-38.5 -252.5zM401 1483q0 7 17 24l241 252q17 17 41 17h177q19 0 36 -17l248 -252q15 -12 15 -26q0 -7 -7 -14t-14 -7q-10 0 -22 6l-297 150 q-31 16 -48 16q-23 0 -55 -16l-293 -150q-6 -4 -20 -4q-8 0 -13.5 6t-5.5 15z" />
<glyph unicode="&#xd5;" horiz-adv-x="1579" d="M88 666q0 192 98.5 360t265 267.5t357.5 99.5q138 0 264 -53.5t217 -144.5t145 -216.5t54 -263.5q0 -151 -58 -288.5t-155.5 -237t-232.5 -158t-283 -58.5q-190 0 -344 90t-241 248.5t-87 354.5zM326 680q0 -185 59.5 -334.5t165 -234t235.5 -84.5q128 0 236 87.5 t170.5 238.5t62.5 329q0 126 -31 247t-87 210q-58 91 -153 147.5t-187 56.5q-93 0 -180 -54t-150.5 -144t-102 -212.5t-38.5 -252.5zM414 1518q0 18 24 77q72 154 197 154q35 0 81 -14.5t175 -67.5q86 -33 125 -33q41 0 67 37q8 11 27 53q6 21 27 21q26 0 26 -27 q0 -47 -43 -121q-64 -106 -174 -106q-37 0 -68.5 9.5t-185.5 64.5q-90 32 -127 32q-34 0 -49 -13t-41 -66q-15 -27 -35 -27q-26 0 -26 27z" />
<glyph unicode="&#xd6;" horiz-adv-x="1579" d="M88 666q0 192 98.5 360t265 267.5t357.5 99.5q138 0 264 -53.5t217 -144.5t145 -216.5t54 -263.5q0 -151 -58 -288.5t-155.5 -237t-232.5 -158t-283 -58.5q-190 0 -344 90t-241 248.5t-87 354.5zM326 680q0 -185 59.5 -334.5t165 -234t235.5 -84.5q128 0 236 87.5 t170.5 238.5t62.5 329q0 126 -31 247t-87 210q-58 91 -153 147.5t-187 56.5q-93 0 -180 -54t-150.5 -144t-102 -212.5t-38.5 -252.5zM422 1622q0 44 33.5 77.5t79.5 33.5q47 0 82.5 -34.5t35.5 -80.5q0 -48 -33.5 -82.5t-80.5 -34.5q-46 0 -81.5 37t-35.5 84zM924 1622 q0 44 33 77.5t79 33.5q47 0 83 -34.5t36 -80.5q0 -47 -34 -82t-81 -35q-46 0 -81 37t-35 84z" />
<glyph unicode="&#xd7;" d="M123 379l326 323l-324 322l65 63l322 -321l324 324l65 -66l-323 -324l323 -321l-65 -66l-322 324l-326 -326z" />
<glyph unicode="&#xd8;" horiz-adv-x="1579" d="M88 655q0 148 58 284t154.5 235.5t229.5 159t277 59.5q168 0 309 -72l119 207l78 -45l-119 -209q141 -100 218 -246t77 -313q0 -203 -97.5 -374t-265.5 -270.5t-368 -99.5q-142 0 -269 56l-135 -236l-75 45l131 232q-151 93 -236.5 247.5t-85.5 339.5zM326 672 q0 -143 39.5 -271.5t111.5 -214.5l586 1041q-57 54 -128 85t-138 31q-125 0 -233.5 -91.5t-173 -246.5t-64.5 -333zM543 121q113 -96 243 -96q128 0 236 87.5t170.5 239.5t62.5 332q0 129 -35 256.5t-94 212.5z" />
<glyph unicode="&#xd9;" horiz-adv-x="1511" d="M41 1352q0 20 25 20h16q153 -14 250 -14q104 0 250 14h16q25 0 25 -20q0 -19 -27 -19q-31 -2 -51.5 -5.5t-39 -14t-30 -24t-21.5 -41t-14.5 -58.5t-8 -83t-4.5 -108t-1 -139v-235q0 -193 16.5 -292t59.5 -157q46 -63 119.5 -97t166.5 -34q134 0 236.5 71.5t151.5 198.5 q47 122 47 387v121q0 85 -1 143t-4.5 111t-8.5 86t-15 62t-22 44.5t-31 28t-40 18t-52 9.5q-35 3 -35 23q0 18 28 18t94.5 -3t114.5 -3q50 0 116.5 3t94.5 3q29 0 29 -18q0 -20 -35 -23q-31 -4 -52 -9.5t-40 -18t-31 -28t-22 -44.5t-15 -62t-8.5 -86t-4.5 -111t-1 -143v-123 q0 -190 -25.5 -311t-82.5 -203q-72 -103 -194 -159t-271 -56t-257 61t-165 177q-18 37 -28.5 91t-15.5 133t-5 192v235q0 83 -1 139t-4.5 108t-8 83t-14.5 58.5t-21.5 41t-30 24t-39 14t-51.5 5.5q-27 0 -27 19zM489 1778q0 5 4.5 9t10.5 3l311 -33q9 0 14 -0.5t9 -2.5 t5.5 -3.5t5.5 -7.5t7 -10l158 -246q10 -17 10 -25t-7 -14t-16 -6q-13 0 -26 10l-471 305q-15 11 -15 21z" />
<glyph unicode="&#xda;" horiz-adv-x="1511" d="M41 1352q0 20 25 20h16q153 -14 250 -14q104 0 250 14h16q25 0 25 -20q0 -19 -27 -19q-31 -2 -51.5 -5.5t-39 -14t-30 -24t-21.5 -41t-14.5 -58.5t-8 -83t-4.5 -108t-1 -139v-235q0 -193 16.5 -292t59.5 -157q46 -63 119.5 -97t166.5 -34q134 0 236.5 71.5t151.5 198.5 q47 122 47 387v121q0 85 -1 143t-4.5 111t-8.5 86t-15 62t-22 44.5t-31 28t-40 18t-52 9.5q-35 3 -35 23q0 18 28 18t94.5 -3t114.5 -3q50 0 116.5 3t94.5 3q29 0 29 -18q0 -20 -35 -23q-31 -4 -52 -9.5t-40 -18t-31 -28t-22 -44.5t-15 -62t-8.5 -86t-4.5 -111t-1 -143v-123 q0 -190 -25.5 -311t-82.5 -203q-72 -103 -194 -159t-271 -56t-257 61t-165 177q-18 37 -28.5 91t-15.5 133t-5 192v235q0 83 -1 139t-4.5 108t-8 83t-14.5 58.5t-21.5 41t-30 24t-39 14t-51.5 5.5q-27 0 -27 19zM489 1462q0 7 9 25l159 246q1 2 3 5.5t3 4.5t2.5 4t2.5 3.5 t3 2t3 2t3.5 1l5 1t6 0.5h7.5l314 33q5 2 9.5 -2t4.5 -10q0 -10 -14 -21l-471 -305q-17 -10 -27 -10q-9 0 -16 6t-7 14z" />
<glyph unicode="&#xdb;" horiz-adv-x="1511" d="M41 1352q0 20 25 20h16q153 -14 250 -14q104 0 250 14h16q25 0 25 -20q0 -19 -27 -19q-31 -2 -51.5 -5.5t-39 -14t-30 -24t-21.5 -41t-14.5 -58.5t-8 -83t-4.5 -108t-1 -139v-235q0 -193 16.5 -292t59.5 -157q46 -63 119.5 -97t166.5 -34q134 0 236.5 71.5t151.5 198.5 q47 122 47 387v121q0 85 -1 143t-4.5 111t-8.5 86t-15 62t-22 44.5t-31 28t-40 18t-52 9.5q-35 3 -35 23q0 18 28 18t94.5 -3t114.5 -3q50 0 116.5 3t94.5 3q29 0 29 -18q0 -20 -35 -23q-31 -4 -52 -9.5t-40 -18t-31 -28t-22 -44.5t-15 -62t-8.5 -86t-4.5 -111t-1 -143v-123 q0 -190 -25.5 -311t-82.5 -203q-72 -103 -194 -159t-271 -56t-257 61t-165 177q-18 37 -28.5 91t-15.5 133t-5 192v235q0 83 -1 139t-4.5 108t-8 83t-14.5 58.5t-21.5 41t-30 24t-39 14t-51.5 5.5q-27 0 -27 19zM369 1483q0 8 16 24l242 252q17 17 41 17h176q8 0 13.5 -1.5 t11 -5t12.5 -10.5l249 -252q13 -13 13 -26q0 -7 -6.5 -14t-14.5 -7q-10 0 -22 6l-295 150q-31 16 -49 16q-24 0 -56 -16l-292 -150q-6 -4 -19 -4q-4 0 -8 1.5t-6.5 4.5t-4 7t-1.5 8z" />
<glyph unicode="&#xdc;" horiz-adv-x="1511" d="M41 1352q0 20 25 20h16q153 -14 250 -14q104 0 250 14h16q25 0 25 -20q0 -19 -27 -19q-31 -2 -51.5 -5.5t-39 -14t-30 -24t-21.5 -41t-14.5 -58.5t-8 -83t-4.5 -108t-1 -139v-235q0 -193 16.5 -292t59.5 -157q46 -63 119.5 -97t166.5 -34q134 0 236.5 71.5t151.5 198.5 q47 122 47 387v121q0 85 -1 143t-4.5 111t-8.5 86t-15 62t-22 44.5t-31 28t-40 18t-52 9.5q-35 3 -35 23q0 18 28 18t94.5 -3t114.5 -3q50 0 116.5 3t94.5 3q29 0 29 -18q0 -20 -35 -23q-31 -4 -52 -9.5t-40 -18t-31 -28t-22 -44.5t-15 -62t-8.5 -86t-4.5 -111t-1 -143v-123 q0 -190 -25.5 -311t-82.5 -203q-72 -103 -194 -159t-271 -56t-257 61t-165 177q-18 37 -28.5 91t-15.5 133t-5 192v235q0 83 -1 139t-4.5 108t-8 83t-14.5 58.5t-21.5 41t-30 24t-39 14t-51.5 5.5q-27 0 -27 19zM389 1622q0 44 33.5 77.5t79.5 33.5q31 0 58.5 -16t44 -42.5 t16.5 -56.5q0 -47 -34 -82t-81 -35q-46 0 -81.5 37t-35.5 84zM891 1622q0 44 33.5 77.5t79.5 33.5q47 0 82.5 -34.5t35.5 -80.5q0 -48 -33.5 -82.5t-80.5 -34.5q-46 0 -81.5 37t-35.5 84z" />
<glyph unicode="&#xdd;" horiz-adv-x="1280" d="M-63 1354q0 16 24 16q9 0 59 -4q86 -4 156 -4q81 0 199 4q58 4 71 4q29 0 29 -16q0 -19 -29 -25q-88 -23 -88 -80q0 -42 68 -149l264 -404l205 279q35 48 106 164q46 73 46 114q0 43 -39 62q-8 6 -68 18q-18 4 -18 19q0 18 28 18q21 0 72.5 -3t85.5 -3q86 0 164 4l55 2 q27 0 27 -18q0 -15 -29 -21q-71 -14 -124 -57t-128 -148l-239 -335q-57 -76 -74 -122.5t-17 -121.5v-41q0 -266 7 -334.5t38 -99.5q39 -36 115 -39q27 0 27 -19q0 -20 -27 -20h-14q-169 14 -242 14q-71 0 -246 -14h-16q-25 0 -25 20q0 19 27 19q41 2 65.5 8t45.5 27t31 48.5 t17.5 85.5t9 125t1.5 179v80l-338 514q-75 114 -131.5 165t-126.5 68q-24 5 -24 21zM373 1462q0 8 10 25l158 246q4 4 8 11t6 8.5t8 3t17 1.5l313 33q5 2 9.5 -2t4.5 -10q0 -10 -14 -21l-471 -305q-17 -10 -27 -10q-9 0 -15.5 6t-6.5 14z" />
<glyph unicode="&#xde;" horiz-adv-x="1214" d="M31 1329v37h567v-37h-72q-88 0 -109.5 -26t-21.5 -132v-73h260q118 0 190.5 -15.5t125.5 -50.5q74 -50 114.5 -130t40.5 -175q0 -170 -121 -271.5t-325 -101.5h-287v-153q4 -77 7 -94t14 -35q25 -35 114 -35h82v-37h-575v37h45q89 0 112 28t23 136v964q0 109 -24 136.5 t-121 27.5h-39zM393 408h201q90 0 136 11.5t89 45.5q62 50 89.5 111.5t27.5 150.5q0 320 -322 320h-221v-639z" />
<glyph unicode="&#xdf;" horiz-adv-x="1089" d="M55 12q0 16 19 19q67 10 86.5 59t19.5 205v412q0 250 11.5 353t46.5 167q44 85 132 133.5t195 48.5q143 0 244.5 -88.5t101.5 -212.5q0 -78 -55 -157t-147 -130q145 -54 222 -155t77 -236q0 -116 -53 -220t-140.5 -167t-185.5 -63q-63 0 -109.5 37.5t-46.5 88.5 q0 31 21 50.5t55 19.5q41 0 67 -33q7 -13 23 -65q5 -17 18.5 -28t30.5 -11q66 0 107 93.5t41 242.5q0 199 -74 309t-209 113q-39 0 -39 20t39 23q51 6 79.5 17.5t49.5 35.5q32 32 53 98t21 131q0 101 -61 170.5t-152 69.5q-79 0 -127 -52t-68 -161q-18 -123 -18 -444v-410 q0 -107 8.5 -159t30 -75t67.5 -30q19 -3 19 -19t-21 -16q-2 0 -49 6q-75 6 -129 6q-65 0 -176 -12h-4q-21 0 -21 16z" />
<glyph unicode="&#xe0;" horiz-adv-x="894" d="M53 168q0 52 20 97.5t58.5 81.5t83 65t106 54.5t113.5 43.5t119 37v57q0 91 -4 121.5t-21 62.5q-18 33 -50.5 52.5t-71.5 19.5q-106 0 -130 -112q-15 -63 -36 -87t-62 -24q-37 0 -60.5 20.5t-23.5 51.5q0 76 103 138t229 62q156 0 233 -92q31 -39 40.5 -78t9.5 -135v-381 q0 -92 14 -128t49 -36q18 0 27.5 6t40.5 37q4 7 12 7q9 0 15.5 -8t6.5 -17q0 -15 -32 -47q-51 -45 -117 -45q-69 0 -116 43t-56 115q-79 -90 -150 -130t-151 -40q-88 0 -143.5 52.5t-55.5 135.5zM215 225q0 -60 37.5 -97.5t97.5 -37.5q57 0 113 36t76 85q14 38 14 156v131 q-158 -28 -248 -100.5t-90 -172.5zM279 1360q0 31 26.5 54.5t61.5 23.5q57 0 96 -76l143 -309q12 -24 12 -35q0 -9 -5.5 -16t-12.5 -7q-17 0 -37 23l-237 254q-47 47 -47 88z" />
<glyph unicode="&#xe1;" horiz-adv-x="894" d="M53 168q0 52 20 97.5t58.5 81.5t83 65t106 54.5t113.5 43.5t119 37v57q0 91 -4 121.5t-21 62.5q-18 33 -50.5 52.5t-71.5 19.5q-106 0 -130 -112q-15 -63 -36 -87t-62 -24q-37 0 -60.5 20.5t-23.5 51.5q0 76 103 138t229 62q156 0 233 -92q31 -39 40.5 -78t9.5 -135v-381 q0 -92 14 -128t49 -36q18 0 27.5 6t40.5 37q4 7 12 7q9 0 15.5 -8t6.5 -17q0 -15 -32 -47q-51 -45 -117 -45q-69 0 -116 43t-56 115q-79 -90 -150 -130t-151 -40q-88 0 -143.5 52.5t-55.5 135.5zM215 225q0 -60 37.5 -97.5t97.5 -37.5q57 0 113 36t76 85q14 38 14 156v131 q-158 -28 -248 -100.5t-90 -172.5zM279 1018q0 15 10 35l145 309q36 76 96 76q34 0 60 -24t26 -56q0 -38 -45 -86l-237 -254q-23 -23 -39 -23q-6 0 -11 7t-5 16z" />
<glyph unicode="&#xe2;" horiz-adv-x="894" d="M53 168q0 52 20 97.5t58.5 81.5t83 65t106 54.5t113.5 43.5t119 37v57q0 91 -4 121.5t-21 62.5q-18 33 -50.5 52.5t-71.5 19.5q-106 0 -130 -112q-15 -63 -36 -87t-62 -24q-37 0 -60.5 20.5t-23.5 51.5q0 76 103 138t229 62q156 0 233 -92q31 -39 40.5 -78t9.5 -135v-381 q0 -92 14 -128t49 -36q18 0 27.5 6t40.5 37q4 7 12 7q9 0 15.5 -8t6.5 -17q0 -15 -32 -47q-51 -45 -117 -45q-69 0 -116 43t-56 115q-79 -90 -150 -130t-151 -40q-88 0 -143.5 52.5t-55.5 135.5zM174 1036q0 13 19 45l163 265q30 47 46 61t40 14q25 0 41 -14t45 -61 l177 -281q16 -24 16 -37q0 -8 -6 -13t-15 -5q-12 0 -28 16l-148 152q-44 47 -75 47q-17 0 -27.5 -7t-42.5 -40l-131 -134q-32 -32 -49 -32q-11 0 -18 7t-7 17zM215 225q0 -60 37.5 -97.5t97.5 -37.5q57 0 113 36t76 85q14 38 14 156v131q-158 -28 -248 -100.5t-90 -172.5z " />
<glyph unicode="&#xe3;" horiz-adv-x="894" d="M53 168q0 52 20 97.5t58.5 81.5t83 65t106 54.5t113.5 43.5t119 37v57q0 91 -4 121.5t-21 62.5q-18 33 -50.5 52.5t-71.5 19.5q-106 0 -130 -112q-15 -63 -36 -87t-62 -24q-37 0 -60.5 20.5t-23.5 51.5q0 76 103 138t229 62q156 0 233 -92q31 -39 40.5 -78t9.5 -135v-381 q0 -92 14 -128t49 -36q18 0 27.5 6t40.5 37q4 7 12 7q9 0 15.5 -8t6.5 -17q0 -15 -32 -47q-51 -45 -117 -45q-69 0 -116 43t-56 115q-79 -90 -150 -130t-151 -40q-88 0 -143.5 52.5t-55.5 135.5zM119 1118q0 14 22 68q34 77 79.5 113t109.5 36q50 0 143 -53q111 -61 158 -61 q60 0 104 84q8 22 23 22q8 0 14 -6.5t6 -13.5q0 -17 -20 -60.5t-43 -75.5q-54 -75 -131 -75q-35 0 -59.5 8.5t-118.5 54.5q-92 45 -144 45q-66 0 -98 -76q-6 -17 -12 -22.5t-15 -5.5q-18 0 -18 18zM215 225q0 -60 37.5 -97.5t97.5 -37.5q57 0 113 36t76 85q14 38 14 156v131 q-158 -28 -248 -100.5t-90 -172.5z" />
<glyph unicode="&#xe4;" horiz-adv-x="894" d="M53 168q0 52 20 97.5t58.5 81.5t83 65t106 54.5t113.5 43.5t119 37v57q0 91 -4 121.5t-21 62.5q-18 33 -50.5 52.5t-71.5 19.5q-106 0 -130 -112q-15 -63 -36 -87t-62 -24q-37 0 -60.5 20.5t-23.5 51.5q0 76 103 138t229 62q156 0 233 -92q31 -39 40.5 -78t9.5 -135v-381 q0 -92 14 -128t49 -36q18 0 27.5 6t40.5 37q4 7 12 7q9 0 15.5 -8t6.5 -17q0 -15 -32 -47q-51 -45 -117 -45q-69 0 -116 43t-56 115q-79 -90 -150 -130t-151 -40q-88 0 -143.5 52.5t-55.5 135.5zM186 1221q0 37 28.5 64.5t66.5 27.5q40 0 70 -29t30 -67q0 -40 -28.5 -69.5 t-67.5 -29.5t-69 31t-30 72zM215 225q0 -60 37.5 -97.5t97.5 -37.5q57 0 113 36t76 85q14 38 14 156v131q-158 -28 -248 -100.5t-90 -172.5zM514 1221q0 37 28 64.5t66 27.5q40 0 70.5 -29t30.5 -67q0 -40 -28.5 -69.5t-68.5 -29.5q-38 0 -68 31t-30 72z" />
<glyph unicode="&#xe5;" horiz-adv-x="894" d="M53 168q0 52 20 97.5t58.5 81.5t83 65t106 54.5t113.5 43.5t119 37v57q0 91 -4 121.5t-21 62.5q-18 33 -50.5 52.5t-71.5 19.5q-106 0 -130 -112q-15 -63 -36 -87t-62 -24q-37 0 -60.5 20.5t-23.5 51.5q0 76 103 138t229 62q156 0 233 -92q31 -39 40.5 -78t9.5 -135v-381 q0 -92 14 -128t49 -36q18 0 27.5 6t40.5 37q4 7 12 7q9 0 15.5 -8t6.5 -17q0 -15 -32 -47q-51 -45 -117 -45q-69 0 -116 43t-56 115q-79 -90 -150 -130t-151 -40q-88 0 -143.5 52.5t-55.5 135.5zM215 225q0 -60 37.5 -97.5t97.5 -37.5q57 0 113 36t76 85q14 38 14 156v131 q-158 -28 -248 -100.5t-90 -172.5zM297 1223q0 57 43.5 100t101.5 43q63 0 109.5 -44.5t46.5 -104.5q0 -62 -43.5 -107t-103.5 -45q-61 0 -107.5 47.5t-46.5 110.5zM358 1219q0 -37 28 -65t63 -28t61.5 27t26.5 64q0 35 -28 61.5t-65 26.5q-34 0 -60 -25.5t-26 -60.5z" />
<glyph unicode="&#xe6;" horiz-adv-x="1409" d="M53 166q0 63 35.5 123.5t95.5 103.5q74 49 149 79.5t212 66.5l20 6q2 31 2 69q0 128 -31.5 188t-127.5 60q-60 0 -89.5 -28t-48.5 -103q-24 -100 -100 -100q-32 0 -54 19.5t-22 47.5q0 82 105 146.5t237 64.5q182 0 252 -129q76 70 143.5 99.5t153.5 29.5q154 0 255 -107 t101 -270q0 -32 -6.5 -39.5t-34.5 -7.5h-571q-4 -66 -4 -77q0 -100 27 -177q31 -80 102.5 -131t155.5 -51q133 0 258 125q14 14 22 14q9 0 17 -6.5t8 -13.5q0 -18 -70 -82q-124 -106 -291 -106q-116 0 -211.5 60.5t-136.5 160.5q-90 -119 -171 -170t-183 -51 q-88 0 -143.5 52t-55.5 134zM215 221q0 -61 39.5 -97t105.5 -36q92 0 158 66q49 52 49 151l-2 82v109q-153 -37 -229 -84q-121 -82 -121 -191zM733 545q59 -15 152 -15q85 0 134 2.5t85.5 8t51.5 19t21.5 31t6.5 48.5q0 95 -59.5 162t-143.5 67q-130 0 -205 -147 q-43 -85 -43 -176z" />
<glyph unicode="&#xe7;" horiz-adv-x="913" d="M82 426q0 206 126.5 344.5t313.5 138.5q117 0 206 -60t89 -138q0 -31 -24 -53.5t-56 -22.5q-29 0 -45.5 16.5t-36.5 67.5q-57 147 -163 147q-103 0 -171.5 -108.5t-68.5 -272.5q0 -178 85.5 -304t205.5 -126q83 0 158 58.5t100 142.5q8 25 22 25q9 0 16 -7t7 -16 q0 -34 -39 -97t-82 -98q-100 -77 -231 -83l-2 -21q110 -49 110 -135q0 -76 -82.5 -121t-222.5 -45q-24 0 -32.5 5.5t-8.5 19.5q0 17 6.5 19.5t48.5 2.5q56 0 92.5 22.5t36.5 57.5q0 20 -11.5 35.5t-39.5 32.5q-10 5 -10 10q0 2 10 12q52 68 55 107q-160 12 -261 136 t-101 308z" />
<glyph unicode="&#xe8;" horiz-adv-x="925" d="M82 420q0 133 57 245.5t154.5 178t212.5 65.5q151 0 250.5 -108t99.5 -271q0 -34 -6.5 -40.5t-38.5 -6.5h-553q-4 -74 -4 -82q0 -149 84 -250.5t207 -101.5q113 0 248 105q17 10 22 10q10 0 18.5 -9t8.5 -20q0 -9 -9.5 -19t-37.5 -32q-144 -104 -310 -104 q-175 0 -289 124.5t-114 315.5zM262 541q78 -4 131 -4q214 0 264 20q35 15 35 90q0 94 -53 156.5t-133 62.5q-95 0 -161 -87.5t-83 -237.5zM293 1360q0 31 26.5 54.5t61.5 23.5q60 0 96 -76l144 -309q12 -22 12 -35q0 -9 -6 -16t-13 -7q-16 0 -36 23l-238 254q-47 47 -47 88 z" />
<glyph unicode="&#xe9;" horiz-adv-x="925" d="M82 420q0 133 57 245.5t154.5 178t212.5 65.5q151 0 250.5 -108t99.5 -271q0 -34 -6.5 -40.5t-38.5 -6.5h-553q-4 -74 -4 -82q0 -149 84 -250.5t207 -101.5q113 0 248 105q17 10 22 10q10 0 18.5 -9t8.5 -20q0 -9 -9.5 -19t-37.5 -32q-144 -104 -310 -104 q-175 0 -289 124.5t-114 315.5zM262 541q78 -4 131 -4q214 0 264 20q35 15 35 90q0 94 -53 156.5t-133 62.5q-95 0 -161 -87.5t-83 -237.5zM293 1018q0 11 12 35l144 309q36 76 96 76q34 0 60 -24t26 -56q0 -38 -45 -86l-238 -254q-23 -23 -37 -23q-7 0 -12.5 7t-5.5 16z " />
<glyph unicode="&#xea;" horiz-adv-x="925" d="M82 420q0 133 57 245.5t154.5 178t212.5 65.5q151 0 250.5 -108t99.5 -271q0 -34 -6.5 -40.5t-38.5 -6.5h-553q-4 -74 -4 -82q0 -149 84 -250.5t207 -101.5q113 0 248 105q17 10 22 10q10 0 18.5 -9t8.5 -20q0 -9 -9.5 -19t-37.5 -32q-144 -104 -310 -104 q-175 0 -289 124.5t-114 315.5zM188 1036q0 14 19 45l164 265q30 47 46 61t40 14q25 0 41 -14t47 -61l176 -281q14 -22 14 -37q0 -18 -20 -18q-13 0 -29 16l-147 152q-44 47 -76 47q-17 0 -26.5 -6.5t-43.5 -40.5l-131 -134q-21 -21 -29.5 -26.5t-19.5 -5.5t-18 7t-7 17z M262 541q78 -4 131 -4q214 0 264 20q35 15 35 90q0 94 -53 156.5t-133 62.5q-95 0 -161 -87.5t-83 -237.5z" />
<glyph unicode="&#xeb;" horiz-adv-x="925" d="M82 420q0 133 57 245.5t154.5 178t212.5 65.5q151 0 250.5 -108t99.5 -271q0 -34 -6.5 -40.5t-38.5 -6.5h-553q-4 -74 -4 -82q0 -149 84 -250.5t207 -101.5q113 0 248 105q17 10 22 10q10 0 18.5 -9t8.5 -20q0 -9 -9.5 -19t-37.5 -32q-144 -104 -310 -104 q-175 0 -289 124.5t-114 315.5zM201 1221q0 37 28 64.5t66 27.5q40 0 70 -29t30 -67q0 -40 -28.5 -69.5t-67.5 -29.5q-38 0 -68 31t-30 72zM262 541q78 -4 131 -4q214 0 264 20q35 15 35 90q0 94 -53 156.5t-133 62.5q-95 0 -161 -87.5t-83 -237.5zM528 1221q0 37 28.5 64.5 t66.5 27.5q40 0 70 -29t30 -67q0 -40 -28.5 -69.5t-67.5 -29.5t-69 31t-30 72z" />
<glyph unicode="&#xec;" horiz-adv-x="538" d="M55 870q0 19 21 19h10q14 -2 41 -2q49 0 178 20q4 2 14 2q17 0 23 -44.5t6 -182.5v-387q0 -107 9 -159t30.5 -75t67.5 -30q18 -3 18 -19t-20 -16q-3 0 -50 6q-75 6 -131 6q-87 0 -178 -12h-4q-20 0 -20 16t18 19q47 7 68.5 30.5t30 74.5t8.5 159v285q0 82 -11 148t-28 89 q-18 29 -70 35q-31 3 -31 18zM100 1360q0 31 26.5 54.5t61.5 23.5q61 0 97 -76l143 -309q12 -24 12 -35q0 -9 -5.5 -16t-12.5 -7q-17 0 -37 23l-238 254q-47 47 -47 88z" />
<glyph unicode="&#xed;" horiz-adv-x="538" d="M55 870q0 19 21 19h10q14 -2 41 -2q49 0 178 20q4 2 14 2q17 0 23 -44.5t6 -182.5v-387q0 -107 9 -159t30.5 -75t67.5 -30q18 -3 18 -19t-20 -16q-3 0 -50 6q-75 6 -131 6q-87 0 -178 -12h-4q-20 0 -20 16t18 19q47 7 68.5 30.5t30 74.5t8.5 159v285q0 82 -11 148t-28 89 q-18 29 -70 35q-31 3 -31 18zM100 1018q0 14 13 35l143 309q36 76 96 76q34 0 60 -24t26 -56q0 -38 -45 -86l-237 -254q-23 -23 -37 -23q-7 0 -13 7t-6 16z" />
<glyph unicode="&#xee;" horiz-adv-x="538" d="M-4 1036q0 15 18 45l166 265q28 46 44.5 60.5t39.5 14.5q26 0 42.5 -14t45.5 -61l176 -281q17 -30 17 -37q0 -8 -6 -13t-15 -5q-12 0 -28 16l-150 152q-26 28 -41.5 37.5t-34.5 9.5q-15 0 -25 -7t-42 -40l-133 -134q-21 -21 -30 -26.5t-20 -5.5q-10 0 -17 7t-7 17z M57 870q0 19 21 19h10q14 -2 41 -2q49 0 178 20q4 2 15 2q17 0 22.5 -43.5t5.5 -183.5v-387q0 -107 9 -159t30.5 -75t67.5 -30q18 -3 18 -19t-20 -16q-2 0 -49 6q-75 6 -132 6q-87 0 -178 -12h-4q-20 0 -20 16t18 19q47 7 68.5 30.5t30 74.5t8.5 159v285q0 82 -11 148 t-28 89q-18 29 -70 35q-31 3 -31 18z" />
<glyph unicode="&#xef;" horiz-adv-x="538" d="M35 1221q0 37 25.5 64.5t60.5 27.5q37 0 62.5 -27t25.5 -65q0 -40 -26 -71.5t-58 -31.5q-35 0 -62.5 31.5t-27.5 71.5zM55 870q0 19 21 19h10q14 -2 41 -2q49 0 178 20q4 2 14 2q17 0 23 -44.5t6 -182.5v-387q0 -107 9 -159t30.5 -75t67.5 -30q18 -3 18 -19t-20 -16 q-3 0 -50 6q-75 6 -131 6q-87 0 -178 -12h-4q-20 0 -20 16t18 19q47 7 68.5 30.5t30 74.5t8.5 159v285q0 82 -11 148t-28 89q-18 29 -70 35q-31 3 -31 18zM330 1221q0 37 25.5 64.5t60.5 27.5q37 0 62.5 -27t25.5 -65q0 -40 -26 -71.5t-58 -31.5q-35 0 -62.5 31.5 t-27.5 71.5z" />
<glyph unicode="&#xf0;" horiz-adv-x="1077" d="M90 444q0 201 127 338.5t313 137.5q60 0 118 -18.5t95 -49.5q22 -20 72 -78q-50 150 -110.5 248.5t-167.5 200.5l-164 -136l-33 41l160 127q-21 13 -29 21l-45 35q-21 16 -102 61l20 37q46 -18 108.5 -51.5t98.5 -59.5l158 127l32 -36l-149 -121q79 -61 130 -116.5 t101 -133.5q78 -126 121 -271t43 -284q0 -212 -128.5 -352t-323.5 -140q-189 0 -317 136t-128 337zM252 455q0 -101 31 -204.5t77 -152.5q75 -78 175 -78q130 0 209 119t79 314q0 192 -75 304.5t-201 112.5q-122 0 -191 -82q-46 -54 -75 -148t-29 -185z" />
<glyph unicode="&#xf1;" horiz-adv-x="1142" d="M47 872q0 17 23 17h10q12 -2 39 -2q43 0 67 2.5t127 17.5q6 2 15 2q17 0 23.5 -31.5t6.5 -109.5v-20q118 161 314 161q73 0 137.5 -25.5t99.5 -68.5q27 -32 37 -76t10 -133v-311q0 -107 9 -159t30.5 -75t67.5 -30q18 -3 18 -19t-20 -16q-2 0 -49 6q-75 6 -133 6 q-88 0 -179 -12h-4q-20 0 -20 16t18 19q47 7 68.5 30.5t30 74.5t8.5 159v305q0 129 -44 188.5t-139 59.5q-81 0 -146 -45t-95 -119q-31 -82 -31 -195v-194q0 -167 25 -219q17 -36 82 -45q18 -3 18 -19t-20 -16q-3 0 -50 6q-75 6 -131 6q-87 0 -176 -12h-4q-20 0 -20 16 t18 19q47 7 68.5 30.5t30 74.5t8.5 159v194q0 151 -9.5 225.5t-33 105t-72.5 32.5q-19 2 -26 6t-7 14zM242 1118q0 14 22 68q34 77 79.5 113t109.5 36q50 0 143 -53q111 -61 158 -61q60 0 104 84q8 22 23 22q7 0 13.5 -6.5t6.5 -13.5q0 -17 -20 -60.5t-43 -75.5 q-54 -75 -131 -75q-36 0 -61 9t-118 54q-92 45 -143 45q-66 0 -98 -76q-6 -17 -12 -22.5t-15 -5.5q-18 0 -18 18z" />
<glyph unicode="&#xf2;" horiz-adv-x="1048" d="M82 440q0 125 61 233t165 172t224 64q180 0 307.5 -132.5t127.5 -319.5q0 -200 -134 -338.5t-327 -138.5q-181 0 -302.5 131.5t-121.5 328.5zM246 453q0 -236 112 -351q79 -82 168 -82q117 0 197 119.5t80 292.5q0 180 -85.5 308t-205.5 128q-112 0 -189 -120.5 t-77 -294.5zM354 1360q0 31 26.5 54.5t61.5 23.5q61 0 97 -76l143 -309q12 -22 12 -35q0 -9 -5.5 -16t-12.5 -7q-17 0 -37 23l-238 254q-47 47 -47 88z" />
<glyph unicode="&#xf3;" horiz-adv-x="1048" d="M82 440q0 125 61 233t165 172t224 64q180 0 307.5 -132.5t127.5 -319.5q0 -200 -134 -338.5t-327 -138.5q-181 0 -302.5 131.5t-121.5 328.5zM246 453q0 -236 112 -351q79 -82 168 -82q117 0 197 119.5t80 292.5q0 180 -85.5 308t-205.5 128q-112 0 -189 -120.5 t-77 -294.5zM354 1018q0 9 13 35l143 309q36 76 96 76q34 0 60 -24t26 -56q0 -38 -45 -86l-237 -254q-23 -23 -37 -23q-7 0 -13 7t-6 16z" />
<glyph unicode="&#xf4;" horiz-adv-x="1048" d="M82 440q0 125 61 233t165 172t224 64q180 0 307.5 -132.5t127.5 -319.5q0 -200 -134 -338.5t-327 -138.5q-181 0 -302.5 131.5t-121.5 328.5zM246 453q0 -236 112 -351q79 -82 168 -82q117 0 197 119.5t80 292.5q0 180 -85.5 308t-205.5 128q-112 0 -189 -120.5 t-77 -294.5zM250 1036q0 15 18 45l164 265q30 47 46 61t40 14q25 0 41 -14t47 -61l176 -281q15 -24 15 -37q0 -8 -6 -13t-15 -5q-12 0 -28 16l-148 152q-44 47 -76 47q-17 0 -25.5 -6t-43.5 -41l-131 -134q-21 -21 -30 -26.5t-20 -5.5q-10 0 -17 7t-7 17z" />
<glyph unicode="&#xf5;" horiz-adv-x="1048" d="M82 440q0 125 61 233t165 172t224 64q180 0 307.5 -132.5t127.5 -319.5q0 -200 -134 -338.5t-327 -138.5q-181 0 -302.5 131.5t-121.5 328.5zM195 1118q0 14 22 68q34 77 79.5 113t109.5 36q50 0 143 -53q111 -61 158 -61q60 0 104 84q8 22 23 22q8 0 14 -6.5t6 -13.5 q0 -17 -20 -60.5t-43 -75.5q-54 -75 -132 -75q-35 0 -59.5 8.5t-118.5 54.5q-92 45 -143 45q-66 0 -98 -76q-6 -17 -12 -22.5t-15 -5.5q-18 0 -18 18zM246 453q0 -236 112 -351q79 -82 168 -82q117 0 197 119.5t80 292.5q0 180 -85.5 308t-205.5 128q-112 0 -189 -120.5 t-77 -294.5z" />
<glyph unicode="&#xf6;" horiz-adv-x="1048" d="M82 440q0 125 61 233t165 172t224 64q180 0 307.5 -132.5t127.5 -319.5q0 -200 -134 -338.5t-327 -138.5q-181 0 -302.5 131.5t-121.5 328.5zM246 453q0 -236 112 -351q79 -82 168 -82q117 0 197 119.5t80 292.5q0 180 -85.5 308t-205.5 128q-112 0 -189 -120.5 t-77 -294.5zM262 1221q0 37 28 64.5t66 27.5q40 0 70.5 -29t30.5 -67q0 -40 -28.5 -69.5t-68.5 -29.5q-38 0 -68 31t-30 72zM590 1221q0 37 28 64.5t66 27.5q40 0 70 -29t30 -67q0 -40 -28.5 -69.5t-67.5 -29.5q-38 0 -68 31t-30 72z" />
<glyph unicode="&#xf7;" d="M45 655v93h934v-93h-934zM428 324q0 35 24.5 59.5t59.5 24.5q34 0 58 -24t24 -58q0 -35 -24.5 -59.5t-59.5 -24.5q-34 0 -58 24t-24 58zM430 1075q0 35 24.5 59.5t59.5 24.5q34 0 58 -24t24 -58q0 -35 -24 -59.5t-58 -24.5q-35 0 -59.5 24t-24.5 58z" />
<glyph unicode="&#xf8;" horiz-adv-x="1048" d="M82 432q0 196 133.5 336.5t319.5 140.5q91 0 176 -43l102 178l53 -30l-100 -178q97 -65 149 -163t52 -218q0 -97 -36 -184.5t-97 -151.5t-145 -101.5t-177 -37.5q-108 0 -207 51l-110 -193l-54 33l113 195q-83 64 -127.5 159.5t-44.5 206.5zM236 449q0 -169 71 -289 l365 639q-78 69 -160 69q-118 0 -197 -120t-79 -299zM348 106q83 -86 180 -86q120 0 202.5 119t82.5 291q0 188 -98 320z" />
<glyph unicode="&#xf9;" horiz-adv-x="1091" d="M59 874q0 15 19 15q12 0 86 -6q145 10 149 10q16 0 21 -10q2 -4 2 -205v-272q0 -184 29 -273q15 -41 54 -68.5t83 -27.5q71 0 126 41t89 119q22 46 26.5 79t8.5 187v180q0 191 -86 211q-26 5 -32.5 8t-6.5 12q0 15 18 15q12 0 84 -6q145 10 150 10q17 0 20 -10 q2 -4 2 -205v-406q0 -115 23 -168.5t77 -64.5q15 -3 20 -6t5 -10q0 -16 -20 -19l-222 -8q-34 0 -42.5 18.5t-8.5 87.5v37q-58 -83 -126.5 -121t-157.5 -38q-74 0 -136.5 30.5t-93.5 81.5q-20 35 -26.5 76.5t-6.5 140.5v303q0 124 -19.5 178t-68.5 64q-26 5 -32.5 8t-6.5 12z M377 1360q0 31 26.5 54.5t61.5 23.5q58 0 94 -76l146 -309q12 -30 12 -35q0 -9 -6 -16t-13 -7q-16 0 -36 23l-240 254q-45 48 -45 88z" />
<glyph unicode="&#xfa;" horiz-adv-x="1091" d="M59 874q0 15 19 15q12 0 86 -6q145 10 149 10q16 0 21 -10q2 -4 2 -205v-272q0 -184 29 -273q15 -41 54 -68.5t83 -27.5q71 0 126 41t89 119q22 46 26.5 79t8.5 187v180q0 191 -86 211q-26 5 -32.5 8t-6.5 12q0 15 18 15q12 0 84 -6q145 10 150 10q17 0 20 -10 q2 -4 2 -205v-406q0 -115 23 -168.5t77 -64.5q15 -3 20 -6t5 -10q0 -16 -20 -19l-222 -8q-34 0 -42.5 18.5t-8.5 87.5v37q-58 -83 -126.5 -121t-157.5 -38q-74 0 -136.5 30.5t-93.5 81.5q-20 35 -26.5 76.5t-6.5 140.5v303q0 124 -19.5 178t-68.5 64q-26 5 -32.5 8t-6.5 12z M375 1018q0 10 12 35l145 309q36 76 97 76q34 0 60 -24t26 -56q0 -41 -45 -86l-240 -254q-23 -23 -37 -23q-7 0 -12.5 7t-5.5 16z" />
<glyph unicode="&#xfb;" horiz-adv-x="1091" d="M59 874q0 15 19 15q12 0 86 -6q145 10 149 10q16 0 21 -10q2 -4 2 -205v-272q0 -184 29 -273q15 -41 54 -68.5t83 -27.5q71 0 126 41t89 119q22 46 26.5 79t8.5 187v180q0 191 -86 211q-26 5 -32.5 8t-6.5 12q0 15 18 15q12 0 84 -6q145 10 150 10q17 0 20 -10 q2 -4 2 -205v-406q0 -115 23 -168.5t77 -64.5q15 -3 20 -6t5 -10q0 -16 -20 -19l-222 -8q-34 0 -42.5 18.5t-8.5 87.5v37q-58 -83 -126.5 -121t-157.5 -38q-74 0 -136.5 30.5t-93.5 81.5q-20 35 -26.5 76.5t-6.5 140.5v303q0 124 -19.5 178t-68.5 64q-26 5 -32.5 8t-6.5 12z M270 1036q0 12 21 45l164 265q30 47 45.5 61t38.5 14q26 0 42.5 -14t45.5 -61l176 -281q16 -27 16 -37q0 -18 -20 -18q-10 0 -29 16l-147 152q-44 47 -78 47q-16 0 -26.5 -7t-41.5 -40l-133 -134q-32 -32 -49 -32q-11 0 -18 7t-7 17z" />
<glyph unicode="&#xfc;" horiz-adv-x="1091" d="M59 874q0 15 19 15q12 0 86 -6q145 10 149 10q16 0 21 -10q2 -4 2 -205v-272q0 -184 29 -273q15 -41 54 -68.5t83 -27.5q71 0 126 41t89 119q22 46 26.5 79t8.5 187v180q0 191 -86 211q-26 5 -32.5 8t-6.5 12q0 15 18 15q12 0 84 -6q145 10 150 10q17 0 20 -10 q2 -4 2 -205v-406q0 -115 23 -168.5t77 -64.5q15 -3 20 -6t5 -10q0 -16 -20 -19l-222 -8q-34 0 -42.5 18.5t-8.5 87.5v37q-58 -83 -126.5 -121t-157.5 -38q-74 0 -136.5 30.5t-93.5 81.5q-20 35 -26.5 76.5t-6.5 140.5v303q0 124 -19.5 178t-68.5 64q-26 5 -32.5 8t-6.5 12z M285 1221q0 37 28 64.5t66 27.5q40 0 70 -29t30 -67q0 -40 -28.5 -69.5t-67.5 -29.5q-38 0 -68 31t-30 72zM612 1221q0 37 28.5 64.5t66.5 27.5q40 0 70 -29t30 -67q0 -40 -28.5 -69.5t-67.5 -29.5t-69 31t-30 72z" />
<glyph unicode="&#xfd;" horiz-adv-x="897" d="M-51 -391q0 44 27.5 73t70.5 29q40 0 58.5 -18.5t31.5 -73.5q12 -55 58 -55q62 0 116.5 70t106.5 216l24 66l-276 698q-49 132 -77.5 172.5t-82.5 59.5q-22 8 -22 20q0 19 30 19q123 -4 160 -4l131 2q54 4 64 4q26 0 26 -19q0 -12 -22 -18q-46 -12 -64 -33.5t-18 -64.5 q0 -50 22 -111l205 -520l170 502q19 55 19 114q0 51 -25.5 77.5t-83.5 35.5q-23 7 -23 18q0 19 31 19l64 -2q25 -2 73 -2q53 0 131 4h11q28 0 28 -19q0 -13 -24 -24q-46 -19 -75.5 -63.5t-70.5 -157.5l-243 -693q-56 -158 -88 -226.5t-74 -123.5q-96 -125 -223 -125 q-66 0 -116 46.5t-50 107.5zM279 1018q0 16 12 35l143 309q36 76 96 76q34 0 60 -24t26 -56q0 -38 -45 -86l-237 -254q-23 -23 -37 -23q-7 0 -12.5 7t-5.5 16z" />
<glyph unicode="&#xfe;" horiz-adv-x="1114" d="M33 -328h16q66 0 82 23.5t16 120.5v1368q0 43 -1.5 66t-5 41t-12.5 25t-21 10t-33 3h-29v37h256v-571q108 166 317 166q183 0 294.5 -133t111.5 -353q0 -232 -112 -370t-300 -138q-96 0 -180.5 45.5t-130.5 120.5v-317q0 -96 13.5 -120t70.5 -24h59v-39h-411v39zM301 305 q6 -89 31.5 -139t85.5 -90q71 -47 153 -47q135 0 210 125.5t75 353.5q0 185 -71 284t-203 99q-123 0 -202 -80.5t-79 -206.5v-299z" />
<glyph unicode="&#xff;" horiz-adv-x="897" d="M-51 -391q0 44 27.5 73t70.5 29q40 0 58.5 -18.5t31.5 -73.5q12 -55 58 -55q62 0 116.5 70t106.5 216l24 66l-276 698q-49 132 -77.5 172.5t-82.5 59.5q-22 8 -22 20q0 19 30 19q123 -4 160 -4l131 2q54 4 64 4q26 0 26 -19q0 -12 -22 -18q-46 -12 -64 -33.5t-18 -64.5 q0 -50 22 -111l205 -520l170 502q19 55 19 114q0 51 -25.5 77.5t-83.5 35.5q-23 7 -23 18q0 19 31 19l64 -2q25 -2 73 -2q53 0 131 4h11q28 0 28 -19q0 -13 -24 -24q-46 -19 -75.5 -63.5t-70.5 -157.5l-243 -693q-56 -158 -88 -226.5t-74 -123.5q-96 -125 -223 -125 q-66 0 -116 46.5t-50 107.5zM186 1221q0 37 28.5 64.5t66.5 27.5q40 0 70 -29t30 -67q0 -40 -28.5 -69.5t-67.5 -29.5t-69 31t-30 72zM514 1221q0 37 28 64.5t66 27.5q40 0 70.5 -29t30.5 -67q0 -40 -28.5 -69.5t-68.5 -29.5q-38 0 -68 31t-30 72z" />
<glyph unicode="&#x152;" horiz-adv-x="2201" d="M86 705q0 143 53 270t144 217.5t218 143.5t271 53q72 0 158 -9q157 -15 196 -17.5t117 -2.5h41l408 6l317 2q13 -157 45 -252q6 -18 6 -31q0 -20 -18 -20t-33 37q-51 104 -167 161.5t-277 57.5q-153 0 -181 -21q-16 -13 -16 -55v-502h135q94 0 134 11.5t71 48.5 q28 31 40.5 58.5t25.5 90.5q6 27 20 27q16 0 16 -27q0 -26 -4 -121.5t-4 -121.5q0 -78 6 -217v-11q0 -26 -18 -26q-16 0 -21 34q-5 43 -22.5 86.5t-42.5 69.5q-28 29 -72.5 40t-132.5 11h-135v-368q0 -87 2.5 -114t11.5 -56q25 -62 83 -87.5t173 -25.5q128 0 207.5 22 t145.5 76q29 24 56.5 52.5t52 59.5t40.5 60q18 27 31 27q6 0 10 -5t4 -13q0 -9 -4 -25q-55 -186 -68 -299q-80 -2 -180 -2q-13 0 -250 4t-307 4q-176 0 -373 -14q-123 -12 -213 -12q-190 0 -351.5 97.5t-255 264.5t-93.5 363zM322 694q0 -146 35.5 -269.5t98 -210.5 t151.5 -136t194 -49q120 0 211.5 63t128.5 172q53 152 53 457q0 114 -10.5 200.5t-33 153t-58.5 117.5q-46 67 -123 105t-168 38q-76 0 -143.5 -24.5t-119 -68.5t-93 -104.5t-68.5 -132t-41 -150.5t-14 -161z" />
<glyph unicode="&#x153;" horiz-adv-x="1648" d="M82 430q0 131 60 241t164.5 174t228.5 64q99 0 191.5 -48.5t156.5 -135.5q37 48 58 70t50 41q104 73 232 73q155 0 256.5 -106.5t101.5 -270.5q0 -32 -6.5 -39.5t-34.5 -7.5h-571q-4 -33 -4 -77q0 -103 26 -177q31 -80 102 -131t154 -51q130 0 258 125q14 14 23 14 t16.5 -6t7.5 -14q0 -18 -69 -82q-121 -106 -289 -106q-210 0 -324 180q-139 -180 -358 -180q-184 0 -307 129t-123 321zM248 446q0 -179 82 -302.5t200 -123.5q117 0 195 118.5t78 293.5q0 112 -39.5 213t-106.5 162t-141 61q-114 0 -191 -121.5t-77 -300.5zM971 545 q61 -15 153 -15q85 0 134 2.5t85.5 8t51.5 19t21.5 31t6.5 48.5q0 95 -59.5 162t-144.5 67q-128 0 -203 -147q-45 -88 -45 -176z" />
<glyph unicode="&#x178;" horiz-adv-x="1280" d="M-63 1354q0 16 24 16q9 0 59 -4q86 -4 156 -4q81 0 199 4q58 4 71 4q29 0 29 -16q0 -19 -29 -25q-88 -23 -88 -80q0 -42 68 -149l264 -404l205 279q35 48 106 164q46 73 46 114q0 43 -39 62q-8 6 -68 18q-18 4 -18 19q0 18 28 18q21 0 72.5 -3t85.5 -3q86 0 164 4l55 2 q27 0 27 -18q0 -15 -29 -21q-71 -14 -124 -57t-128 -148l-239 -335q-57 -76 -74 -122.5t-17 -121.5v-41q0 -266 7 -334.5t38 -99.5q39 -36 115 -39q27 0 27 -19q0 -20 -27 -20h-14q-169 14 -242 14q-71 0 -246 -14h-16q-25 0 -25 20q0 19 27 19q41 2 65.5 8t45.5 27t31 48.5 t17.5 85.5t9 125t1.5 179v80l-338 514q-75 114 -131.5 165t-126.5 68q-24 5 -24 21zM272 1622q0 44 33.5 77.5t79.5 33.5q47 0 83 -34.5t36 -80.5q0 -47 -34 -82t-81 -35q-46 0 -81.5 37t-35.5 84zM776 1622q0 44 33.5 77.5t79.5 33.5q47 0 83 -34.5t36 -80.5q0 -47 -34 -82 t-81 -35q-46 0 -81.5 37t-35.5 84z" />
<glyph unicode="&#x2c6;" d="M238 1036q0 15 18 45l166 265q28 46 44.5 60.5t39.5 14.5q26 0 42.5 -14t45.5 -61l176 -281q16 -29 16 -37q0 -18 -20 -18q-13 0 -29 16l-149 152q-26 28 -41.5 37.5t-34.5 9.5q-16 0 -26.5 -7t-41.5 -40l-133 -134q-21 -21 -29.5 -26.5t-19.5 -5.5q-10 0 -17 7t-7 17z " />
<glyph unicode="&#x2dc;" d="M182 1118q0 12 23 68q34 77 79 113t109 36q51 0 144 -53q111 -61 157 -61q61 0 105 84q8 22 22 22q8 0 14.5 -6.5t6.5 -13.5q0 -17 -20.5 -60.5t-43.5 -75.5q-54 -75 -131 -75q-35 0 -59.5 8.5t-118.5 54.5q-92 45 -143 45q-32 0 -58 -20t-41 -56q-6 -17 -11.5 -22.5 t-14.5 -5.5q-19 0 -19 18z" />
<glyph unicode="&#x2000;" horiz-adv-x="895" />
<glyph unicode="&#x2001;" horiz-adv-x="1790" />
<glyph unicode="&#x2002;" horiz-adv-x="895" />
<glyph unicode="&#x2003;" horiz-adv-x="1790" />
<glyph unicode="&#x2004;" horiz-adv-x="596" />
<glyph unicode="&#x2005;" horiz-adv-x="447" />
<glyph unicode="&#x2006;" horiz-adv-x="298" />
<glyph unicode="&#x2007;" horiz-adv-x="298" />
<glyph unicode="&#x2008;" horiz-adv-x="223" />
<glyph unicode="&#x2009;" horiz-adv-x="358" />
<glyph unicode="&#x200a;" horiz-adv-x="99" />
<glyph unicode="&#x2010;" horiz-adv-x="428" d="M0 420v55q0 23 33 23h362q33 0 33 -23v-55q0 -23 -33 -23h-362q-33 0 -33 23z" />
<glyph unicode="&#x2011;" horiz-adv-x="428" d="M0 420v55q0 23 33 23h362q33 0 33 -23v-55q0 -23 -33 -23h-362q-33 0 -33 23z" />
<glyph unicode="&#x2012;" horiz-adv-x="428" d="M0 420v55q0 23 33 23h362q33 0 33 -23v-55q0 -23 -33 -23h-362q-33 0 -33 23z" />
<glyph unicode="&#x2013;" horiz-adv-x="761" d="M0 420v55q0 23 33 23h696q33 0 33 -23v-55q0 -23 -33 -23h-696q-33 0 -33 23z" />
<glyph unicode="&#x2014;" horiz-adv-x="1286" d="M0 420v55q0 23 33 23h1220q33 0 33 -23v-55q0 -23 -33 -23h-1220q-33 0 -33 23z" />
<glyph unicode="&#x2018;" horiz-adv-x="452" d="M109 1151q0 47 28 97.5t72 82.5q32 23 75.5 39t73.5 16q25 0 25 -20q0 -17 -23 -23q-127 -39 -127 -106q0 -21 37 -45q28 -19 37.5 -34t9.5 -40q0 -41 -27.5 -67.5t-70.5 -26.5q-49 0 -79.5 35t-30.5 92z" />
<glyph unicode="&#x2019;" horiz-adv-x="452" d="M68 1044q0 18 24 23q127 39 127 107q0 21 -37 45q-29 19 -39 33.5t-10 39.5q0 41 27.5 67.5t70.5 26.5q51 0 82 -34.5t31 -91.5q0 -48 -28.5 -98.5t-73.5 -82.5q-29 -22 -75 -38.5t-75 -16.5q-24 0 -24 20z" />
<glyph unicode="&#x201a;" horiz-adv-x="436" d="M96 68q0 44 32.5 74t78.5 30q57 0 93 -45.5t36 -116.5q0 -63 -37.5 -133.5t-95.5 -114.5q-47 -38 -74 -38q-7 0 -12.5 5t-5.5 13q0 9 5.5 14.5t37.5 28.5q32 22 61 74.5t29 89.5q0 15 -9 21.5t-32 9.5q-56 5 -81.5 26t-25.5 62z" />
<glyph unicode="&#x201c;" horiz-adv-x="786" d="M109 1151q0 47 28 97.5t72 82.5q32 23 75.5 39t73.5 16q25 0 25 -20q0 -17 -23 -23q-127 -39 -127 -106q0 -21 37 -45q28 -19 37.5 -34t9.5 -40q0 -41 -27.5 -67.5t-70.5 -26.5q-49 0 -79.5 35t-30.5 92zM442 1151q0 47 28.5 97.5t74.5 82.5q31 22 75.5 38.5t73.5 16.5 q25 0 25 -20q0 -17 -25 -23q-127 -39 -127 -106q0 -21 37 -45q29 -19 39 -34t10 -40q0 -41 -27.5 -67.5t-70.5 -26.5q-51 0 -82 35t-31 92z" />
<glyph unicode="&#x201d;" horiz-adv-x="786" d="M68 1044q0 18 24 23q127 39 127 107q0 21 -37 45q-29 19 -39 33.5t-10 39.5q0 41 27.5 67.5t70.5 26.5q51 0 82 -34.5t31 -91.5q0 -48 -28.5 -98.5t-73.5 -82.5q-29 -22 -75 -38.5t-75 -16.5q-24 0 -24 20zM401 1044q0 17 25 23q127 39 127 107q0 21 -37 45 q-29 19 -39 33.5t-10 39.5q0 41 27.5 67.5t70.5 26.5q51 0 82 -34.5t31 -91.5q0 -47 -28.5 -98t-74.5 -83q-29 -22 -74.5 -38.5t-74.5 -16.5q-25 0 -25 20z" />
<glyph unicode="&#x201e;" horiz-adv-x="786" d="M68 -170q0 18 24 23q127 39 127 104q0 23 -37 47q-29 17 -39 33t-10 41q0 40 27.5 66t70.5 26q51 0 82 -35t31 -92q0 -47 -28 -96.5t-74 -81.5q-31 -22 -76.5 -38.5t-73.5 -16.5q-24 0 -24 20zM401 -170q0 17 25 23q127 39 127 104q0 23 -37 47q-29 17 -39 33t-10 41 q0 40 27.5 66t70.5 26q51 0 82 -35t31 -92q0 -47 -28.5 -96.5t-74.5 -81.5q-31 -22 -76 -38.5t-73 -16.5q-25 0 -25 20z" />
<glyph unicode="&#x2022;" horiz-adv-x="1366" d="M401 692q0 120 83.5 202.5t205.5 82.5q114 0 196.5 -83.5t82.5 -199.5q0 -118 -83 -201t-200 -83t-201 82.5t-84 199.5z" />
<glyph unicode="&#x2026;" horiz-adv-x="1310" d="M123 80q0 35 27.5 62.5t64.5 27.5q40 0 69 -28t29 -66q0 -40 -28 -68t-66 -28t-67 30t-29 70zM559 80q0 35 27.5 62.5t64.5 27.5q40 0 69.5 -28t29.5 -66q0 -40 -28 -68t-67 -28q-38 0 -67 30t-29 70zM997 80q0 35 28 62.5t65 27.5q40 0 69 -28t29 -66q0 -40 -28 -68 t-66 -28t-67.5 30t-29.5 70z" />
<glyph unicode="&#x202f;" horiz-adv-x="358" />
<glyph unicode="&#x2039;" horiz-adv-x="622" d="M68 451q0 10 18 26l387 373q17 14 29 14q8 0 13 -5t5 -13q0 -6 -10 -23l-254 -374l252 -379q8 -8 8 -21q0 -18 -16 -18q-7 0 -27 20l-391 373q-14 14 -14 27z" />
<glyph unicode="&#x203a;" horiz-adv-x="622" d="M102 51q0 9 9 23l256 377l-252 376q-9 9 -9 23q0 6 5 11t12 5t27 -18l389 -375q16 -16 16 -24q0 -11 -18 -29l-390 -371q-16 -16 -26 -16q-8 0 -13.5 5.5t-5.5 12.5z" />
<glyph unicode="&#x205f;" horiz-adv-x="447" />
<glyph unicode="&#x20ac;" horiz-adv-x="1495" d="M61 565l33 78h88q-2 20 -2 39q0 21 2 39h-121l33 78h94q40 274 225 435t459 161q192 0 345 -92q28 -17 38 -17q18 0 26.5 9t31.5 53q12 24 28 24q19 0 22.5 -21t6.5 -149q1 -32 4 -64t5.5 -51t8 -54t7.5 -52q2 -6 2 -20q0 -31 -25 -31q-22 0 -35 39q-22 63 -65 132 t-88 113q-131 134 -312 134q-190 0 -314 -148.5t-144 -400.5h702l-33 -78h-671q0 -47 2 -78h637l-33 -78h-594q41 -224 185 -364t333 -140q136 0 239.5 70.5t196.5 224.5q11 25 29 25q5 0 10 -2t8.5 -6t6 -8.5t2.5 -8.5q0 -19 -43 -84q-101 -156 -229 -228.5t-302 -72.5 q-170 0 -312.5 74t-236.5 209t-123 311h-127z" />
<glyph unicode="&#x2122;" horiz-adv-x="2117" d="M18 1163q0 11 2 17q23 102 23 184q31 4 78 4l321 -6l312 4q42 0 73 -2q0 -68 23 -180q4 -10 4 -17q0 -9 -7 -15.5t-16 -6.5q-16 0 -28 26q-71 154 -299 148v-447q0 -82 2.5 -127.5t8.5 -80.5t20.5 -49.5t33 -21t52.5 -9.5q30 -3 30 -19q0 -18 -35 -18l-176 4 q-108 0 -190 -4h-8q-9 0 -16 5t-7 11q0 11 8 14.5t41 6.5q47 6 66.5 28t27 77t7.5 183v447q-18 2 -45 2q-85 0 -152 -37q-43 -22 -64.5 -45t-44.5 -74q-8 -22 -24 -22q-21 0 -21 20zM915 1352q0 8 7.5 13t17.5 5q19 0 56.5 -3t56.5 -3l108 4q12 0 18.5 -6.5t18.5 -28.5 q4 -9 59 -108q45 -76 93 -172l149 -299q235 442 268 526q23 62 33 75t35 13l57 -2l70 -2q80 6 84 6q25 0 25 -18q0 -19 -25 -19q-24 -2 -38 -5t-26 -15t-17.5 -27t-9 -49t-4.5 -72t-1 -104v-209q0 -80 2 -122t6.5 -76t16 -47t27 -19.5t44.5 -7.5q25 0 25 -19q0 -18 -27 -18 q-2 0 -35.5 2t-72 4t-52.5 2q-59 0 -149 -8h-11q-24 0 -24 18q0 19 24 19q16 1 26.5 3t21 5.5t17 11t12.5 16.5t9 25t5.5 34t3.5 46t1.5 58t0.5 73v401q-69 -121 -182.5 -341t-127.5 -259l-26 -67q-4 -12 -8.5 -16.5t-12.5 -4.5q-9 0 -20 19l-225 438q-43 87 -132 221v-391 q0 -49 0.5 -81t2.5 -62.5t4.5 -48t8 -33.5t12 -23.5t17.5 -13.5t22.5 -7.5t29.5 -2.5q24 0 24 -19q0 -18 -26 -18q-5 0 -68 6l-51 2q-27 0 -111 -8h-10q-24 0 -24 18q0 19 24 19q24 2 38 5t26 15t17.5 27t9 49t4.5 72t1 104v440q-47 41 -98 41q-25 3 -25 19z" />
<glyph unicode="&#xe000;" horiz-adv-x="890" d="M0 0v891h891v-891h-891z" />
</font>
</defs>
</svg>
