<?xml version="1.0" standalone="no"?>
<!DOCTYPE svg PUBLIC "-//W3C//DTD SVG 1.1//EN" "http://www.w3.org/Graphics/SVG/1.1/DTD/svg11.dtd" >
<svg xmlns="http://www.w3.org/2000/svg">
<metadata></metadata>
<defs>
<font id="bellitalic" horiz-adv-x="1024" >
<font-face units-per-em="2048" ascent="1419" descent="-629" />
<missing-glyph horiz-adv-x="614" />
<glyph unicode="&#xfb01;" horiz-adv-x="1169" d="M-483 -389q0 43 27 71.5t67 28.5q50 0 72 -39q14 -18 16 -80q3 -112 88 -112q95 0 169.5 125t152.5 418l208 776h-208l16 61h209l14 55q134 508 418 508q83 0 137.5 -33t54.5 -83q0 -29 -17.5 -49.5t-43.5 -20.5q-30 0 -55 29q-16 18 -22 31.5t-19 60.5q-9 33 -45 33 q-78 0 -130.5 -94t-121.5 -357l-23 -80h178l-16 -61h-178l-164 -617q-108 -400 -223 -557q-69 -92 -153.5 -142t-172.5 -50q-95 0 -165 53.5t-70 124.5zM692 66q0 33 25 102l174 520q14 47 14 68q0 15 -10 28t-23 13q-23 0 -49 -19t-75 -73q-14 -17 -25 -17q-7 0 -12.5 5.5 t-5.5 13.5q0 16 43 59q117 117 219 117q47 0 72.5 -21t25.5 -61q0 -27 -16 -80l-181 -531q-26 -74 -26 -104q0 -33 26 -33q52 0 174 119q12 12 21 12q8 0 14 -5.5t6 -12.5q0 -21 -59 -72q-131 -114 -227 -114q-46 0 -75.5 24.5t-29.5 61.5zM985 1221q0 37 28 64.5t66 27.5 q40 0 70.5 -29t30.5 -67q0 -40 -28.5 -69.5t-66.5 -29.5q-40 0 -70 31t-30 72z" />
<glyph unicode="&#xfb02;" horiz-adv-x="1095" d="M-483 -389q0 43 27 71.5t67 28.5q50 0 72 -39q14 -18 16 -80q3 -112 88 -112q95 0 169.5 125.5t152.5 419.5l208 774h-208l16 61h209l14 55q134 508 418 508q42 0 86 -12q13 8 22 8h7q20 -2 41 -2h108l27 -2q16 -2 92 4l-301 -1120q-31 -121 -31 -174q0 -21 8.5 -34 t22.5 -13q50 0 201 209q14 20 28 20q8 0 13.5 -5.5t5.5 -12.5q0 -28 -82 -129q-79 -97 -136 -140t-104 -43q-44 0 -71 38t-27 98q0 74 39 221l227 848q25 92 25 116q0 50 -39 74q30 -30 30 -65q0 -29 -17.5 -49.5t-43.5 -20.5q-30 0 -55 29q-16 18 -22 31.5t-19 60.5 q-9 33 -45 33q-78 0 -130.5 -93.5t-121.5 -357.5l-23 -80h178l-16 -61h-178l-164 -615q-108 -401 -223 -559q-69 -92 -153.5 -142t-172.5 -50q-95 0 -165 53.5t-70 124.5z" />
<glyph unicode="&#xfb03;" horiz-adv-x="1771" d="M-483 -389q0 43 27 71.5t67 28.5q50 0 72 -39q14 -18 16 -80q3 -112 88 -112q95 0 169.5 125t152.5 418l208 776h-208l16 61h209l14 55q134 508 418 508q83 0 137.5 -33t54.5 -83q0 -29 -17.5 -49.5t-43.5 -20.5q-30 0 -55 29q-16 18 -22 31.5t-19 60.5q-9 33 -45 33 q-78 0 -130.5 -94t-121.5 -357l-23 -80h178l-16 -61h-178l-164 -617q-108 -400 -223 -557q-69 -92 -153.5 -142t-172.5 -50q-95 0 -165 53.5t-70 124.5zM119 -389q0 43 27 71.5t67 28.5q49 0 74 -39q12 -19 14 -80q6 -112 88 -112q95 0 169.5 125.5t154.5 417.5l207 776 h-209l16 61h209l14 55q134 508 420 508q82 0 136.5 -33t54.5 -83q0 -29 -18 -49.5t-44 -20.5q-30 0 -55 29q-16 18 -22 31.5t-19 60.5q-9 33 -45 33q-52 0 -90.5 -41t-76 -136t-85.5 -274l-21 -80h177l-17 -61h-176l-166 -617q-110 -406 -223 -557q-67 -92 -152.5 -142 t-173.5 -50q-95 0 -165 53.5t-70 124.5zM1296 66q0 34 23 102l174 520q12 34 16 68q2 15 -8.5 28t-23.5 13q-23 0 -49.5 -19t-77.5 -73q-14 -17 -25 -17q-7 0 -12.5 5.5t-5.5 13.5q0 16 43 59q120 117 221 117q47 0 72.5 -21t25.5 -61q0 -21 -18 -80l-181 -531 q-24 -67 -24 -104q0 -15 7.5 -24t19.5 -9q52 0 174 119q12 12 20 12t14.5 -5.5t6.5 -12.5q0 -20 -60 -72q-131 -114 -227 -114q-46 0 -75.5 24.5t-29.5 61.5zM1587 1221q0 37 28 64.5t66 27.5q40 0 70.5 -29t30.5 -67q0 -40 -28 -69.5t-66 -29.5q-40 0 -70.5 31t-30.5 72z " />
<glyph unicode="&#xfb04;" horiz-adv-x="1699" d="M-483 -389q0 43 27 71.5t67 28.5q50 0 72 -39q14 -18 16 -80q3 -112 88 -112q95 0 169.5 125t152.5 418l208 776h-208l16 61h209l14 55q134 508 418 508q83 0 137.5 -33t54.5 -83q0 -29 -17.5 -49.5t-43.5 -20.5q-30 0 -55 29q-16 18 -22 31.5t-19 60.5q-9 33 -45 33 q-78 0 -130.5 -94t-121.5 -357l-23 -80h178l-16 -61h-178l-164 -617q-108 -400 -223 -557q-69 -92 -153.5 -142t-172.5 -50q-95 0 -165 53.5t-70 124.5zM119 -389q0 43 27 71.5t67 28.5q49 0 74 -39q12 -19 14 -80q6 -112 88 -112q95 0 170 125.5t154 419.5l207 774h-209 l16 61h209l14 55q68 257 171.5 382.5t248.5 125.5q42 0 84 -12q13 8 23 8h8q18 -2 39 -2h108l27 -2q17 -2 92 4l-299 -1120q-33 -125 -33 -174q0 -21 8.5 -34t22.5 -13q50 0 201 209q14 20 28 20q8 0 13.5 -5.5t5.5 -12.5q0 -28 -82 -129q-79 -97 -136 -140t-104 -43 q-44 0 -71 38t-27 98q0 69 41 221l227 848q25 98 25 116q0 28 -9 44.5t-32 29.5q18 -20 24.5 -33t6.5 -32q0 -29 -18 -49.5t-44 -20.5q-30 0 -55 29q-16 18 -22 31.5t-19 60.5q-9 33 -45 33q-78 0 -129.5 -93t-122.5 -358l-21 -80h177l-17 -61h-176l-166 -615 q-110 -408 -223 -559q-67 -92 -152.5 -142t-173.5 -50q-95 0 -165 53.5t-70 124.5z" />
<glyph horiz-adv-x="2048" />
<glyph horiz-adv-x="2048" />
<glyph unicode="&#xd;" horiz-adv-x="2048" />
<glyph unicode=" "  horiz-adv-x="614" />
<glyph unicode="&#x09;" horiz-adv-x="614" />
<glyph unicode="&#xa0;" horiz-adv-x="614" />
<glyph unicode="!" horiz-adv-x="487" d="M61 76q0 35 27 61.5t62 26.5q39 0 67.5 -27.5t28.5 -64.5t-26.5 -64.5t-63.5 -27.5t-66 29t-29 67zM186 291q0 8 2 12l164 889q36 201 123 201q34 0 54 -26.5t20 -70.5q0 -58 -29 -147l-291 -860q-7 -23 -22 -23q-9 0 -15 7t-6 18z" />
<glyph unicode="&#x22;" horiz-adv-x="669" d="M250 817l106 549h152l-191 -549h-67zM551 817l106 549h150l-189 -549h-67z" />
<glyph unicode="#" horiz-adv-x="1212" d="M104 469l31 70h246l139 315h-239l28 70h246l203 442h76l-203 -442h317l203 442h76l-203 -442h229l-30 -70h-234l-139 -315h229l-30 -70h-234l-215 -469h-76l215 469h-317l-217 -469h-74l215 469h-242zM457 539h317l139 315h-317z" />
<glyph unicode="$" horiz-adv-x="1054" d="M29 59l92 342h35q-11 -67 -11 -114q0 -229 244 -250l156 581q-93 55 -170 121q-57 47 -81 95t-24 112q0 101 55 197t146 151q115 68 274 76l41 154h54l-41 -154q78 -3 161 -26.5t146 -59.5l-84 -315h-35q6 55 6 88q0 117 -50 179.5t-159 82.5l-143 -541 q154 -85 216.5 -161t62.5 -177q0 -90 -48 -180.5t-129 -157.5q-127 -101 -315 -118l-43 -160h-53l43 160q-99 4 -169.5 19.5t-176.5 55.5zM406 1053q0 -63 30 -106.5t117 -106.5l43 -33l137 514q-153 -9 -240 -80.5t-87 -187.5zM442 37q148 27 234 102q42 36 68 93.5 t26 113.5q0 69 -34.5 115.5t-145.5 128.5z" />
<glyph unicode="%" horiz-adv-x="1480" d="M123 666q0 148 91 266.5t206 118.5q97 0 157 -79t60 -206q0 -156 -88.5 -270.5t-208.5 -114.5q-97 0 -157 79.5t-60 205.5zM223 596q0 -180 107 -180q48 0 83 38t70 128q58 152 58 262q0 80 -30.5 126t-82.5 46q-44 0 -84 -46.5t-65.5 -113.5t-40.5 -137t-15 -123zM356 0 l731 1038h84l-731 -1038h-84zM885 270q0 150 91 268.5t206 118.5q97 0 157 -78.5t60 -205.5q0 -157 -89 -272t-210 -115q-95 0 -155 79t-60 205zM985 203q0 -183 107 -183q48 0 83 38t70 128q58 152 58 265q0 78 -30.5 125t-82.5 47q-82 0 -143 -146q-62 -140 -62 -274z" />
<glyph unicode="&#x26;" horiz-adv-x="1583" d="M117 537q0 114 75 218t179 136q-68 136 -68 227q0 110 76.5 188t185.5 78t183 -92q47 -60 47 -106q0 -25 -17 -25q-7 0 -10.5 5t-19.5 36q-19 37 -65.5 60.5t-102.5 23.5q-97 0 -154 -65t-57 -174q0 -72 32 -146q14 2 33 2q75 0 135 -41t60 -92q0 -23 -20 -40t-48 -17 q-46 0 -92 38.5t-80 104.5q-74 -26 -117 -92t-43 -154q0 -96 50.5 -189t134.5 -151q171 -118 444 -118q255 0 403 105.5t148 287.5q0 140 -95 236t-233 96q-109 0 -181.5 -60t-72.5 -151q0 -57 31 -103.5t68 -46.5q15 0 27 11t12 26q0 1 -7 22q-6 21 -6 41q0 32 26.5 57 t61.5 25q46 0 81.5 -36.5t35.5 -83.5q0 -56 -44.5 -95t-108.5 -39q-90 0 -153 71t-63 173q0 135 97 209t274 74q33 0 122 -7.5t103 -7.5q104 0 179 65.5t75 156.5q0 72 -49.5 128t-113.5 56q-18 0 -31.5 -8t-13.5 -19q0 -1 6 -16q10 -20 10 -43q0 -38 -21 -62t-53 -24 q-35 0 -60.5 28t-25.5 66q0 52 43 85.5t109 33.5q112 0 191 -84t79 -203q0 -129 -93 -213t-235 -84q-24 0 -47 2q67 -76 96 -155t29 -185q0 -144 -80 -260t-221.5 -182t-316.5 -66q-145 0 -283 45t-242 127q-91 70 -144.5 176.5t-53.5 215.5z" />
<glyph unicode="'" horiz-adv-x="385" d="M256 817l106 549h154l-188 -549h-72z" />
<glyph unicode="(" horiz-adv-x="870" d="M59 217q0 402 229.5 725t624.5 477h187q-200 -95 -325.5 -172.5t-221.5 -167.5q-186 -173 -283.5 -397.5t-97.5 -480.5q0 -191 59.5 -377.5t165.5 -329.5h-80q-258 276 -258 723z" />
<glyph unicode=")" horiz-adv-x="870" d="M-215 -506q200 94 325.5 172t221.5 168q186 173 283.5 398t97.5 481q0 191 -60 377t-166 329h80q125 -131 191.5 -317.5t66.5 -405.5q0 -403 -229 -725t-625 -477h-186z" />
<glyph unicode="*" horiz-adv-x="950" d="M283 1167q0 34 19.5 59t45.5 25q19 0 41 -12.5t60 -44.5q124 -102 149 -102q9 0 12.5 5t3.5 17l-1 16.5t-2.5 42.5t-3 55t-2.5 60.5t-1 54.5q0 41 15.5 59.5t50.5 18.5q34 0 54.5 -16.5t20.5 -44.5q0 -26 -26 -92q-55 -149 -55 -174q0 -13 12 -13q14 0 79 24.5t97 41.5 q57 29 82 29q30 0 48.5 -22t18.5 -58q0 -31 -23 -48.5t-65 -17.5q-29 0 -93 3t-66 3q-27 0 -41 -0.5t-22.5 -2.5t-10.5 -4.5t-2 -8.5q0 -11 35 -55.5t84 -94.5q32 -34 44.5 -55.5t12.5 -44.5q0 -16 -11 -31t-28.5 -24.5t-36.5 -9.5q-33 0 -55 28q-9 12 -15 29.5t-31 99.5 q-9 32 -15 51q-24 84 -41 84q-5 0 -16.5 -12t-26 -32.5t-32 -49.5t-34.5 -61q-28 -51 -47.5 -70.5t-42.5 -19.5q-28 0 -53 24t-25 53q0 43 78 91q49 30 145 98q13 8 13 16q0 3 -3 8.5t-6 6.5q-9 4 -67 17t-103 21q-64 10 -91 28.5t-27 51.5z" />
<glyph unicode="+" d="M102 655v84h420v394h88v-394h420v-84h-420v-395h-88v395h-420z" />
<glyph unicode="," horiz-adv-x="419" d="M-104 -231q0 13 20 16q80 17 137.5 65.5t57.5 100.5q0 12 -6 18.5t-23 12.5q-32 11 -52 36t-20 56q0 40 26.5 65t69.5 25q51 0 86.5 -42t32.5 -99q-3 -71 -52 -135t-128 -101q-69 -37 -127 -37q-22 0 -22 19z" />
<glyph unicode="-" horiz-adv-x="350" d="M-10 395l24 97h353l-27 -97h-350z" />
<glyph unicode="." horiz-adv-x="419" d="M35 76q0 35 26.5 61.5t61.5 26.5q39 0 67.5 -27.5t28.5 -64.5t-26.5 -64.5t-63.5 -27.5t-65.5 29t-28.5 67z" />
<glyph unicode="/" horiz-adv-x="778" d="M-311 -506l1153 1925h96l-1155 -1925h-94z" />
<glyph unicode="0" horiz-adv-x="944" d="M78 432q0 80 22 166.5t65 166.5t100 144.5t133.5 103t158.5 38.5q152 0 247 -124.5t95 -324.5q0 -169 -64.5 -314t-174.5 -230t-238 -85q-149 0 -246.5 130t-97.5 329zM227 311q0 -146 46.5 -223.5t134.5 -77.5q80 0 138.5 60.5t115.5 201.5q102 244 102 451 q0 132 -52 211.5t-139 79.5q-125 0 -223 -189q-55 -107 -89 -249.5t-34 -264.5z" />
<glyph unicode="1" horiz-adv-x="944" d="M176 10q0 18 27 21q79 12 112 57t64 182l145 539q13 54 13 80q0 41 -25.5 61t-91.5 27q-23 3 -23 16q0 11 11 14.5t53 4.5q137 6 215 35q21 6 29 6q22 0 22 -19q0 -6 -6 -24l-197 -740q-28 -98 -32.5 -116t-4.5 -37q0 -31 28.5 -54.5t74.5 -31.5q14 -1 18 -4t4 -9 q0 -22 -32 -22q-26 0 -93.5 3t-89.5 3q-63 0 -192 -6h-8q-21 0 -21 14z" />
<glyph unicode="2" horiz-adv-x="944" d="M-57 16q0 14 22 25q68 31 258 159t260 191q275 239 275 453q0 76 -50 125t-128 49q-79 0 -161 -51.5t-135 -131t-53 -155.5q0 -46 31 -75.5t78 -29.5q46 0 77 20t89 89q10 10 18 10q11 0 11 -12q0 -21 -48 -72q-82 -88 -194 -88q-72 0 -119 47t-47 119q0 92 67 176.5 t178 135.5t232 51q132 0 215.5 -72t83.5 -186q0 -132 -107.5 -249t-377.5 -278q-185 -108 -232 -141h275q122 0 205 27q21 7 34.5 18.5t32.5 38.5l17 22q11 17 13.5 20t10.5 3q17 0 17 -14q0 -9 -13 -31l-98 -158q-25 -38 -35.5 -44.5t-48.5 -6.5h-637q-16 0 -16 16z" />
<glyph unicode="3" horiz-adv-x="944" d="M12 258q0 37 29.5 64.5t67.5 27.5q31 0 51 -17t20 -42q0 -23 -22 -76q-17 -44 -17 -65q0 -54 58.5 -95t136.5 -41q148 0 256 148q88 122 88 241q0 52 -31.5 90.5t-73.5 38.5q-37 0 -102 -24q-58 -21 -76 -21q-14 0 -14 15q0 11 10.5 16.5t63.5 22.5q175 56 254.5 127.5 t79.5 175.5q0 78 -48 127t-125 49q-91 0 -164 -73t-73 -165q0 -28 18.5 -47.5t44.5 -19.5q25 0 62 17.5t63 41.5q9 12 19 12q4 0 8 -4.5t4 -9.5q0 -14 -39 -45q-83 -65 -162 -65q-55 0 -93 39t-38 96q0 109 97.5 182.5t242.5 73.5q136 0 224 -65t88 -165q0 -64 -38 -116.5 t-106 -85.5q-56 -25 -170 -60q77 -15 123 -47q42 -31 66 -78.5t24 -99.5q0 -155 -125 -259t-311 -104q-172 0 -270 88q-47 41 -74 93.5t-27 103.5z" />
<glyph unicode="4" horiz-adv-x="944" d="M39 430q0 8 2.5 12t17.5 17l629 592h117l-158 -592h27q98 0 144 26.5t77 100.5q11 22 23 22q5 0 9.5 -4t4.5 -10q-18 -65 -49.5 -186.5t-40.5 -153.5q-5 -14 -8.5 -18.5t-10.5 -4.5q-17 0 -14 31q3 69 -35.5 106.5t-111.5 37.5h-29l-37 -136q-26 -98 -30.5 -117t-4.5 -34 q0 -25 14 -44t41 -30t66 -14q13 -1 18 -4t5 -9q0 -22 -35 -22l-181 6h-65q-36 0 -156 -6h-8q-20 0 -20 14q0 12 7 16.5t40 8.5q53 14 79.5 35t45 64t39.5 136l36 136h-391q-34 0 -45.5 4.5t-11.5 19.5zM127 459h375l139 483z" />
<glyph unicode="5" horiz-adv-x="944" d="M20 236q0 47 26.5 78.5t66.5 31.5q31 0 54 -21t23 -49q0 -12 -24 -69q-14 -32 -14 -64q0 -54 52.5 -92.5t125.5 -38.5q78 0 152.5 49t129.5 138q93 145 93 282q0 77 -49.5 125.5t-127.5 48.5q-90 0 -176 -69q-58 -50 -78 -82q-18 -29 -32 -29q-9 0 -15 6.5t-6 14.5 q0 5 10 28q124 255 234 506q9 27 22 27q7 0 31 -8q36 -17 98.5 -28t118.5 -11q60 0 108.5 21.5t114.5 76.5q22 22 39 22q8 0 14.5 -6.5t6.5 -13.5q0 -34 -62 -100q-110 -113 -299 -113q-96 0 -188 35q-28 -71 -141 -309q99 69 207 69q129 0 218 -87.5t89 -213.5 q0 -84 -37 -161t-99.5 -133.5t-147.5 -90t-177 -33.5q-146 0 -253.5 78.5t-107.5 184.5z" />
<glyph unicode="6" horiz-adv-x="944" d="M78 373q0 131 51.5 257t136 219t199.5 149.5t235 56.5q138 0 229 -66t91 -166q0 -41 -23 -68.5t-57 -27.5q-29 0 -50.5 21.5t-21.5 50.5q0 8 8.5 50t8.5 58q0 49 -44.5 80t-115.5 31q-134 0 -251.5 -113.5t-178.5 -302.5q105 64 205 64q154 0 260 -98.5t106 -239.5 q0 -148 -115.5 -251.5t-281.5 -103.5q-169 0 -280 114t-111 286zM199 276q0 -120 59.5 -192t159.5 -72q119 0 203 103q44 52 69 121.5t25 138.5q0 110 -65.5 181t-166.5 71q-118 0 -201 -102.5t-83 -248.5z" />
<glyph unicode="7" horiz-adv-x="944" d="M180 825q0 5 8 21l154 258q11 16 20 16q8 0 11 -6.5t6 -32.5t31 -36.5t96 -10.5h465q33 0 33 -22q0 -10 -15 -25q-211 -219 -314 -383t-179 -405q-35 -114 -47.5 -143.5t-34.5 -51.5q-29 -33 -64 -33q-30 0 -49.5 23t-19.5 59q0 127 206 406q92 125 365 442h-416 q-82 0 -123 -14q-22 -7 -52 -27t-44 -35q-14 -14 -22 -14q-5 0 -10 4t-5 10z" />
<glyph unicode="8" horiz-adv-x="944" d="M63 281q0 195 314 256q-81 66 -118.5 124.5t-37.5 120.5q0 112 98 190.5t238 78.5q146 0 251 -86.5t105 -206.5q0 -88 -72 -150t-198 -82q168 -129 168 -274q0 -117 -102 -198t-250 -81q-163 0 -279.5 90.5t-116.5 217.5zM166 256q0 -104 77 -175t191 -71q103 0 167.5 54 t64.5 141q0 55 -32 105t-102 108q-81 66 -104 86q-89 -22 -141 -49q-54 -29 -87.5 -84t-33.5 -115zM362 846q0 -73 74 -150q29 -29 49 -45.5t109 -85.5q1 0 14 -10q112 41 164.5 101t52.5 147q0 92 -72 151.5t-184 59.5q-91 0 -149 -47t-58 -121z" />
<glyph unicode="9" horiz-adv-x="944" d="M-33 201q0 41 23 68.5t57 27.5q30 0 51 -21t21 -51q0 -8 -8.5 -50.5t-8.5 -57.5q0 -49 44.5 -80t115.5 -31q134 0 252 114.5t176 301.5q-55 -35 -101.5 -49.5t-103.5 -14.5q-152 0 -258 98.5t-106 239.5q0 148 115.5 251.5t281.5 103.5q169 0 280 -113.5t111 -286.5 q0 -131 -51.5 -257t-136 -219t-199.5 -149.5t-235 -56.5q-138 0 -229 66t-91 166zM272 649q0 -110 65.5 -181t166.5 -71q77 0 142.5 47t103.5 128t38 176q0 120 -59.5 192t-159.5 72q-62 0 -110 -24.5t-92 -78.5q-45 -55 -70 -122.5t-25 -137.5z" />
<glyph unicode=":" horiz-adv-x="419" d="M35 76q0 35 26.5 61.5t61.5 26.5q39 0 67.5 -27.5t28.5 -64.5t-26.5 -64.5t-63.5 -27.5t-65.5 29t-28.5 67zM217 758q0 35 26.5 61.5t61.5 26.5q39 0 67.5 -27.5t28.5 -64.5t-26.5 -64.5t-63.5 -27.5t-65.5 29t-28.5 67z" />
<glyph unicode=";" horiz-adv-x="419" d="M-104 -231q0 13 20 16q80 17 137.5 65.5t57.5 100.5q0 12 -6 18.5t-23 12.5q-32 11 -52 36t-20 56q0 40 26.5 65t69.5 25q51 0 86.5 -42t32.5 -99q-3 -71 -52 -135t-128 -101q-69 -37 -127 -37q-22 0 -22 19zM193 758q0 35 26.5 61.5t61.5 26.5q39 0 67.5 -27.5 t28.5 -64.5t-26.5 -64.5t-63.5 -27.5t-65.5 29t-28.5 67z" />
<glyph unicode="&#x3c;" d="M143 694v15l848 544v-75l-645 -420l645 -430v-199z" />
<glyph unicode="=" d="M102 512v82h928v-82h-928zM102 799v82h928v-82h-928z" />
<glyph unicode="&#x3e;" d="M143 129v76l645 420l-645 430v198l848 -565v-14z" />
<glyph unicode="?" horiz-adv-x="782" d="M166 502q0 119 110 209q7 6 12.5 10t11.5 8.5t16.5 10.5t20.5 11t31 16.5t40 21.5t56.5 29.5t72.5 37.5q159 85 221.5 147.5t62.5 137.5q0 92 -73 153.5t-183 61.5q-97 0 -161 -55t-64 -138q0 -55 32 -90t83 -35q41 0 41 29q0 12 -7.5 18t-27.5 9q-58 13 -58 67 q0 38 27 64t66 26q54 0 90.5 -39t36.5 -96q0 -58 -49.5 -99.5t-118.5 -41.5q-71 0 -121.5 50.5t-50.5 121.5q0 101 83.5 173.5t200.5 72.5q139 0 232.5 -84.5t93.5 -210.5q0 -83 -41 -160.5t-115 -134.5q-67 -53 -113 -77t-253 -118q-148 -66 -148 -141q0 -40 54 -73.5 t120 -33.5q54 0 127 33l13 2q20 0 20 -41q0 -27 -16 -35q-25 -15 -69.5 -25.5t-84.5 -10.5q-92 0 -156.5 63.5t-64.5 155.5zM203 76q0 35 26.5 61.5t61.5 26.5q39 0 67.5 -27.5t28.5 -64.5t-26.5 -64.5t-63.5 -27.5t-65.5 29t-28.5 67z" />
<glyph unicode="@" horiz-adv-x="1583" d="M154 641q0 184 94 357t250 276q192 127 446 127q268 0 432 -149t164 -394q0 -144 -59 -278t-156 -215.5t-201 -81.5q-59 0 -95 49.5t-36 128.5v28q-134 -210 -284 -210q-83 0 -133 70.5t-50 187.5q0 126 59 251.5t151 205t184 79.5q112 0 182 -112l14 90q54 3 101 14 l-115 -477q-21 -90 -21 -144q0 -47 19.5 -72.5t54.5 -25.5q87 0 178 111q66 78 103 181t37 210q0 219 -144.5 355t-376.5 136q-153 0 -290.5 -58.5t-231.5 -162.5q-78 -90 -134 -237.5t-56 -268.5q0 -120 59 -243t156 -205q77 -62 173 -96.5t195 -34.5q166 0 310 86 q47 29 141 96l51 -25q-149 -123 -265 -172t-255 -49q-133 0 -254 52.5t-208 142.5t-138 214.5t-51 262.5zM627 496q0 -71 31.5 -114.5t82.5 -43.5q52 0 102.5 40t87.5 99.5t62 124t33 117.5q1 9 2.5 18t2.5 14t1 7l31 98q4 12 4 18q0 66 -34 107t-89 41q-116 0 -213 -172 q-104 -181 -104 -354z" />
<glyph unicode="A" horiz-adv-x="1363" d="M-162 12q0 10 9.5 15.5t66.5 25.5q79 32 145.5 84.5t157.5 153.5q122 132 125 135l889 946h160l-287 -946q-68 -223 -68 -281q0 -55 37 -79.5t131 -32.5q21 -3 21 -15q0 -22 -29 -22l-53 2q-69 6 -289 6q-104 0 -219 -8h-21q-28 0 -28 18q0 20 35 23q44 4 71 10t54 23.5 t43.5 39.5t37.5 69.5t39 101.5t45 145l52 174h-383l-170 -186q-112 -126 -150.5 -183t-38.5 -98q0 -40 45 -68t117 -32q27 -3 27 -19q0 -10 -7.5 -14t-27.5 -4h-31q-185 8 -256 8q-76 0 -158 -4q-50 -4 -61 -4q-31 0 -31 16zM629 649h352l176 570z" />
<glyph unicode="B" horiz-adv-x="1327" d="M-51 10q0 12 8.5 16.5t32.5 6.5q48 6 78 17.5t55.5 33.5t46.5 69.5t40 108.5t46 166l135 510q55 205 55 260q0 83 -59 113q-21 11 -38 14.5t-75 7.5q-16 0 -16 13q0 14 8 19t29 5q6 0 97 -3t128 -3t187.5 3t205.5 3q183 0 285 -70t102 -196q0 -147 -113.5 -245.5 t-316.5 -127.5q130 -19 209 -69q82 -53 126 -124.5t44 -154.5q0 -107 -68 -199t-182 -139q-112 -49 -378 -49q-33 0 -410 8q-7 0 -104.5 -4t-137.5 -4q-20 0 -20 14zM389 162q0 -127 201 -127q125 0 224 46.5t153.5 130t54.5 189.5q0 145 -102.5 228.5t-280.5 83.5 q-54 0 -113 -4l-110 -412q-27 -105 -27 -135zM541 760q47 -4 100 -4q141 0 222.5 21.5t135.5 72.5q31 31 55 72.5t37 88.5t13 93q0 114 -60.5 171.5t-179.5 57.5q-144 0 -172 -47q-9 -15 -17.5 -41.5t-49.5 -171.5z" />
<glyph unicode="C" horiz-adv-x="1200" d="M135 481q0 132 42 267t116 249t167.5 204t204.5 141t220 51q138 0 260 -103q35 -33 55 -33q35 0 90 76q17 25 31 25q18 0 18 -21q0 -9 -6 -24q-22 -70 -39 -137t-37.5 -156t-29.5 -125q-8 -35 -25 -35q-21 0 -18 35q1 11 1 24q1 47 -11 115q-14 88 -35 135 q-38 86 -95 132.5t-126 46.5q-112 0 -224 -95t-198 -264q-62 -122 -96.5 -258t-34.5 -260q0 -195 78 -316.5t204 -121.5q95 0 210.5 77.5t203.5 200.5q26 38 31.5 44.5t13.5 6.5q6 0 11 -5t5 -11q0 -14 -32.5 -61.5t-71.5 -89.5q-100 -107 -215.5 -165.5t-227.5 -58.5 q-196 0 -318 141.5t-122 368.5z" />
<glyph unicode="D" horiz-adv-x="1482" d="M-51 10q0 12 8.5 16t32.5 7q48 6 78 17.5t55.5 33.5t46.5 69.5t40 108.5t46 166l135 510q55 205 55 260q0 85 -59 115q-31 14 -113 20q-16 3 -16 13q0 24 25 24q16 0 24 -2q86 -6 185 -6q40 0 339 8h22q267 0 430 -161q169 -168 169 -457q0 -178 -71.5 -336.5 t-200.5 -265.5q-101 -85 -211 -119.5t-279 -34.5q-48 0 -210 4t-197 4q-154 0 -310 -8h-4q-20 0 -20 14zM387 139q0 -98 186 -98q324 0 514 276q71 105 109.5 229.5t38.5 250.5q0 241 -123 383.5t-330 142.5q-65 0 -82 -35q-15 -28 -31.5 -81t-99.5 -343l-106 -399 q-57 -220 -66.5 -260.5t-9.5 -65.5z" />
<glyph unicode="E" horiz-adv-x="1308" d="M-51 10q0 12 8.5 16.5t32.5 6.5q79 9 120 41t72 107.5t74 246.5l135 510q55 200 55 260q0 85 -59 115q-31 14 -113 20q-16 0 -16 13q0 14 7.5 19t27.5 5h14q208 -4 236 -4h768l12 -266v-25q0 -28 -14 -28q-13 0 -19 20q-37 105 -100 170q-54 57 -120 76.5t-200 19.5 q-146 0 -174 -28q-11 -11 -28 -74l-131 -490q25 -2 57 -2q111 0 174 33.5t109 116.5q18 31 25 40t16 9q16 0 16 -14q0 -5 -4 -25l-117 -438q-7 -28 -11.5 -34.5t-15.5 -6.5q-8 0 -13 7t-5 17l2 29q4 36 4 51q0 97 -51 142q-23 18 -56 25t-94 7q-26 0 -49 -2l-67 -250 q-39 -151 -49.5 -199t-10.5 -87q0 -71 48 -100t163 -29q148 0 275.5 39.5t206.5 111.5q57 50 129 170q9 15 16 15q14 0 14 -17q0 -51 -104 -350h-649l-523 -4h-4q-20 0 -20 14z" />
<glyph unicode="F" horiz-adv-x="1179" d="M-51 10q0 12 8.5 16.5t32.5 6.5q79 9 120 41t72 107.5t74 246.5l137 512q53 197 53 262q0 84 -59 111q-21 11 -38 14.5t-75 7.5q-16 0 -16 11q0 26 31 26h8q141 -6 539 -6h469l-9 -322q-2 -29 -5 -37t-13 -8q-6 0 -10 10t-17 62q-19 71 -48.5 127t-63.5 84 q-32 28 -84 38.5t-152 10.5q-99 0 -142.5 -5t-62.5 -19q-12 -9 -18 -24t-25 -81l-120 -452q72 0 117 2t86.5 10.5t65.5 20t48.5 35.5t42 53t39.5 75q14 29 27 29q12 0 12 -12q0 -5 -4 -17l-138 -514q-5 -22 -18 -22q-14 0 -14 20v10q8 55 8 80q0 47 -13.5 89.5t-35.5 64.5 q-47 41 -180 41q-31 0 -54 -2l-75 -285q-34 -129 -45 -181t-11 -87q0 -68 34.5 -95.5t125.5 -31.5q16 0 16 -13q0 -24 -32 -24q-28 0 -126.5 4t-125.5 4q-23 0 -211 -6l-105 -2q-20 0 -20 14z" />
<glyph unicode="G" horiz-adv-x="1445" d="M133 532q0 160 72.5 319.5t189.5 279t272 194t312 74.5q88 0 169 -26t132 -70q41 -35 53 -43.5t21 -8.5q19 0 37 21.5t69 103.5q10 17 19 17q12 0 12 -15q0 -14 -21 -86q-8 -26 -32 -127t-33 -145q-15 -76 -21 -92.5t-18 -16.5q-22 0 -25 41q-6 72 -38 159t-70 134 q-87 113 -244 113q-114 0 -229.5 -73.5t-203 -190t-143 -270.5t-55.5 -306q0 -98 24.5 -187t70.5 -160t120 -113t166 -42q99 0 172 45q47 28 74 129l6 25q53 196 53 258q0 83 -61 113q-28 13 -45.5 16.5t-85.5 7.5q-16 0 -16 15q0 12 7 17t27 5q5 0 314 -8h23q68 0 239 8h6 q18 0 18 -16q0 -11 -7 -15.5t-29 -5.5q-48 -6 -77.5 -17.5t-54.5 -34t-43 -69t-33.5 -108t-35.5 -166.5l-21 -100q-141 -82 -241.5 -113t-220.5 -31q-255 0 -414.5 155.5t-159.5 405.5z" />
<glyph unicode="H" horiz-adv-x="1638" d="M-51 10q0 20 41 23q48 6 78 17.5t55.5 33.5t46.5 69.5t40 108.5t46 166l135 510q55 200 55 260q0 83 -59 113q-21 11 -38 14.5t-75 7.5q-16 0 -16 13q0 14 7.5 19t27.5 5q38 0 148 -4t137 -4q116 0 294 8h7q16 0 16 -14q0 -12 -8 -17t-31 -6q-48 -6 -78 -17.5t-56 -34 t-46.5 -69t-40 -108t-45.5 -166.5l-58 -213h730l57 213q53 197 53 260q0 83 -59 113q-21 11 -38 14.5t-75 7.5q-16 0 -16 13q0 14 7 19t26 5l90 -2q156 -6 190 -6l307 8q17 0 17 -14q0 -12 -8 -17t-31 -6q-48 -6 -78 -17.5t-55.5 -33.5t-46.5 -69.5t-40 -108.5t-46 -166 l-136 -510q-55 -197 -55 -268q0 -67 34.5 -94.5t123.5 -32.5q16 0 16 -13q0 -24 -33 -24q-29 0 -125 4t-131 4q-85 0 -311 -8h-4q-21 0 -21 14q0 12 8.5 16.5t32.5 6.5q48 6 78 17.5t56.5 34t47 69t40 108.5t45.5 166l65 246h-729l-65 -246q-56 -208 -56 -268 q0 -68 34.5 -95.5t125.5 -31.5q16 0 16 -13q0 -24 -32 -24q-39 0 -147 4t-113 4l-312 -8q-20 0 -20 14z" />
<glyph unicode="I" horiz-adv-x="739" d="M-37 10q0 12 8.5 16.5t32.5 6.5q79 9 120 41t72 107.5t74 246.5l136 510q55 198 55 260q0 85 -60 113q-21 11 -38 14.5t-74 7.5q-17 0 -17 13q0 14 7.5 19t27.5 5q48 0 142.5 -4t105.5 -4l338 8q16 0 16 -14q0 -12 -8 -17t-31 -6q-48 -6 -78 -17.5t-55.5 -33.5 t-46.5 -69.5t-40 -108.5t-46 -166l-135 -510q-55 -197 -55 -268q0 -68 34 -95.5t123 -31.5q17 0 17 -13q0 -24 -33 -24q-44 0 -144.5 4t-127.5 4q-49 0 -295 -8h-4q-21 0 -21 14z" />
<glyph unicode="J" horiz-adv-x="933" d="M-55 205q0 71 38 120.5t93 49.5q38 0 64 -24.5t26 -61.5q0 -40 -51 -86q-47 -44 -47 -82q0 -44 40.5 -78.5t94.5 -34.5q49 0 95.5 30t78.5 83q29 47 49.5 104t54.5 185l142 528q53 200 53 260q0 85 -60 113q-21 11 -38 14.5t-74 7.5q-17 0 -17 13q0 14 7.5 19t27.5 5 q29 0 93 -2t116 -4t53 -2l326 8q16 0 16 -14q0 -12 -7.5 -17t-31.5 -6q-48 -6 -78 -17.5t-56 -34t-46.5 -69t-40 -108t-45.5 -166.5l-133 -494q-40 -149 -66 -206t-81 -115q-149 -152 -334 -152q-117 0 -189.5 65t-72.5 169z" />
<glyph unicode="K" horiz-adv-x="1384" d="M-51 10q0 20 41 23q48 6 78 17.5t55.5 33.5t46.5 69.5t40 108.5t46 166l135 510q55 200 55 260q0 83 -59 113q-21 11 -38 14.5t-75 7.5q-16 0 -16 13q0 14 7 19t26 5q6 0 27.5 -0.5t95 -2.5t172.5 -5q44 0 217 6l74 2q16 0 16 -14q0 -12 -8 -17t-31 -6q-48 -6 -78 -17.5 t-55.5 -33.5t-46.5 -69.5t-40 -108.5t-46 -166l-64 -240q53 5 111.5 40.5t200.5 150.5q198 167 258 227q51 50 68.5 78t17.5 63q0 59 -82 74q-27 5 -27 21q0 18 31 18l45 -2q53 -6 176 -6q57 0 135 4q46 4 55 4q23 0 23 -14q0 -12 -9 -17t-50 -14q-33 -5 -173 -111.5 t-505 -406.5q86 -27 155 -139q33 -64 44.5 -123.5t21.5 -225.5q7 -145 55 -210t152 -74q30 -3 30 -23q0 -16 -18 -16h-8l-213 6q-32 0 -121 -6q-36 17 -50.5 41.5t-19.5 72.5q-4 40 -4 123v35q0 195 -32 277q-48 129 -152 129q-66 0 -113 -53q-20 -22 -32 -49t-27 -85 l-14 -59q-56 -201 -56 -268t34.5 -94.5t123.5 -32.5q16 0 16 -13q0 -24 -32 -24l-103 2q-114 6 -143 6q-22 0 -155 -4t-167 -4q-22 0 -22 14z" />
<glyph unicode="L" horiz-adv-x="1294" d="M-51 10q0 12 8.5 16.5t32.5 6.5q48 6 78 17.5t55.5 33.5t46.5 69.5t40 108.5t46 166l135 510q55 200 55 260q0 83 -59 113q-21 11 -38 14.5t-75 7.5q-16 0 -16 13q0 14 8 19t29 5q23 0 41 -2q144 -6 287 -6q150 0 251 8h7q16 0 16 -14q0 -12 -8 -17t-31 -6 q-48 -6 -78 -17.5t-55.5 -33.5t-46.5 -69.5t-40 -108.5t-46 -166l-152 -565q-43 -161 -43 -213q0 -69 48.5 -97t168.5 -28q141 0 241 30t192 101q112 88 186 211q9 18 18 18q15 0 15 -14q0 -15 -9 -33l-122 -348h-455q-188 2 -383 2q-186 0 -324 -6h-4q-20 0 -20 14z" />
<glyph unicode="M" horiz-adv-x="1830" d="M-57 10q0 12 8.5 16.5t32.5 6.5q48 6 78 17.5t55.5 33.5t46.5 69.5t40 108.5t46 166l135 510q55 205 55 260q0 85 -59 115q-31 14 -113 20q-16 0 -16 13q0 14 7 19t26 5q96 0 170 -4h190l236 -1096q239 394 387.5 623.5t322.5 472.5h230q74 0 172 4h6q16 0 16 -14 q0 -12 -8 -17t-31 -6q-48 -6 -78 -17.5t-55.5 -33.5t-46.5 -69.5t-40 -108.5t-46 -166l-137 -510q-53 -196 -53 -268q0 -68 33.5 -95.5t123.5 -31.5q17 0 17 -13q0 -24 -33 -24q-17 0 -49.5 1t-67.5 2t-67.5 2t-54.5 2l-21 1q-41 0 -213 -6l-92 -2q-21 0 -21 14q0 20 41 23 q48 6 78 17.5t55.5 33.5t46.5 69.5t40 108.5t46 166l232 866q-170 -182 -707 -1079l-114 -192q-17 -31 -31 -31q-9 0 -13 5t-8 26l-243 1138l-197 -733q-53 -196 -53 -268q0 -68 34 -95.5t124 -31.5q16 0 16 -13q0 -24 -33 -24l-235 6q-34 0 -187 -6h-4q-20 0 -20 14z" />
<glyph unicode="N" horiz-adv-x="1462" d="M-57 10q0 11 9 16.5t32 6.5q30 4 51 8.5t42 15t35 23t29.5 35t27 48.5t25.5 67.5t26.5 87t29.5 110.5l145 543q39 147 39 209q0 57 -56.5 99t-148.5 52q-34 5 -34 23q0 10 8 13t37 3h342q27 -37 67 -117t174 -362q61 -124 295 -615l178 662q32 120 43 172.5t11 89.5 q0 39 -15.5 68.5t-44.5 42.5q-21 11 -38 14.5t-74 7.5q-17 0 -17 13q0 9 4 14t12.5 7.5t24.5 2.5q18 0 68 -3t98 -3q192 0 268 6h6q17 0 17 -14q0 -12 -7.5 -17t-31.5 -6q-48 -6 -78 -17.5t-55.5 -33.5t-46.5 -69.5t-40 -108.5t-46 -166l-240 -899q-14 -59 -49 -59 q-17 0 -27 15t-32 71q-44 109 -88 201t-261 534q-89 179 -161 352l-7 -23q-8 -29 -25 -91t-20 -74l-143 -537q-55 -207 -55 -270q0 -66 34.5 -93.5t125.5 -31.5q16 0 16 -13q0 -24 -33 -24h-33q-120 8 -153 8q-1 0 -32 -1t-69 -3t-79 -3t-60 -1q-20 0 -20 14z" />
<glyph unicode="O" horiz-adv-x="1361" d="M127 496q0 170 85 362t218 322q219 213 471 213q205 0 333 -144t128 -375q0 -160 -67 -326.5t-189 -309.5q-117 -137 -242.5 -202t-271.5 -65q-217 0 -341 140t-124 385zM348 387q0 -179 66.5 -277t187.5 -98q171 0 318 209q98 141 160.5 362.5t62.5 426.5 q0 163 -63 253.5t-177 90.5q-133 0 -244.5 -99.5t-193.5 -291.5q-54 -126 -85.5 -280.5t-31.5 -295.5z" />
<glyph unicode="P" horiz-adv-x="1216" d="M-51 8q0 14 8 19t33 6q40 5 66 12.5t51 26t41 42.5t35 70.5t35 101t38 142.5l135 510q31 118 42 169.5t11 86.5q0 45 -7.5 71.5t-28 41t-47 19.5t-74.5 7q-17 0 -17 13q0 24 29 24q30 0 270 -8q1 0 15 0.5t37.5 1t52.5 1.5t61 2t61.5 1.5t56 1t42.5 0.5q131 0 213 -27 q95 -28 154 -108.5t59 -183.5q0 -84 -40.5 -162t-112.5 -135.5t-162 -81.5q-84 -23 -189 -32.5t-315 -10.5l-53 -201q-24 -89 -35 -134.5t-16 -76.5t-5 -57q0 -66 29.5 -94.5t97.5 -30.5q29 -1 38 -4t9 -11q0 -24 -30 -24l-50 2q-83 6 -184 6q-142 0 -330 -8h-4 q-20 0 -20 12zM514 676h33q270 0 415.5 97.5t145.5 277.5q0 84 -34.5 147t-99 97t-149.5 34q-86 0 -115 -18t-48 -84z" />
<glyph unicode="Q" horiz-adv-x="1353" d="M125 485q0 167 66.5 333.5t173.5 292.5t248 205t282 79q206 0 335.5 -143.5t129.5 -370.5q0 -145 -59 -305.5t-160 -292.5q-123 -162 -289 -260q-49 -28 -326 -146q-4 -1 -18 -6.5t-19 -7.5q151 -12 230 -53t231 -187q60 -57 125 -57q71 0 137 69q39 37 45 37t12.5 -5 t6.5 -9q0 -13 -21 -37q-133 -168 -274 -168q-164 0 -330 205q-70 87 -113.5 117t-99.5 30q-52 0 -95.5 -41.5t-68.5 -113.5q-14 -40 -28.5 -56t-38.5 -16q-19 0 -32 14t-13 35q0 23 24.5 61t59.5 70q64 58 131 93t258 110q11 4 47 21q-74 -9 -111 -9q-201 0 -323.5 141 t-122.5 371zM348 379q0 -175 67 -272t187 -97q227 0 399 365q63 136 100.5 303.5t37.5 320.5q0 170 -62 263.5t-176 93.5q-85 0 -158.5 -41.5t-148.5 -130.5q-109 -127 -177.5 -352t-68.5 -453z" />
<glyph unicode="R" horiz-adv-x="1433" d="M-51 8q0 14 8 19t33 6q48 6 78 17.5t55.5 33.5t46.5 69.5t40 108.5t46 166l135 510q53 196 53 258q0 99 -53 123q-29 12 -104 14q-17 0 -17 13q0 24 29 24q20 0 113 -4t131 -4q44 0 179 4t185 4q178 0 289 -84t111 -219q0 -91 -59 -172.5t-156 -124.5q-103 -46 -250 -59 q141 -34 195 -130q47 -84 47 -251q0 -25 -1 -51v-10q-1 -105 19 -149q20 -46 74 -46q78 0 159 123q26 39 32.5 47t14.5 8q13 0 13 -12q0 -27 -66 -117q-106 -139 -246 -139q-98 0 -153.5 70.5t-55.5 193.5q0 43 7 129l2 86q0 124 -82 184q-37 25 -83 32t-173 7h-29l-70 -258 q-53 -199 -53 -268q0 -66 29.5 -94.5t97.5 -30.5q30 -1 38.5 -4t8.5 -11q0 -24 -30 -24l-52 2q-74 6 -190 6q-162 0 -322 -8h-4q-20 0 -20 12zM528 733h54q132 0 199 7.5t124 29.5q86 34 138.5 117.5t52.5 187.5q0 120 -66 186t-186 66q-65 0 -100.5 -11t-55.5 -37t-35 -79z " />
<glyph unicode="S" horiz-adv-x="1105" d="M20 4q0 8 15 51q57 192 104 416q3 21 19 21q12 0 15 -12t3 -54q1 -66 22 -140.5t52 -125.5q40 -62 114.5 -103t147.5 -41q109 0 195 87.5t86 197.5q0 69 -41.5 135t-133.5 142q-128 108 -182 162.5t-82 103.5q-51 92 -51 178q0 146 120 259.5t275 113.5q101 0 179 -43 q16 -8 120 -74q22 -16 37 -16q24 0 56 55q33 53 47 53q12 0 12 -14t-10 -39q-44 -126 -97 -363q-6 -28 -20 -28q-18 0 -18 43q0 170 -74.5 272t-196.5 102q-101 0 -174.5 -74t-73.5 -175q0 -72 42.5 -134t158.5 -157q169 -140 227 -227.5t58 -204.5q0 -163 -126.5 -280.5 t-303.5 -117.5q-73 0 -137.5 20t-143.5 66q-55 33 -86 33q-58 0 -111 -84q-14 -20 -26 -20q-17 0 -17 16z" />
<glyph unicode="T" horiz-adv-x="1347" d="M174 1026q0 15 47.5 141t81.5 199h1147q25 -269 25 -324q0 -34 -21 -34q-16 0 -24 28q-38 148 -118.5 216.5t-215.5 68.5q-55 0 -73 -11.5t-30 -54.5l-221 -827q-55 -205 -55 -268q0 -66 29.5 -94.5t97.5 -30.5q29 -1 38 -4t9 -11q0 -14 -9 -19t-32 -5l-258 8 q-1 0 -59.5 -2t-133.5 -4t-114 -2q-21 0 -21 12q0 14 8 19t33 6q48 6 78 17.5t55.5 33.5t46.5 69.5t40 108.5t46 166l217 813q9 24 9 45q0 22 -18.5 30.5t-61.5 8.5q-162 0 -269.5 -64t-232.5 -235q-15 -18 -25 -18q-16 0 -16 18z" />
<glyph unicode="U" horiz-adv-x="1501" d="M236 319q0 78 30 195l113 424q55 198 55 260q0 85 -59 115q-31 14 -115 20q-16 0 -16 15q0 9 6.5 15.5t15.5 6.5t27 -2q76 -4 262 -4q170 0 305 6h6q17 0 17 -14q0 -12 -7.5 -17t-31.5 -6q-48 -6 -78 -17.5t-55.5 -33.5t-46.5 -69.5t-40 -108.5t-46 -166l-121 -451 q-33 -132 -33 -219q0 -96 49 -145q41 -44 111.5 -69t152.5 -25q262 0 396 241q92 171 208 615l15 53q55 203 55 260q0 83 -59 113q-21 11 -38 14.5t-75 7.5q-16 0 -16 13q0 14 7 19t27 5q14 0 41 -2q49 -4 164 -4q73 0 232 6h6q16 0 16 -14q0 -12 -7.5 -17t-31.5 -6 q-79 -9 -119.5 -40.5t-71 -106.5t-73.5 -248l-16 -57q-135 -511 -244 -682q-148 -228 -448 -228q-212 0 -340.5 95t-128.5 253z" />
<glyph unicode="V" horiz-adv-x="1337" d="M115 14q0 9 8 45l256 879q55 205 64.5 243t9.5 58q0 24 -14.5 46t-37.5 32q-25 13 -96 16q-16 0 -16 13q0 24 26 24l263 -6l305 6q16 0 16 -14q0 -12 -8 -17t-31 -6q-36 -5 -56.5 -8.5t-44 -14t-36 -18.5t-30 -33t-27.5 -46t-27.5 -68t-31 -89t-36.5 -118l-229 -715 q545 508 757 735t212 302q0 28 -23.5 45t-64.5 20q-62 6 -74 9.5t-12 15.5q0 20 26 20h25q102 -6 209 -6q44 0 114 3t103 3t33 -18q0 -16 -31 -19q-60 -13 -100.5 -37t-96.5 -77t-174 -183q-308 -328 -698 -686q-275 -257 -332 -317q-44 -47 -74 -47q-11 0 -18.5 8t-7.5 20z " />
<glyph unicode="W" horiz-adv-x="2136" d="M94 18q0 15 15 66l290 854q66 200 77 238.5t11 72.5q0 44 -34.5 62.5t-126.5 21.5q-17 0 -17 13q0 24 33 24q22 0 45 -2q141 -6 260 -6q153 0 262 8h6q15 0 15 -12q0 -14 -8 -19t-33 -6q-40 -5 -67 -12.5t-53.5 -26t-44.5 -42.5t-41 -70.5t-43 -101t-50 -142.5l-225 -641 q65 57 261 248.5t310 310.5q146 149 235 261.5t89 146.5q0 60 -136 69q-39 3 -39 23q0 16 27 16l62 -2q83 -6 194 -6q208 0 279 6h6q16 0 16 -14t-8 -18.5t-43 -8.5q-36 -8 -55 -14t-42 -24.5t-35 -37t-34 -67.5t-39.5 -100t-50.5 -148l-217 -641q31 27 117 111 q55 53 352 321q467 428 467 539q0 25 -26 41.5t-70 21.5q-33 3 -33 21t22 18q11 0 51 -4q70 -4 158 -4q159 0 227 6h13q20 0 20 -18q0 -16 -26 -19q-93 -17 -170 -70t-213 -194q-150 -156 -268 -268t-406 -375q-131 -119 -197.5 -184.5t-214.5 -219.5q-34 -34 -55 -34 t-21 24q0 12 7 33l335 1030l-30 -31q-31 -36 -74 -79l-49 -54q-56 -61 -185.5 -191.5t-244.5 -240.5q-315 -304 -367 -356q-68 -68 -78 -80q-48 -51 -69 -51q-23 0 -23 28z" />
<glyph unicode="X" horiz-adv-x="1464" d="M4 10q0 13 25 19q83 13 135 47.5t137 130.5q91 102 258 291q86 94 129 143q19 19 27 29l-158 352q-64 156 -130 225t-163 84q-24 5 -24 17q0 18 22 18l51 -2q196 -4 228 -4q37 0 136 3t146 3q25 0 25 -14q0 -11 -8 -14.5t-49 -10.5q-109 -18 -109 -92q0 -37 16 -74 l156 -348q153 166 211 238q133 169 133 217q0 11 -7.5 23t-19.5 18q-19 14 -32 17t-76 7q-25 3 -25 17q0 20 33 20l258 -6q15 0 90.5 3t112.5 3q22 0 22 -14q0 -18 -24 -21q-67 -12 -105 -23.5t-81 -40t-80.5 -69t-102.5 -119.5q-69 -83 -115 -136.5t-72 -82.5t-95 -104 l225 -510q36 -72 74 -116t86 -68.5t114 -32.5q33 -3 33 -21q0 -16 -22 -16q-37 0 -130.5 4t-125.5 4q-176 0 -287 -6l-82 -2q-25 0 -25 16q0 12 11 15.5t71 9.5q119 12 119 86q0 42 -39 127l-162 364q-223 -236 -305 -342t-82 -157q0 -39 47 -62q19 -11 32 -14t73 -10 q20 -3 20 -17q0 -16 -24 -16l-271 6q-2 0 -41 -1.5t-87.5 -3t-73.5 -1.5q-23 0 -23 14z" />
<glyph unicode="Y" horiz-adv-x="1359" d="M145 967q0 19 24.5 81.5t51.5 112.5q54 100 146 164t182 64q114 0 189 -111t75 -279q0 -35 -8 -186q89 177 225 336q104 126 200 185t195 59q69 0 115.5 -42.5t46.5 -105.5q0 -43 -26.5 -71.5t-67.5 -28.5q-30 0 -52 19t-50 69q-44 78 -97 78q-49 0 -124.5 -67 t-151.5 -177q-118 -168 -184 -334q-83 -208 -103 -284l-6 -21q-55 -205 -55 -270q0 -63 35 -91.5t118 -29.5q52 -1 64 -5t12 -16q0 -20 -35 -20t-210 4t-242 4q-87 0 -160 -8l-53 -2q-35 0 -35 14q0 15 11 19.5t56 9.5q42 8 69.5 16t53.5 20t44 32.5t34.5 45.5t31.5 67.5 t29 89.5t33 120l49 184q43 163 59.5 254t16.5 172q0 125 -44.5 191.5t-127.5 66.5q-85 0 -158 -72t-114 -198q-21 -60 -26 -70t-17 -10q-8 0 -13.5 6t-5.5 15z" />
<glyph unicode="Z" horiz-adv-x="1296" d="M-57 25q0 11 16 30l1241 1266h-168q-176 0 -285.5 -16.5t-183.5 -53.5q-58 -30 -137.5 -103t-118.5 -134q-18 -29 -31 -29q-4 0 -8 5t-4 11q0 11 6 23l156 342h981q43 0 43 -31q0 -17 -25 -39l-1224 -1257h340q301 0 438 98q53 40 123.5 114t120.5 144q13 19 22 19 q5 0 10 -5.5t5 -11.5q0 -16 -13 -39q-41 -80 -82 -178q-57 -133 -71 -180h-1108q-24 0 -33.5 5.5t-9.5 19.5z" />
<glyph unicode="[" d="M227 -227l459 1710h367l-11 -39h-84q-99 0 -130 -26.5t-60 -137.5l-350 -1305q-21 -80 -21 -104q0 -34 26.5 -46.5t98.5 -12.5h82l-10 -39h-367z" />
<glyph unicode="\" horiz-adv-x="778" d="M362 1419h97l121 -1925h-95z" />
<glyph unicode="]" d="M70 -227l10 39h84q100 0 130.5 26.5t59.5 136.5l351 1305q20 79 20 104q0 34 -26.5 47t-98.5 13h-84l12 39h367l-459 -1710h-366z" />
<glyph unicode="^" d="M4 586l565 848h13l546 -848h-75l-420 645l-430 -645h-199z" />
<glyph unicode="_" d="M102 -180h928v-84h-928v84z" />
<glyph unicode="`" d="M559 1380q0 23 19.5 39.5t48.5 16.5q34 0 67.5 -26.5t50.5 -66.5l123 -296q9 -15 9 -27q0 -9 -7 -15t-16 -6q-16 0 -35 25l-215 258q-45 51 -45 98z" />
<glyph unicode="a" horiz-adv-x="927" d="M27 168q0 104 71.5 255t180.5 279q154 179 288 179q83 0 133 -78l50 63h102q-53 -119 -125 -379q-62 -224 -73 -273t-11 -91q0 -43 37 -43q29 0 62 24t89 84q9 9 17 9q7 0 12.5 -6.5t5.5 -14.5q0 -21 -82 -92q-116 -104 -200 -104q-41 0 -64.5 27.5t-23.5 74.5 q0 45 26 149q-8 -12 -14 -18q-50 -68 -71 -92t-58 -55q-100 -86 -189 -86q-71 0 -117 53t-46 135zM184 227q0 -69 25.5 -107t69.5 -38q118 0 227 205q47 87 82 208t35 195q0 55 -30 95t-71 40q-40 0 -89.5 -38.5t-84.5 -96.5q-71 -118 -117.5 -248.5t-46.5 -214.5z" />
<glyph unicode="b" horiz-adv-x="919" d="M90 201q0 51 11 106t51 207l129 475q73 276 73 307q0 43 -22 61t-88 27q-15 3 -15 13q0 22 29 22q2 0 47 -2h115l26 -2q29 0 52 2l47 2q-29 -105 -86 -321l-94 -346q129 129 266 129q127 0 188 -119q41 -80 41 -182q0 -96 -43.5 -203.5t-118.5 -198.5 q-167 -201 -358 -201q-115 0 -182.5 60.5t-67.5 163.5zM238 217q0 -88 37 -138t102 -50q152 0 244 233q33 84 57 193t24 176q0 91 -32 143.5t-88 52.5q-60 0 -123.5 -48.5t-108.5 -131.5q-41 -73 -76.5 -209.5t-35.5 -220.5z" />
<glyph unicode="c" horiz-adv-x="708" d="M43 231q6 129 62.5 259t152.5 235q144 156 279 156q65 0 116.5 -42t51.5 -96q0 -23 -19 -39t-45 -16q-23 0 -38 13t-34 49q-20 42 -38.5 59.5t-41.5 17.5q-70 0 -141 -116q-64 -102 -105.5 -238t-41.5 -242q0 -87 31 -138.5t83 -51.5q70 0 156 76q18 16 92 106 q14 17 25 17q6 0 11 -5.5t5 -11.5q0 -30 -90 -123q-117 -120 -264 -120q-100 0 -156 68q-51 61 -52 161q0 11 1 22z" />
<glyph unicode="d" horiz-adv-x="989" d="M39 195q0 115 52 239.5t131.5 222t181.5 161t196 63.5q71 0 141 -33l41 153q72 265 72 297q0 41 -22.5 59t-88.5 27q-14 3 -14 13q0 22 29 22q2 0 47 -2h115l26 -2q28 0 51 2l47 2l-296 -1106q-39 -143 -39 -182q0 -23 11 -38t28 -15q20 0 57.5 29.5t73.5 74.5 q30 39 40 49.5t19 10.5q7 0 12.5 -5.5t5.5 -11.5q0 -27 -86 -119q-64 -70 -110 -99.5t-92 -29.5q-51 0 -81 41t-30 111q0 27 10 66q-74 -103 -162.5 -160.5t-175.5 -57.5q-86 0 -138 60t-52 158zM205 215q0 -77 27 -123.5t73 -46.5q38 0 94 38.5t103 98.5q75 97 135.5 261 t60.5 272q0 55 -30 89.5t-80 37.5h-6q-55 0 -116 -52q-64 -54 -126 -159q-60 -105 -97.5 -220t-37.5 -196z" />
<glyph unicode="e" horiz-adv-x="704" d="M53 238q0 130 60 259t166 232q155 152 284 152q59 0 96 -36.5t37 -94.5q0 -88 -66.5 -169t-187.5 -139q-105 -52 -204 -67q-25 -95 -25 -182q0 -68 29.5 -111t76.5 -43q33 0 76 22.5t82 59.5q30 30 78 94q10 16 20 16q15 0 15 -20q0 -29 -53 -92q-114 -142 -258 -142 q-104 0 -165 70.5t-61 190.5zM252 432q78 15 158.5 74t132 135.5t51.5 140.5q0 26 -15 42t-40 16q-75 0 -159.5 -120.5t-127.5 -287.5z" />
<glyph unicode="f" horiz-adv-x="602" d="M-483 -389q0 43 27 71.5t67 28.5q50 0 72 -39q14 -18 16 -80q3 -112 88 -112q95 0 169.5 125t152.5 418l208 776h-208l16 61h209l14 55q134 508 418 508q83 0 137.5 -33t54.5 -83q0 -29 -17.5 -49.5t-43.5 -20.5q-30 0 -55 29q-16 18 -22 31.5t-19 60.5q-9 33 -45 33 q-78 0 -130.5 -94t-121.5 -357l-23 -80h178l-16 -61h-178l-164 -617q-108 -400 -223 -557q-69 -92 -153.5 -142t-172.5 -50q-95 0 -165 53.5t-70 124.5z" />
<glyph unicode="g" horiz-adv-x="897" d="M-135 -342q0 73 90.5 162.5t218.5 142.5q-131 62 -131 156q0 49 49 85.5t129 47.5q-110 98 -110 240q0 154 120.5 271.5t278.5 117.5q63 0 116.5 -26t110.5 -83q3 2 18.5 16t20.5 18l20 16t22.5 17t21.5 13.5t24.5 12t23.5 6.5t25 3q41 0 68 -22.5t27 -56.5 q0 -26 -16.5 -45t-41.5 -19q-15 0 -26 5.5t-37 27.5q-43 31 -60 31q-12 0 -32 -15.5t-37 -38.5q28 -57 28 -127q0 -169 -116.5 -283t-286.5 -114l-82 2q-66 0 -107.5 -16.5t-41.5 -42.5q0 -34 58.5 -60t192.5 -51q144 -26 203 -48.5t109 -68.5q61 -58 61 -137 q0 -97 -71.5 -180.5t-193.5 -132.5t-263 -49q-163 0 -273 65t-110 160zM6 -322q0 -92 75.5 -146t203.5 -54q95 0 175 31t126.5 85t46.5 117t-40.5 102.5t-133.5 65.5q-47 13 -120 24t-116 11q-49 0 -83.5 -18.5t-71.5 -63.5q-62 -74 -62 -154zM258 451q0 -88 37 -139.5 t100 -51.5q37 0 69 15.5t60.5 47t55.5 80.5q69 129 69 252q0 88 -38 139.5t-103 51.5q-25 0 -49.5 -8.5t-47 -25.5t-42.5 -41.5t-37 -55.5q-32 -60 -53 -135t-21 -129z" />
<glyph unicode="h" horiz-adv-x="954" d="M43 0l330 1229q10 42 10 67q0 44 -21.5 61.5t-87.5 26.5q-14 3 -14 13q0 22 29 22q2 0 47 -2h113l26 -2q26 0 49 2l47 2l-217 -811q113 147 197 210t164 63q48 0 79 -33.5t31 -85.5q0 -51 -22 -131l-117 -383q-31 -104 -31 -125q0 -19 10 -31t25 -12q38 0 109 80 q49 59 59 68.5t21 9.5q16 0 16 -19q0 -12 -15.5 -32.5t-60.5 -71.5q-67 -71 -121 -103t-110 -32q-40 0 -65 24.5t-25 65.5q0 35 18 90l154 518q10 38 10 65q0 54 -41 54q-55 0 -129.5 -71.5t-139.5 -184t-96 -224.5l-84 -317h-147z" />
<glyph unicode="i" horiz-adv-x="565" d="M90 66q0 32 23 102l174 520q16 46 16 68q1 15 -9 28t-24 13q-23 0 -49.5 -19t-77.5 -73q-14 -17 -24 -17q-7 0 -13 6t-6 13q0 16 43 59q120 117 222 117q47 0 72.5 -21t25.5 -61q0 -18 -19 -80l-180 -531q-24 -71 -24 -104q0 -14 7 -23.5t19 -9.5q52 0 174 119 q12 12 21 12q8 0 14 -5.5t6 -12.5q0 -18 -59 -72q-131 -114 -227 -114q-46 0 -75.5 24.5t-29.5 61.5zM381 1221q0 37 28 64.5t66 27.5q40 0 70 -29t30 -67q0 -40 -28 -69.5t-66 -29.5q-40 0 -70 31t-30 72z" />
<glyph unicode="j" horiz-adv-x="499" d="M-379 -408q0 46 30.5 76.5t76.5 30.5q37 0 61.5 -27t24.5 -65q0 -32 -15 -62q-8 -21 -8 -28q0 -15 13.5 -27t31.5 -12q70 0 129 112q35 63 84 246l205 762q20 76 20 123q0 51 -20 71t-80 31q-14 3 -14 15t11 17t38 5h135q50 0 131 17l-264 -990q-35 -133 -67.5 -208 t-73.5 -119q-118 -127 -263 -127q-79 0 -132.5 45.5t-53.5 113.5zM330 1221q0 37 28 64.5t66 27.5q41 0 70.5 -28.5t29.5 -67.5q0 -40 -28 -69.5t-66 -29.5q-39 0 -69.5 31.5t-30.5 71.5z" />
<glyph unicode="k" horiz-adv-x="909" d="M43 0l326 1214q14 52 14 84q0 43 -20.5 60t-83.5 26q-15 3 -15 13q0 22 29 22q2 0 45 -2h108l27 -2q26 0 49 2l45 2l-239 -899l22 -2q58 0 105 37t104 127q73 117 118.5 159t96.5 42q42 0 67 -24t25 -64q0 -36 -17.5 -58t-45.5 -22q-52 0 -58 71q-3 29 -20 29 q-20 0 -40 -24.5t-91 -135.5q-53 -82 -92 -118q75 -47 107 -92.5t32 -102.5q0 -38 -16 -104l-27 -101q-10 -33 -10 -55q-1 -19 8.5 -31t24.5 -12q61 0 145 106q25 31 31.5 37t13.5 6q20 0 20 -20t-79 -105q-83 -86 -181 -86q-57 0 -90.5 27.5t-31.5 71.5q0 24 12 61l41 154 q12 47 12 92q0 40 -17.5 65.5t-58.5 45.5q-65 -21 -108 -21h-17l-127 -473h-143z" />
<glyph unicode="l" horiz-adv-x="493" d="M72 111q0 74 41 223l227 848q25 98 25 116q0 43 -21 60t-84 26q-14 3 -14 13q0 22 28 22l43 -2h109l27 -2q27 0 47 2l45 2l-299 -1120q-33 -125 -33 -174q0 -21 8.5 -34t22.5 -13q49 0 200 209q14 20 29 20q8 0 13.5 -5.5t5.5 -12.5q0 -28 -82 -129q-79 -97 -136 -140 t-104 -43q-44 0 -71 37.5t-27 96.5z" />
<glyph unicode="m" horiz-adv-x="1445" d="M31 596q0 24 80 129q54 73 111 114.5t102 41.5q41 0 66.5 -35.5t25.5 -93.5q0 -48 -35 -187q103 170 182 243t160 73q60 0 93.5 -49.5t33.5 -137.5q0 -55 -14 -112q82 143 168.5 221t164.5 78q61 0 95 -38t34 -106q0 -49 -24 -137l-103 -387q-20 -74 -20 -88 q0 -20 9.5 -33.5t23.5 -13.5q56 0 184 153q12 15 23 15q6 0 11 -6t5 -13q0 -27 -80 -104q-143 -143 -244 -143q-84 0 -84 90q0 24 3.5 41.5t25.5 101.5l90 332q39 147 39 209q0 31 -11 48t-30 17q-44 0 -109 -72t-129 -190.5t-106 -245.5l-104 -311h-142l95 293 q55 168 74.5 254t19.5 155q0 47 -17 75t-45 28q-57 0 -157.5 -141.5t-157.5 -301.5l-131 -362h-146l144 408q30 85 49.5 171t19.5 134q0 63 -36 63q-22 0 -60.5 -40t-81.5 -107q-25 -38 -31.5 -46t-15.5 -8q-8 0 -13 6t-5 15z" />
<glyph unicode="n" horiz-adv-x="1011" d="M72 0l186 559q12 37 24.5 99t12.5 85t-10 36.5t-25 13.5q-17 0 -52 -26t-71 -67q-25 -29 -31.5 -35t-13.5 -6t-12.5 5.5t-5.5 13.5q0 24 76 94q115 109 204 109q43 0 62.5 -24.5t19.5 -78.5q0 -101 -33 -219q53 82 79 118.5t57 70.5q121 133 225 133q51 0 82 -35.5 t31 -93.5q0 -25 -23 -115l-88 -324q-31 -125 -36 -147t-5 -41q0 -18 9.5 -30.5t21.5 -12.5q45 0 151 135q11 14 21 14q7 0 12.5 -6t5.5 -12q0 -22 -74 -104q-59 -68 -109 -98.5t-104 -30.5q-47 0 -72.5 26.5t-25.5 75.5q0 39 33 147l111 373q26 95 26 135q0 30 -10.5 48 t-28.5 18q-69 0 -185 -169.5t-208 -404.5l-90 -229h-137z" />
<glyph unicode="o" horiz-adv-x="911" d="M72 348q0 103 43.5 212.5t113.5 182.5q63 66 144.5 102t167.5 36q135 0 216 -98.5t81 -264.5q0 -98 -41.5 -203.5t-112.5 -187.5q-126 -147 -307 -147q-140 0 -222.5 99.5t-82.5 268.5zM219 256q0 -117 37.5 -178.5t108.5 -61.5q67 0 123.5 54.5t109.5 169.5 q88 190 88 403q0 95 -35 147t-100 52q-100 0 -197 -144q-57 -88 -96 -214.5t-39 -227.5z" />
<glyph unicode="p" horiz-adv-x="921" d="M-213 -557q0 17 27 20q56 8 87 19t55 39t38 67.5t31 114.5l278 1045q-84 -27 -203 -138q-55 -53 -66.5 -63t-17.5 -10q-7 0 -13.5 7t-6.5 15q0 31 108 119.5t224 155.5l80 303h137l-68 -258q18 2 41 2q129 0 225 -74q115 -84 115 -256q0 -206 -159 -349.5t-459 -207.5 l-78 -291q-37 -131 -37 -152q0 -79 123 -88q22 -2 22 -12q0 -22 -34 -22q-40 0 -136.5 3t-103.5 3q-84 0 -180 -6h-9q-20 0 -20 14zM252 43q216 53 336.5 180.5t120.5 304.5q0 117 -53.5 201t-127.5 84q-37 0 -61.5 -31.5t-44.5 -103.5z" />
<glyph unicode="q" horiz-adv-x="948" d="M57 285q0 120 57.5 252t151.5 231q107 113 230 113q156 0 245 -164l37 143h140l-312 -1157q-35 -129 -35 -152q0 -38 31 -60.5t90 -27.5q23 -3 23 -12q0 -22 -33 -22q-24 0 -77.5 2t-78.5 2q-226 0 -266 -4h-8q-21 0 -21 14q0 17 27 20q106 15 143 57t68 183l94 350 q-127 -73 -235 -73q-120 0 -195.5 85t-75.5 220zM219 293q0 -120 43.5 -187t120.5 -67q146 0 229 219q33 91 55.5 197t22.5 174q0 87 -50 147t-122 60q-94 0 -170 -119q-60 -94 -94.5 -207t-34.5 -217z" />
<glyph unicode="r" horiz-adv-x="790" d="M61 662q0 21 74 98q124 121 209 121q86 0 86 -99q0 -64 -35 -198q106 161 183.5 230t150.5 69q47 0 80 -30.5t33 -76.5q0 -40 -27 -68t-65 -28q-28 0 -50 16t-51 58q-15 18 -26 18q-25 0 -82 -67q-75 -89 -125 -183t-107 -252l-94 -270h-149l112 313q45 129 80 259 t35 173t-31 43q-14 0 -45 -22.5t-63 -56.5q-45 -48 -55 -57t-19 -9q-8 0 -13.5 5.5t-5.5 13.5z" />
<glyph unicode="s" horiz-adv-x="634" d="M6 145q0 42 26 72.5t62 30.5q51 0 70 -49q8 -19 9 -31.5t1 -69.5q0 -37 20 -53t64 -16q65 0 106.5 41.5t41.5 105.5q0 52 -24.5 98t-90.5 121q-72 81 -99.5 133t-27.5 105q0 100 78 174t182 74q73 0 127.5 -42.5t54.5 -99.5q0 -32 -20 -52.5t-51 -20.5q-43 0 -60 30 q-6 14 -8 70q-3 76 -66 76q-53 0 -89 -34t-36 -85q0 -68 107 -203q76 -95 92.5 -120t26.5 -60q14 -41 14 -86q0 -110 -88.5 -192t-208.5 -82q-89 0 -151 48t-62 117z" />
<glyph unicode="t" horiz-adv-x="567" d="M84 94q0 37 9.5 80t51.5 193l115 432h-166l17 61h165l93 342h137l-92 -342h196l-16 -61h-197l-123 -459q-34 -124 -34 -190q0 -28 13.5 -45t35.5 -17q29 0 81 40t103 101q28 32 34 37.5t15 5.5q17 0 17 -20q0 -27 -93 -123q-146 -149 -270 -149q-92 0 -92 114z" />
<glyph unicode="u" horiz-adv-x="989" d="M53 647q0 30 76 109q113 125 215 125q37 0 61.5 -25t24.5 -63q0 -29 -5 -52.5t-36 -144.5l-63 -234q-43 -156 -49.5 -184t-6.5 -53q0 -66 41 -66q34 0 89 54.5t114 148.5q60 96 110 204t152 365l12 29h134q-27 -61 -70 -198l-84 -259q-72 -223 -72 -284q0 -23 8.5 -36 t22.5 -13q26 0 55 22t92 90q17 17 27 17q7 0 13 -5.5t6 -13.5q0 -20 -64 -84q-119 -116 -217 -116q-44 0 -64 24.5t-20 79.5q0 98 37 225q-71 -121 -113 -172q-127 -157 -248 -157q-49 0 -79.5 33t-30.5 87q0 36 6.5 64t44.5 158l55 208q34 124 40.5 152.5t6.5 54.5 q0 41 -30 41q-54 0 -127 -106q-33 -43 -45 -43q-8 0 -13.5 5.5t-5.5 12.5z" />
<glyph unicode="v" horiz-adv-x="901" d="M25 715q0 63 55 114.5t121 51.5q38 0 98 -31q42 -24 59.5 -30.5t40.5 -6.5q28 0 42.5 7t29.5 28q19 26 30.5 35.5t24.5 9.5q11 0 20 -10t9 -23q0 -39 -74 -90q-2 0 -18 -12q-69 -123 -109.5 -263t-40.5 -257q0 -79 25 -124.5t68 -45.5q75 0 163.5 84t149.5 207t61 225 q0 81 -45 172q-26 53 -26 78q0 26 14.5 43.5t36.5 17.5q44 0 77 -50t33 -116q0 -99 -50.5 -244t-119.5 -243q-79 -117 -188.5 -189.5t-204.5 -72.5q-63 0 -105 51.5t-42 126.5q0 112 66 270.5t163 278.5h-16q-38 0 -64.5 12.5t-85.5 58.5q-47 39 -61 39q-15 0 -15 -18 q0 -11 13 -37q18 -40 18 -62q0 -32 -22.5 -55.5t-51.5 -23.5q-34 0 -56.5 27t-22.5 67z" />
<glyph unicode="w" horiz-adv-x="1443" d="M27 729q0 60 60.5 111t131.5 51q52 0 166 -51q50 -21 68 -21q24 0 51 39q22 31 43 31q12 0 19 -8.5t7 -20.5q0 -22 -14 -40.5t-61 -61.5q-199 -280 -199 -486q0 -83 45.5 -139.5t112.5 -56.5q105 0 258 188q-6 55 -6 84q0 98 26 224t58 188q57 112 139 112 q37 0 58.5 -27.5t21.5 -74.5q0 -151 -181 -422q29 -129 80.5 -197.5t118.5 -68.5q61 0 115 55.5t110 175.5q58 128 58 232q0 41 -25 166q-14 66 -14 98q0 61 51 61q35 0 57.5 -35.5t22.5 -91.5q0 -104 -39.5 -249t-97.5 -250q-69 -127 -152 -195.5t-168 -68.5 q-78 0 -143 66.5t-80 164.5l-111 -109q-129 -120 -252 -120q-83 0 -135.5 56.5t-52.5 145.5q0 70 29 148.5t100 204.5q69 118 117 176q-37 0 -74.5 17t-97.5 61q-55 40 -84 40q-17 0 -17 -12q0 -7 15 -31q31 -48 31 -79t-22 -51.5t-56 -20.5q-37 0 -62.5 27t-25.5 65z M793 594q0 -69 26 -199q57 86 90 172.5t33 149.5q0 35 -12.5 55.5t-34.5 20.5q-40 0 -71 -61t-31 -138z" />
<glyph unicode="x" horiz-adv-x="925" d="M-76 119q0 43 24.5 71.5t61.5 28.5q67 0 70 -90q3 -88 55 -88q99 0 182 209q50 125 84.5 256t34.5 194q0 45 -24 81t-54 36q-38 0 -75.5 -25.5t-106.5 -99.5q-12 -12 -22 -12q-17 0 -17 18q0 25 74 90q103 95 197 95q57 0 100 -41t53 -105q119 144 240 144q57 0 97 -37.5 t40 -91.5q0 -34 -21 -55t-53 -21q-63 0 -63 73v7q0 69 -47 69q-51 0 -97.5 -57t-83.5 -164q-39 -117 -65.5 -237.5t-26.5 -182.5q0 -68 28 -105.5t79 -37.5q68 0 145 61q20 19 29.5 30.5t46.5 60.5q14 14 25 14q7 0 12.5 -5.5t5.5 -13.5q0 -15 -45 -71q-114 -137 -248 -137 q-158 0 -205 165q-133 -170 -260 -170q-71 0 -120.5 42t-49.5 102z" />
<glyph unicode="y" horiz-adv-x="806" d="M-211 -442q0 40 25.5 68t60.5 28q29 0 45 -11t57 -61q37 -43 68 -43q28 0 73.5 40.5t123.5 133.5q100 124 143 213q-36 309 -48.5 397t-39.5 224q-23 113 -45 159t-53 46q-29 0 -56.5 -39.5t-72.5 -143.5q-12 -26 -27 -26q-20 0 -20 20q0 28 57 137q98 181 188 181 q50 0 83 -47.5t59 -159t53 -320.5q22 -164 37 -245q89 149 139.5 283t50.5 220q0 88 -18 158q-8 40 -8 49q0 25 18 43.5t43 18.5q30 0 48 -27t18 -72q0 -104 -86 -335t-195 -420q-169 -291 -348 -467q-69 -67 -124.5 -97t-111.5 -30q-57 0 -97 36.5t-40 88.5z" />
<glyph unicode="z" horiz-adv-x="958" d="M25 39q0 38 55 74q63 42 131 71l494 492q-69 -19 -125 -19q-64 0 -98.5 15.5t-129.5 89.5q-53 41 -102 41q-40 0 -71.5 -32t-31.5 -73q0 -12 8 -21t19 -9q15 0 31 16q32 35 67 35q38 0 66.5 -28t28.5 -66q0 -44 -29.5 -73.5t-73.5 -29.5q-64 0 -111 49t-47 117 q0 82 60.5 137.5t148.5 55.5q95 0 246 -82q75 -41 107 -52.5t82 -17.5q120 148 176 148q17 0 28 -11t11 -26q0 -23 -20.5 -44t-74.5 -55q-70 -45 -103.5 -73.5t-107.5 -106.5l-333 -328q23 5 41 5q56 0 101 -15.5t132 -64.5q61 -35 107 -35q79 0 124 61q23 28 64 111 q8 22 25 22q8 0 13 -5.5t5 -12.5q0 -26 -53 -127q-54 -100 -110.5 -146t-125.5 -46q-101 0 -241 114q-43 34 -67.5 46t-51.5 12q-36 0 -68.5 -27.5t-54.5 -75.5q-21 -49 -35 -62.5t-41 -13.5t-46 19.5t-19 46.5z" />
<glyph unicode="{" d="M266 641l8 31q140 9 192 59t83 205q58 239 91 326t89 143q58 51 114 63.5t220 12.5q17 0 37 2l-13 -45q-124 -1 -190 -29.5t-109 -99.5q-21 -42 -29.5 -64t-21.5 -74q-41 -156 -84 -309q-47 -172 -204 -203l-3 -6q51 -11 79 -43.5t28 -83.5q0 -59 -82 -352 q-29 -105 -38 -146.5t-9 -76.5q0 -74 51 -103.5t178 -29.5l-12 -45q-169 4 -211 8q-67 7 -103 48t-36 110q0 47 18.5 120.5t114.5 403.5q12 41 12 74q0 57 -44 79t-126 25z" />
<glyph unicode="|" d="M514 -342v1708h104v-1708h-104z" />
<glyph unicode="}" d="M23 -227l12 45q128 -2 196 30.5t109 114.5q26 53 47 133l88 322q49 205 215 235l2 6q-108 27 -108 127q0 31 13.5 87t90.5 339q10 48 10 86q0 77 -49 107t-180 33l12 45q18 -2 35 -2h82q108 -3 156 -23q34 -15 53.5 -51.5t19.5 -85.5q0 -51 -18.5 -131t-69.5 -246 q-39 -133 -39 -174q0 -46 41 -70t129 -28l-6 -31q-78 -3 -120 -17t-80 -51q-25 -28 -38 -58t-26 -93q-6 -23 -25 -101.5t-34 -134.5q-41 -181 -85.5 -259.5t-129.5 -121.5q-49 -20 -92 -24.5t-211 -7.5z" />
<glyph unicode="~" horiz-adv-x="1366" d="M305 1276q59 95 132.5 146t152.5 51q57 0 184 -46q107 -36 162 -36q115 0 205 112l26 -18q-47 -86 -125 -140.5t-153 -54.5q-29 0 -53 6t-138 43q-117 37 -178 37q-54 0 -87.5 -21.5t-98.5 -97.5z" />
<glyph unicode="&#xa1;" horiz-adv-x="487" d="M-61 -436q0 67 26 147l291 860q7 23 23 23q20 0 20 -25q0 -8 -2 -12l-164 -889q-20 -106 -48.5 -153t-74.5 -47q-34 0 -52.5 25t-18.5 71zM240 788q0 37 27 65t63 28q37 0 65.5 -29.5t28.5 -67.5q0 -35 -26.5 -61.5t-61.5 -26.5q-38 0 -67 27.5t-29 64.5z" />
<glyph unicode="&#xa2;" horiz-adv-x="937" d="M176 528q0 142 64.5 279.5t177.5 234.5q139 118 311 138l45 170h45l-45 -168q123 0 192.5 -48.5t69.5 -134.5q0 -46 -27.5 -81t-64.5 -35q-55 0 -55 59q8 70 8 115q0 73 -137 76l-230 -861q21 -8 41 -8q70 0 139 37t156 121l29 -23q-167 -200 -387 -206l-45 -175h-45 l47 175q-140 9 -214.5 95.5t-74.5 239.5zM334 582q0 -212 158 -289l223 833q-161 -41 -271 -198t-110 -346z" />
<glyph unicode="&#xa3;" horiz-adv-x="1064" d="M-6 78q0 68 65 118t154 50q72 0 154 -39q28 38 46 135t38 320h-232l21 73h211q9 150 25.5 223t58.5 154q66 127 177.5 199.5t239.5 72.5q85 0 137 -41t52 -108q0 -52 -28 -89.5t-66 -37.5q-22 0 -35 14t-13 37q0 31 23 76q8 16 8 33q0 29 -27.5 47t-70.5 18 q-91 0 -164 -64.5t-104 -170.5q-12 -46 -16.5 -88t-8.5 -164q-4 -66 -8 -111h309l-20 -73h-299q-46 -296 -193 -478q64 -44 119.5 -63t118.5 -19q105 0 191 61t124 163l33 -2q-57 -163 -157 -251.5t-226 -88.5q-66 0 -126.5 27.5t-139.5 94.5q-134 -122 -250 -122 q-55 0 -88 25.5t-33 68.5zM74 92q0 -26 18 -42.5t49 -16.5q45 0 95 27.5t92 76.5q-81 49 -140 49q-47 0 -80.5 -27t-33.5 -67z" />
<glyph unicode="&#xa4;" horiz-adv-x="1366" d="M184 1192l58 57l186 -186q143 108 309 108q80 0 147 -24t158 -86l191 190l57 -59l-190 -191q60 -93 81 -156t21 -145t-21.5 -144t-82.5 -155l190 -190l-57 -59l-191 190q-84 -60 -153.5 -84.5t-151.5 -24.5q-79 0 -145 23t-156 82l-186 -186l-58 59l185 184 q-61 87 -85 152.5t-24 146.5q0 77 24 148.5t81 163.5zM381 702q0 -148 104 -252t252 -104q145 0 250 103.5t105 246.5q0 152 -104 257.5t-253 105.5q-146 0 -250 -104.5t-104 -252.5z" />
<glyph unicode="&#xa5;" horiz-adv-x="1198" d="M119 502l14 57h432l4 21l-82 227h-286l14 53h260l-74 297q-34 119 -58 145t-105 27l10 37h465l-11 -37q-112 0 -137 -10q-35 -15 -35 -45q0 -24 15 -74l160 -547l407 480q86 103 86 145q0 26 -27.5 37t-99.5 14l10 37h365l-10 -37q-66 -3 -109.5 -35.5t-152.5 -163.5 l-226 -270h273l-17 -53h-297l-192 -211l-8 -37h432l-15 -57h-434l-80 -301q-20 -75 -20 -103q0 -34 23.5 -47.5t84.5 -13.5h74l-10 -37h-553l10 37h74q88 0 117.5 27.5t58.5 136.5l80 301h-430z" />
<glyph unicode="&#xa6;" d="M514 313h104v-655h-104v655zM514 682v684h104v-684h-104z" />
<glyph unicode="&#xa7;" horiz-adv-x="935" d="M27 -375q0 52 31.5 89.5t74.5 37.5q32 0 55 -23t23 -57q0 -31 -14 -44.5t-60 -28.5q-22 -7 -22 -31q0 -35 41 -65.5t90 -30.5q97 0 157 73.5t60 192.5q0 92 -32 171.5t-171 336.5q-89 165 -120 245.5t-31 143.5q0 83 59.5 138.5t150.5 55.5q29 0 84 -14q-59 127 -59 252 q0 145 86.5 236.5t222.5 91.5q97 0 163.5 -51t66.5 -127q0 -61 -37.5 -107.5t-87.5 -46.5q-37 0 -63.5 24.5t-26.5 59.5q0 26 15 44t54 38q35 18 35 47q0 32 -31 54t-77 22q-83 0 -146 -67.5t-63 -156.5q0 -106 77 -264q14 -31 154 -272q141 -247 141 -385q0 -91 -54.5 -146 t-145.5 -55q-45 0 -103 19q37 -117 37 -203q0 -173 -87 -282t-226 -109q-91 0 -156 56.5t-65 137.5zM223 684q0 -43 42 -134t171 -329q55 -107 68 -149q53 -23 84 -23q52 0 87.5 31t35.5 76q0 47 -17.5 93t-81.5 167q-87 169 -135 250q-41 72 -53 106q-45 19 -80 19 q-51 0 -86 -31.5t-35 -75.5z" />
<glyph unicode="&#xa8;" d="M461 1221q0 37 28 64.5t66 27.5q40 0 70 -29t30 -67q0 -40 -28.5 -69.5t-67.5 -29.5q-38 0 -68 31t-30 72zM788 1221q0 37 28.5 64.5t66.5 27.5q40 0 70 -29t30 -67q0 -40 -28.5 -69.5t-67.5 -29.5t-69 31t-30 72z" />
<glyph unicode="&#xa9;" horiz-adv-x="1646" d="M168 684q0 144 56.5 275.5t151.5 226.5t226.5 151t276.5 56q144 0 275 -56t226 -151t151 -226.5t56 -275.5q0 -195 -95.5 -358.5t-261 -258t-362.5 -94.5q-188 0 -349.5 96t-256 260t-94.5 355zM231 684q0 -174 86 -323t233.5 -236.5t319.5 -87.5q180 0 330 85.5 t237 234.5t87 327q0 175 -86.5 323.5t-235 235t-323.5 86.5q-132 0 -252 -51t-206.5 -137.5t-138 -206t-51.5 -250.5zM510 668q0 172 107 285.5t270 113.5q76 0 170 -39q35 -12 47 -12q15 0 23 12.5t18 42.5h35v-235h-35q-23 89 -86.5 137.5t-155.5 48.5 q-119 0 -190.5 -94.5t-71.5 -251.5q0 -153 73 -240.5t201 -87.5q82 0 149 41.5t132 130.5v-71q-123 -152 -299 -152q-171 0 -279 103.5t-108 267.5z" />
<glyph unicode="&#xaa;" horiz-adv-x="649" d="M111 623l14 55h573l-14 -55h-573zM197 893q0 82 107 148t310 110l25 88q4 24 4 37q0 67 -98 67q-51 0 -98.5 -21t-47.5 -44q0 -5 3.5 -19t3.5 -16q0 -29 -20 -51.5t-48 -22.5q-39 0 -39 41q0 61 84.5 113.5t181.5 52.5q77 0 118.5 -26.5t41.5 -75.5q0 -26 -10 -60 l-74 -276q-12 -53 -12 -64q0 -26 22 -26q28 0 72 57l18 -14q-69 -84 -131 -84q-63 0 -63 61q0 4 0.5 10t1.5 16t2 19q-87 -60 -143.5 -83t-112.5 -23q-44 0 -71 24t-27 62zM291 913q0 -26 17.5 -41.5t45.5 -15.5q86 0 207 98l43 162q-146 -32 -229.5 -86t-83.5 -117z" />
<glyph unicode="&#xab;" horiz-adv-x="946" d="M66 440q0 11 3.5 16.5t22.5 22.5l414 367q13 10 18 10q15 0 15 -14q0 -9 -9 -21l-282 -383l100 -377q4 -16 4 -20q0 -5 -4 -8.5t-8 -3.5q-11 0 -21 18l-233 350q-20 29 -20 43zM459 440q0 11 3.5 16.5t22.5 22.5l414 367q13 10 19 10q14 0 14 -14q0 -10 -8 -21l-283 -383 l100 -377q4 -16 4 -20q0 -5 -3.5 -8.5t-8.5 -3.5q-10 0 -20 18l-234 350q-20 29 -20 43z" />
<glyph unicode="&#xac;" d="M129 467v80h877v-547h-187v467h-690z" />
<glyph unicode="&#xad;" horiz-adv-x="350" d="M-10 395l24 97h353l-27 -97h-350z" />
<glyph unicode="&#xae;" horiz-adv-x="1646" d="M168 684q0 144 56.5 275.5t151.5 226.5t226.5 151t276.5 56q144 0 275 -56t226 -151t151 -226.5t56 -275.5q0 -195 -95.5 -358.5t-261 -258t-362.5 -94.5q-188 0 -349.5 96t-256 260t-94.5 355zM231 684q0 -174 86 -323t233.5 -236.5t319.5 -87.5q180 0 330 85.5 t237 234.5t87 327q0 175 -86.5 323.5t-235 235t-323.5 86.5q-132 0 -252 -51t-206.5 -137.5t-138 -206t-51.5 -250.5zM547 1020v37h323q124 0 191 -31q113 -60 113 -176q0 -66 -33.5 -107.5t-110.5 -72.5l158 -271q17 -31 38.5 -43t55.5 -10v-37h-160l-202 357h-156v-242 q0 -46 13.5 -62t53.5 -16h35v-37h-313v37h31q41 0 54 15.5t13 62.5v518q0 47 -13 62.5t-54 15.5h-37zM764 700h123q76 0 114 25q25 17 40.5 52t15.5 75q0 75 -45.5 117.5t-126.5 42.5h-121v-312z" />
<glyph unicode="&#xaf;" d="M432 1153l27 102h547l-27 -102h-547z" />
<glyph unicode="&#xb0;" horiz-adv-x="892" d="M299 1122q0 82 57 137.5t140 55.5q88 0 148.5 -57.5t60.5 -139.5t-60 -140t-143 -58t-143 59.5t-60 142.5zM340 1120q0 -66 48 -112.5t116 -46.5q65 0 112.5 46.5t47.5 110.5t-47.5 111t-112.5 47q-72 0 -118 -43.5t-46 -112.5z" />
<glyph unicode="&#xb1;" d="M102 117v84h928v-84h-928zM102 680v84h420v393h88v-393h420v-84h-420v-389h-88v389h-420z" />
<glyph unicode="&#xb2;" horiz-adv-x="618" d="M43 432q0 15 18 23q54 26 163.5 96t154.5 108q164 138 164 261q0 43 -30 70.5t-79 27.5q-71 0 -138 -61.5t-67 -127.5q0 -25 18 -41t46 -16t45.5 10.5t52.5 48.5q9 9 17 9q12 0 12 -13t-31 -47q-56 -53 -127 -53q-48 0 -79 29.5t-31 74.5q0 86 91.5 153t211.5 67 q85 0 138.5 -44.5t53.5 -113.5q0 -81 -66 -149.5t-237 -165.5q-34 -20 -62 -37t-39.5 -23.5t-21.5 -11.5h152q79 0 111 12.5t59 46.5q9 13 12 15t10 2t12 -4t5 -9q0 -9 -9 -24l-61 -92q-15 -25 -23.5 -30t-33.5 -5h-398q-14 0 -14 14z" />
<glyph unicode="&#xb3;" horiz-adv-x="618" d="M86 573q0 26 20 45t48 19q22 0 36.5 -12t14.5 -29q0 -16 -15 -47q-10 -17 -10 -33q0 -31 35.5 -53.5t81.5 -22.5q76 0 139.5 67.5t63.5 149.5q0 31 -19 52.5t-45 21.5q-9 0 -53.5 -13t-54.5 -13q-15 0 -15 14q0 9 9.5 14.5t42.5 14.5q104 31 151 72t47 100q0 44 -28 72 t-74 28q-53 0 -94 -40t-41 -91q0 -15 10 -26t24 -11q32 0 70 35q16 8 19 8q12 0 12 -14q0 -20 -48 -47t-83 -27q-38 0 -63 25t-25 65q0 65 63 110.5t154 45.5q86 0 142 -40.5t56 -103.5q0 -54 -39.5 -89.5t-130.5 -61.5q113 -39 113 -135q0 -94 -78.5 -158t-195.5 -64 q-111 0 -174 54q-66 56 -66 118z" />
<glyph unicode="&#xb4;" d="M559 1018q0 16 8 29l123 296q19 42 51.5 67.5t67.5 25.5q29 0 48.5 -15.5t19.5 -40.5q0 -46 -46 -98l-215 -258q-21 -27 -34 -27q-9 0 -16 6.5t-7 14.5z" />
<glyph unicode="&#xb5;" horiz-adv-x="907" d="M47 -293q0 35 14 121q25 140 41.5 352.5t16.5 392.5v363h139v-586q0 -100 11 -149t42 -84q51 -54 131 -54q75 0 135 38t121 126v709h140v-698q0 -92 16.5 -124t63.5 -32q26 0 61 22v-30l-162 -94l-8 -3q-14 0 -34 11t-32 26q-22 31 -36 138q-116 -111 -178.5 -147 t-141.5 -36q-87 0 -141.5 44.5t-83.5 138.5v-62q0 -70 3 -106t23 -172q9 -88 9 -97q0 -44 -21 -73t-53 -29t-54 27t-22 67z" />
<glyph unicode="&#xb6;" horiz-adv-x="1128" d="M186 -190l13 47h45q86 0 118 22q15 14 22 29.5t28 89.5l194 723q-35 -2 -94 -2q-63 0 -98 7.5t-70 29.5q-100 59 -100 192q0 109 61.5 211t159.5 154q87 48 209 51q27 2 157 2h478l-13 -47h-39q-89 0 -115 -24.5t-55 -133.5l-313 -1167q-20 -80 -20 -94q0 -26 19.5 -34.5 t76.5 -8.5h45l-12 -47h-244l403 1507h-192l-404 -1507h-260zM362 940q0 -78 45.5 -121t127.5 -43h86l145 543h-74q-127 0 -194 -64q-57 -52 -96.5 -143.5t-39.5 -171.5z" />
<glyph unicode="&#xb7;" horiz-adv-x="944" d="M383 449q0 35 26.5 61.5t61.5 26.5q39 0 67.5 -28t28.5 -65t-26.5 -64.5t-63.5 -27.5t-65.5 29.5t-28.5 67.5z" />
<glyph unicode="&#xb8;" d="M182 -346q0 9 8 13.5t58 21.5q40 15 65 41t25 53q0 23 -13.5 40.5t-52.5 47.5l121 129h47l-39 -59q72 -35 72 -109q0 -94 -115 -156q-82 -45 -145 -45q-31 0 -31 23z" />
<glyph unicode="&#xb9;" horiz-adv-x="618" d="M188 430q0 15 25 21q45 6 63 30t35 103l86 317q9 35 9 45q0 23 -15 32.5t-55 14.5q-19 3 -19 15t9.5 16t38.5 4q78 3 131 21q4 1 8.5 2t7 1.5t4.5 0.5q8 0 13.5 -5t5.5 -12q0 -10 -3 -16l-116 -436q-21 -80 -21 -88q0 -35 60 -45q18 -3 18 -13q0 -22 -29 -22q-10 0 -26 2 l-90 2q-39 0 -115 -4h-6q-19 0 -19 14z" />
<glyph unicode="&#xba;" horiz-adv-x="651" d="M86 623l14 55h574l-15 -55h-573zM223 997q0 154 107 267.5t252 113.5q88 0 140 -52t52 -140q0 -154 -105 -267.5t-247 -113.5q-93 0 -146 51t-53 141zM307 967q0 -60 32.5 -93.5t90.5 -33.5q62 0 113.5 35.5t83.5 101.5q61 122 61 235q0 131 -121 131q-127 0 -200 -141 q-60 -123 -60 -235z" />
<glyph unicode="&#xbb;" horiz-adv-x="946" d="M20 43q0 11 9 20l280 383l-100 377q-1 4 -2 8.5t-1.5 7t-0.5 3.5q0 14 12 14q10 0 23 -18l233 -351q20 -37 21 -45q0 -9 -4.5 -15t-24.5 -21l-412 -367q-12 -10 -18 -10q-15 0 -15 14zM414 43q0 12 8 20l280 383l-100 377q-1 4 -2 8.5t-1.5 7t-0.5 3.5q0 14 12 14 q10 0 23 -18l233 -351q20 -37 21 -45q0 -9 -4.5 -15t-24.5 -21l-412 -367q-12 -10 -18 -10q-14 0 -14 14z" />
<glyph unicode="&#xbc;" horiz-adv-x="1507" d="M188 430q0 15 25 21q45 6 63 30t35 103l86 317q9 35 9 45q0 23 -15 32.5t-55 14.5q-19 3 -19 15t9.5 16t38.5 4q78 3 131 21q4 1 8.5 2t7 1.5t4.5 0.5q8 0 13.5 -5t5.5 -12q0 -10 -3 -16l-116 -436q-21 -80 -21 -88q0 -35 60 -45q18 -3 18 -13q0 -22 -29 -22q-10 0 -26 2 l-90 2q-39 0 -115 -4h-6q-19 0 -19 14zM367 0l731 1038h86l-731 -1038h-86zM874 260q0 8 17 23l387 352h82l-92 -350h10q59 0 82 12t45 55q12 21 22 21q18 0 13 -23l-54 -194q-5 -19 -18 -19q-14 0 -14 23q0 80 -88 80h-11l-20 -74q-21 -78 -21 -86q0 -22 17 -33t55 -14 q19 -3 19 -13q0 -22 -29 -22h-4q-31 1 -63.5 2t-50 1.5t-28.5 0.5l-108 -4q-18 0 -18 14q0 11 6.5 15.5t27.5 7.5q44 10 59.5 32.5t32.5 98.5l21 74h-236q-25 0 -33 4t-8 16zM952 285h211l76 260z" />
<glyph unicode="&#xbd;" horiz-adv-x="1507" d="M188 430q0 15 25 21q45 6 63 30t35 103l86 317q9 35 9 45q0 23 -15 32.5t-55 14.5q-19 3 -19 15t9.5 16t38.5 4q78 3 131 21q4 1 8.5 2t7 1.5t4.5 0.5q8 0 13.5 -5t5.5 -12q0 -10 -3 -16l-116 -436q-21 -80 -21 -88q0 -35 60 -45q18 -3 18 -13q0 -22 -29 -22q-10 0 -26 2 l-90 2q-39 0 -115 -4h-6q-19 0 -19 14zM367 0l731 1038h86l-731 -1038h-86zM817 14q0 12 19 23q65 33 166 99t151 108q164 135 164 258q0 44 -30 72t-77 28q-72 0 -138 -62t-66 -128q0 -25 17.5 -41.5t45.5 -16.5q26 0 43.5 11t52.5 51q8 8 17 8q12 0 12 -12q0 -13 -31 -47 q-56 -56 -127 -56q-47 0 -77.5 29.5t-30.5 75.5q0 88 91 154.5t210 66.5q86 0 139 -44.5t53 -115.5q0 -80 -66 -149.5t-235 -165.5q-60 -34 -123 -72h150q80 0 113.5 12t58.5 47q7 12 10.5 14.5t9.5 2.5q17 0 17 -12q0 -9 -8 -25l-60 -92q-18 -25 -25.5 -30t-33.5 -5h-395 q-17 0 -17 14z" />
<glyph unicode="&#xbe;" horiz-adv-x="1507" d="M86 573q0 26 20 45t48 19q22 0 36.5 -12t14.5 -29q0 -16 -15 -47q-10 -17 -10 -33q0 -31 35.5 -53.5t81.5 -22.5q76 0 139.5 67.5t63.5 149.5q0 31 -19 52.5t-45 21.5q-9 0 -53.5 -13t-54.5 -13q-15 0 -15 14q0 9 9.5 14.5t42.5 14.5q104 31 151 72t47 100q0 44 -28 72 t-74 28q-53 0 -94 -40t-41 -91q0 -15 10 -26t24 -11q32 0 70 35q16 8 19 8q12 0 12 -14q0 -20 -48 -47t-83 -27q-38 0 -63 25t-25 65q0 65 63 110.5t154 45.5q86 0 142 -40.5t56 -103.5q0 -54 -39.5 -89.5t-130.5 -61.5q113 -39 113 -135q0 -94 -78.5 -158t-195.5 -64 q-111 0 -174 54q-66 56 -66 118zM369 0l731 1038h86l-731 -1038h-86zM877 260q0 9 16 23l387 352h82l-94 -350h10q60 0 83.5 12t45.5 55q12 21 23 21q17 0 12 -23l-53 -194q-5 -19 -19 -19t-14 23q0 80 -88 80h-11l-20 -74q-20 -74 -20 -86q0 -22 16 -32t55 -15 q19 -3 19 -13q0 -22 -29 -22h-6q-32 1 -63 2t-48 1.5t-28 0.5l-109 -4q-18 0 -18 14q0 11 6.5 15.5t27.5 7.5q43 11 59.5 33.5t33.5 97.5l20 74h-235q-25 0 -33 4t-8 16zM954 285h211l76 260z" />
<glyph unicode="&#xbf;" horiz-adv-x="782" d="M-111 -236q0 82 41 159t115 134q67 52 112.5 76t254.5 119q147 66 147 139q0 41 -54 75t-120 34q-54 0 -127 -33q-6 -2 -12 -2q-21 0 -21 41q0 26 17 35q25 15 69 26t84 11q92 0 156.5 -64t64.5 -156q0 -118 -110 -208q-26 -21 -60 -40.5t-200 -105.5 q-160 -85 -222.5 -147.5t-62.5 -137.5q0 -92 72.5 -153.5t181.5 -61.5q97 0 161 55t64 138q0 55 -32 90t-82 35q-41 0 -41 -29q0 -12 7 -17.5t27 -8.5q58 -13 58 -68q0 -38 -27 -64t-65 -26q-54 0 -90.5 39t-36.5 96q0 58 49.5 99.5t118.5 41.5q70 0 121 -50.5t51 -121.5 q0 -101 -83.5 -173t-201.5 -72q-140 0 -232 84.5t-92 211.5zM395 788q0 37 27 65t63 28q37 0 66 -29.5t29 -67.5q0 -35 -26.5 -61.5t-61.5 -26.5q-38 0 -67.5 27.5t-29.5 64.5z" />
<glyph unicode="&#xc0;" horiz-adv-x="1363" d="M-162 12q0 10 9.5 15.5t66.5 25.5q79 32 145.5 84.5t157.5 153.5q122 132 125 135l889 946h160l-287 -946q-68 -223 -68 -281q0 -55 37 -79.5t131 -32.5q21 -3 21 -15q0 -22 -29 -22l-53 2q-69 6 -289 6q-104 0 -219 -8h-21q-28 0 -28 18q0 20 35 23q44 4 71 10t54 23.5 t43.5 39.5t37.5 69.5t39 101.5t45 145l52 174h-383l-170 -186q-112 -126 -150.5 -183t-38.5 -98q0 -40 45 -68t117 -32q27 -3 27 -19q0 -10 -7.5 -14t-27.5 -4h-31q-185 8 -256 8q-76 0 -158 -4q-50 -4 -61 -4q-31 0 -31 16zM629 649h352l176 570zM844 1755q0 14 30 14h312 l184 -258q25 -33 25 -41q0 -7 -7 -12.5t-16 -5.5q-6 0 -41 21l-467 264q-14 7 -17 10t-3 8z" />
<glyph unicode="&#xc1;" horiz-adv-x="1363" d="M-162 12q0 10 9.5 15.5t66.5 25.5q79 32 145.5 84.5t157.5 153.5q122 132 125 135l889 946h160l-287 -946q-68 -223 -68 -281q0 -55 37 -79.5t131 -32.5q21 -3 21 -15q0 -22 -29 -22l-53 2q-69 6 -289 6q-104 0 -219 -8h-21q-28 0 -28 18q0 20 35 23q44 4 71 10t54 23.5 t43.5 39.5t37.5 69.5t39 101.5t45 145l52 174h-383l-170 -186q-112 -126 -150.5 -183t-38.5 -98q0 -40 45 -68t117 -32q27 -3 27 -19q0 -10 -7.5 -14t-27.5 -4h-31q-185 8 -256 8q-76 0 -158 -4q-50 -4 -61 -4q-31 0 -31 16zM629 649h352l176 570zM1186 1470q0 9 26 41 l183 258h313q29 0 29 -14q0 -9 -19 -18l-467 -264q-37 -21 -43 -21q-9 0 -15.5 5.5t-6.5 12.5z" />
<glyph unicode="&#xc2;" horiz-adv-x="1363" d="M-162 12q0 10 9.5 15.5t66.5 25.5q79 32 145.5 84.5t157.5 153.5q122 132 125 135l889 946h160l-287 -946q-68 -223 -68 -281q0 -55 37 -79.5t131 -32.5q21 -3 21 -15q0 -22 -29 -22l-53 2q-69 6 -289 6q-104 0 -219 -8h-21q-28 0 -28 18q0 20 35 23q44 4 71 10t54 23.5 t43.5 39.5t37.5 69.5t39 101.5t45 145l52 174h-383l-170 -186q-112 -126 -150.5 -183t-38.5 -98q0 -40 45 -68t117 -32q27 -3 27 -19q0 -10 -7.5 -14t-27.5 -4h-31q-185 8 -256 8q-76 0 -158 -4q-50 -4 -61 -4q-31 0 -31 16zM629 649h352l176 570zM942 1477q0 7 3 11t22 17 l317 250h242l147 -260q10 -16 10 -20q0 -6 -5 -10.5t-11 -4.5q-11 0 -27 13l-231 163q-16 13 -29 13q-8 0 -34 -13l-359 -163q-18 -9 -29 -9q-16 0 -16 13z" />
<glyph unicode="&#xc3;" horiz-adv-x="1363" d="M-162 12q0 10 9.5 15.5t66.5 25.5q79 32 145.5 84.5t157.5 153.5q122 132 125 135l889 946h160l-287 -946q-68 -223 -68 -281q0 -55 37 -79.5t131 -32.5q21 -3 21 -15q0 -22 -29 -22l-53 2q-69 6 -289 6q-104 0 -219 -8h-21q-28 0 -28 18q0 20 35 23q44 4 71 10t54 23.5 t43.5 39.5t37.5 69.5t39 101.5t45 145l52 174h-383l-170 -186q-112 -126 -150.5 -183t-38.5 -98q0 -40 45 -68t117 -32q27 -3 27 -19q0 -10 -7.5 -14t-27.5 -4h-31q-185 8 -256 8q-76 0 -158 -4q-50 -4 -61 -4q-31 0 -31 16zM629 649h352l176 570zM1010 1501q0 46 37 109 q77 141 188 141q36 0 85 -17.5t202 -84.5q44 -21 82 -21t67 27.5t55 87.5q8 18 21 18q20 0 20 -20q0 -33 -25.5 -90t-55.5 -92q-61 -70 -134 -70q-39 0 -74.5 11.5t-121.5 53.5q-122 58 -180 58q-41 0 -70 -25t-51 -80q-11 -28 -27 -28q-18 0 -18 22z" />
<glyph unicode="&#xc4;" horiz-adv-x="1363" d="M-162 12q0 10 9.5 15.5t66.5 25.5q79 32 145.5 84.5t157.5 153.5q122 132 125 135l889 946h160l-287 -946q-68 -223 -68 -281q0 -55 37 -79.5t131 -32.5q21 -3 21 -15q0 -22 -29 -22l-53 2q-69 6 -289 6q-104 0 -219 -8h-21q-28 0 -28 18q0 20 35 23q44 4 71 10t54 23.5 t43.5 39.5t37.5 69.5t39 101.5t45 145l52 174h-383l-170 -186q-112 -126 -150.5 -183t-38.5 -98q0 -40 45 -68t117 -32q27 -3 27 -19q0 -10 -7.5 -14t-27.5 -4h-31q-185 8 -256 8q-76 0 -158 -4q-50 -4 -61 -4q-31 0 -31 16zM629 649h352l176 570zM975 1622q0 44 33.5 77.5 t78.5 33.5q47 0 83 -34.5t36 -80.5q0 -48 -33.5 -82.5t-80.5 -34.5q-46 0 -81.5 37t-35.5 84zM1466 1622q0 44 33.5 77.5t79.5 33.5q47 0 83 -34.5t36 -80.5q0 -47 -34 -82t-81 -35q-46 0 -81.5 37t-35.5 84z" />
<glyph unicode="&#xc5;" horiz-adv-x="1363" d="M-162 12q0 10 9.5 15.5t66.5 25.5q79 32 145.5 84.5t157.5 153.5q122 132 125 135l889 946h160l-287 -946q-68 -223 -68 -281q0 -55 37 -79.5t131 -32.5q21 -3 21 -15q0 -22 -29 -22l-53 2q-69 6 -289 6q-104 0 -219 -8h-21q-28 0 -28 18q0 20 35 23q44 4 71 10t54 23.5 t43.5 39.5t37.5 69.5t39 101.5t45 145l52 174h-383l-170 -186q-112 -126 -150.5 -183t-38.5 -98q0 -40 45 -68t117 -32q27 -3 27 -19q0 -10 -7.5 -14t-27.5 -4h-31q-185 8 -256 8q-76 0 -158 -4q-50 -4 -61 -4q-31 0 -31 16zM629 649h352l176 570zM1169 1626q0 63 48 110.5 t114 47.5q69 0 119.5 -49t50.5 -115q0 -69 -48.5 -118.5t-115.5 -49.5q-66 0 -117 52.5t-51 121.5zM1241 1622q0 -38 29 -67t67 -29q37 0 65 28t28 66q0 37 -29.5 64.5t-67.5 27.5q-37 0 -64.5 -26.5t-27.5 -63.5z" />
<glyph unicode="&#xc6;" horiz-adv-x="1972" d="M-119 12q0 16 35 21q106 17 213 121.5t295 377.5l274 404q95 138 130.5 201.5t35.5 95.5q0 40 -53 66t-145 30q-35 3 -35 21q0 12 17 14t120 2h1118l39 -248q6 -30 6 -39q0 -6 -4 -11t-10 -5q-7 0 -13 7t-26 38q-78 121 -167.5 174t-217.5 53q-84 0 -121 -9.5t-57 -37.5 q-15 -21 -27 -58.5t-51 -180.5l-86 -320h80q131 0 205 47.5t131 167.5q12 21 20 21q17 0 17 -17l-5 -20q-13 -39 -35 -144.5t-42 -213t-23 -121.5q-3 -33 -18 -33q-16 0 -19 26q-3 56 -7.5 91t-15.5 64t-26.5 44.5t-44 26t-63 13.5t-88.5 3h-76l-103 -381q-28 -106 -28 -147 q0 -74 56 -98.5t226 -24.5q159 0 247 25.5t165 91.5q70 63 170 184q11 16 22 16q15 0 15 -14q0 -17 -123 -336h-1170q-20 0 -26 3.5t-6 12.5q0 16 24 19q56 8 89 23t63 54.5t52 98t52 164.5l82 309h-362l-211 -309q-84 -121 -116 -179t-32 -90q0 -57 103 -73q24 -6 24 -19 q0 -16 -32 -16l-238 4l-141 -2q-12 -2 -29 -2q-33 0 -33 14zM618 729h343l120 455q21 80 21 90q0 37 -29 37q-27 0 -67 -43q-46 -46 -76 -86t-148 -215z" />
<glyph unicode="&#xc7;" horiz-adv-x="1185" d="M129 481q0 132 42 267t116 249t167.5 204t204.5 141t220 51q140 0 260 -105q38 -31 55 -31q32 0 90 76q19 25 31 25q18 0 18 -21q0 -9 -6 -24q-49 -157 -106 -418q-8 -35 -25 -35q-21 0 -18 35q4 51 -10.5 138.5t-34.5 135.5q-38 87 -95 133t-127 46q-112 0 -223 -95 t-199 -264q-62 -122 -96.5 -258t-34.5 -260q0 -195 78.5 -316.5t204.5 -121.5q95 0 210.5 77.5t203.5 200.5q26 38 31.5 44.5t13.5 6.5q6 0 11 -5t5 -11q0 -22 -54 -91t-108 -116q-192 -168 -381 -168l-34 -63q88 -39 88 -117q0 -133 -203 -201q-112 -39 -188 -39 q-37 0 -37 19q0 14 11 19t71 18q69 13 111 47.5t42 75.5q0 61 -82 82l168 161q-181 22 -286 158t-105 350z" />
<glyph unicode="&#xc8;" horiz-adv-x="1308" d="M-51 10q0 12 8.5 16.5t32.5 6.5q79 9 120 41t72 107.5t74 246.5l135 510q55 200 55 260q0 85 -59 115q-31 14 -113 20q-16 0 -16 13q0 14 7.5 19t27.5 5h14q208 -4 236 -4h768l12 -266v-25q0 -28 -14 -28q-13 0 -19 20q-37 105 -100 170q-54 57 -120 76.5t-200 19.5 q-146 0 -174 -28q-11 -11 -28 -74l-131 -490q25 -2 57 -2q111 0 174 33.5t109 116.5q18 31 25 40t16 9q16 0 16 -14q0 -5 -4 -25l-117 -438q-7 -28 -11.5 -34.5t-15.5 -6.5q-8 0 -13 7t-5 17l2 29q4 36 4 51q0 97 -51 142q-23 18 -56 25t-94 7q-26 0 -49 -2l-67 -250 q-39 -151 -49.5 -199t-10.5 -87q0 -71 48 -100t163 -29q148 0 275.5 39.5t206.5 111.5q57 50 129 170q9 15 16 15q14 0 14 -17q0 -51 -104 -350h-649l-523 -4h-4q-20 0 -20 14zM608 1755q0 14 29 14h313l183 -258q26 -32 26 -41q0 -7 -6.5 -12.5t-15.5 -5.5q-6 0 -43 21 l-467 264q-19 9 -19 18z" />
<glyph unicode="&#xc9;" horiz-adv-x="1308" d="M-51 10q0 12 8.5 16.5t32.5 6.5q79 9 120 41t72 107.5t74 246.5l135 510q55 200 55 260q0 85 -59 115q-31 14 -113 20q-16 0 -16 13q0 14 7.5 19t27.5 5h14q208 -4 236 -4h768l12 -266v-25q0 -28 -14 -28q-13 0 -19 20q-37 105 -100 170q-54 57 -120 76.5t-200 19.5 q-146 0 -174 -28q-11 -11 -28 -74l-131 -490q25 -2 57 -2q111 0 174 33.5t109 116.5q18 31 25 40t16 9q16 0 16 -14q0 -5 -4 -25l-117 -438q-7 -28 -11.5 -34.5t-15.5 -6.5q-8 0 -13 7t-5 17l2 29q4 36 4 51q0 97 -51 142q-23 18 -56 25t-94 7q-26 0 -49 -2l-67 -250 q-39 -151 -49.5 -199t-10.5 -87q0 -71 48 -100t163 -29q148 0 275.5 39.5t206.5 111.5q57 50 129 170q9 15 16 15q14 0 14 -17q0 -51 -104 -350h-649l-523 -4h-4q-20 0 -20 14zM696 1470q0 8 25 41l184 258h312q30 0 30 -14q0 -3 -0.5 -4t-2 -3.5t-6 -4.5t-11.5 -6 l-467 -264q-35 -21 -41 -21q-9 0 -16 5.5t-7 12.5z" />
<glyph unicode="&#xca;" horiz-adv-x="1308" d="M-51 10q0 12 8.5 16.5t32.5 6.5q79 9 120 41t72 107.5t74 246.5l135 510q55 200 55 260q0 85 -59 115q-31 14 -113 20q-16 0 -16 13q0 14 7.5 19t27.5 5h14q208 -4 236 -4h768l12 -266v-25q0 -28 -14 -28q-13 0 -19 20q-37 105 -100 170q-54 57 -120 76.5t-200 19.5 q-146 0 -174 -28q-11 -11 -28 -74l-131 -490q25 -2 57 -2q111 0 174 33.5t109 116.5q18 31 25 40t16 9q16 0 16 -14q0 -5 -4 -25l-117 -438q-7 -28 -11.5 -34.5t-15.5 -6.5q-8 0 -13 7t-5 17l2 29q4 36 4 51q0 97 -51 142q-23 18 -56 25t-94 7q-26 0 -49 -2l-67 -250 q-39 -151 -49.5 -199t-10.5 -87q0 -71 48 -100t163 -29q148 0 275.5 39.5t206.5 111.5q57 50 129 170q9 15 16 15q14 0 14 -17q0 -51 -104 -350h-649l-523 -4h-4q-20 0 -20 14zM465 1477q0 8 22 28l318 250h244l147 -260q8 -16 8 -20q0 -15 -16 -15q-6 0 -25 13l-231 163 q-20 13 -29 13t-35 -13l-360 -163q-15 -9 -27 -9q-16 0 -16 13z" />
<glyph unicode="&#xcb;" horiz-adv-x="1308" d="M-51 10q0 12 8.5 16.5t32.5 6.5q79 9 120 41t72 107.5t74 246.5l135 510q55 200 55 260q0 85 -59 115q-31 14 -113 20q-16 0 -16 13q0 14 7.5 19t27.5 5h14q208 -4 236 -4h768l12 -266v-25q0 -28 -14 -28q-13 0 -19 20q-37 105 -100 170q-54 57 -120 76.5t-200 19.5 q-146 0 -174 -28q-11 -11 -28 -74l-131 -490q25 -2 57 -2q111 0 174 33.5t109 116.5q18 31 25 40t16 9q16 0 16 -14q0 -5 -4 -25l-117 -438q-7 -28 -11.5 -34.5t-15.5 -6.5q-8 0 -13 7t-5 17l2 29q4 36 4 51q0 97 -51 142q-23 18 -56 25t-94 7q-26 0 -49 -2l-67 -250 q-39 -151 -49.5 -199t-10.5 -87q0 -71 48 -100t163 -29q148 0 275.5 39.5t206.5 111.5q57 50 129 170q9 15 16 15q14 0 14 -17q0 -51 -104 -350h-649l-523 -4h-4q-20 0 -20 14zM535 1622q0 44 33.5 77.5t78.5 33.5q47 0 83 -34.5t36 -80.5q0 -47 -34 -82t-81 -35 q-46 0 -81 37t-35 84zM1026 1622q0 44 33.5 77.5t79.5 33.5q47 0 82.5 -34.5t35.5 -80.5q0 -48 -33.5 -82.5t-80.5 -34.5q-46 0 -81.5 37t-35.5 84z" />
<glyph unicode="&#xcc;" horiz-adv-x="739" d="M-37 10q0 12 8.5 16.5t32.5 6.5q79 9 120 41t72 107.5t74 246.5l136 510q55 198 55 260q0 85 -60 113q-21 11 -38 14.5t-74 7.5q-17 0 -17 13q0 14 7.5 19t27.5 5q48 0 142.5 -4t105.5 -4l338 8q16 0 16 -14q0 -12 -8 -17t-31 -6q-48 -6 -78 -17.5t-55.5 -33.5 t-46.5 -69.5t-40 -108.5t-46 -166l-135 -510q-55 -197 -55 -268q0 -68 34 -95.5t123 -31.5q17 0 17 -13q0 -24 -33 -24q-44 0 -144.5 4t-127.5 4q-49 0 -295 -8h-4q-21 0 -21 14zM324 1755q0 8 5.5 11t22.5 3h314l184 -258q18 -23 21 -29t3 -12q0 -7 -6.5 -12.5t-15.5 -5.5 h-2h-2t-2 0.5t-2.5 1t-3 1.5t-3.5 2l-5 2.5t-6 3.5t-7.5 4.5t-9.5 5.5l-467 264q-12 8 -15 10.5t-3 7.5z" />
<glyph unicode="&#xcd;" horiz-adv-x="739" d="M-37 10q0 12 8.5 16.5t32.5 6.5q79 9 120 41t72 107.5t74 246.5l136 510q55 198 55 260q0 85 -60 113q-21 11 -38 14.5t-74 7.5q-17 0 -17 13q0 14 7.5 19t27.5 5q48 0 142.5 -4t105.5 -4l338 8q16 0 16 -14q0 -12 -8 -17t-31 -6q-48 -6 -78 -17.5t-55.5 -33.5 t-46.5 -69.5t-40 -108.5t-46 -166l-135 -510q-55 -197 -55 -268q0 -68 34 -95.5t123 -31.5q17 0 17 -13q0 -24 -33 -24q-44 0 -144.5 4t-127.5 4q-49 0 -295 -8h-4q-21 0 -21 14zM412 1470v5.5t2.5 6t7 10.5t14.5 19l185 258h313q29 0 29 -14q0 -4 -3 -7t-16 -11l-469 -264 q-4 -3 -9 -5.5t-7.5 -4t-5.5 -3.5l-4.5 -3t-3.5 -2l-3 -1.5l-2 -1t-2 -0.5h-2h-2q-9 0 -15.5 5.5t-6.5 12.5z" />
<glyph unicode="&#xce;" horiz-adv-x="739" d="M-37 10q0 12 8.5 16.5t32.5 6.5q79 9 120 41t72 107.5t74 246.5l136 510q55 198 55 260q0 85 -60 113q-21 11 -38 14.5t-74 7.5q-17 0 -17 13q0 14 7.5 19t27.5 5q48 0 142.5 -4t105.5 -4l338 8q16 0 16 -14q0 -12 -8 -17t-31 -6q-48 -6 -78 -17.5t-55.5 -33.5 t-46.5 -69.5t-40 -108.5t-46 -166l-135 -510q-55 -197 -55 -268q0 -68 34 -95.5t123 -31.5q17 0 17 -13q0 -24 -33 -24q-44 0 -144.5 4t-127.5 4q-49 0 -295 -8h-4q-21 0 -21 14zM279 1477q0 4 1.5 7t6 7.5t16.5 13.5l318 250h241l148 -260q10 -16 10 -20q0 -6 -5 -10.5 t-11 -4.5q-8 0 -27 13l-232 163q-16 13 -28 13q-9 0 -35 -13l-358 -163q-18 -9 -29 -9q-7 0 -11.5 4t-4.5 9z" />
<glyph unicode="&#xcf;" horiz-adv-x="739" d="M-37 10q0 12 8.5 16.5t32.5 6.5q79 9 120 41t72 107.5t74 246.5l136 510q55 198 55 260q0 85 -60 113q-21 11 -38 14.5t-74 7.5q-17 0 -17 13q0 14 7.5 19t27.5 5q48 0 142.5 -4t105.5 -4l338 8q16 0 16 -14q0 -12 -8 -17t-31 -6q-48 -6 -78 -17.5t-55.5 -33.5 t-46.5 -69.5t-40 -108.5t-46 -166l-135 -510q-55 -197 -55 -268q0 -68 34 -95.5t123 -31.5q17 0 17 -13q0 -24 -33 -24q-44 0 -144.5 4t-127.5 4q-49 0 -295 -8h-4q-21 0 -21 14zM362 1624q0 44 31 77.5t74 33.5q28 0 52 -15t38 -40t14 -54q0 -31 -14.5 -60t-38 -47 t-49.5 -18q-42 0 -74.5 37t-32.5 86zM805 1624q0 45 31 78t73 33q28 0 52.5 -15t38.5 -40t14 -54q0 -47 -31.5 -86t-71.5 -39q-27 0 -51.5 17t-39.5 45.5t-15 60.5z" />
<glyph unicode="&#xd0;" horiz-adv-x="1482" d="M-51 10q0 12 8.5 16.5t32.5 6.5q48 6 78 17.5t55.5 33.5t46.5 69.5t40 108.5t46 166l68 252h-197l16 61h197l51 195q55 207 55 262q0 85 -59 115q-31 14 -113 20q-16 0 -16 13q0 24 25 24q16 0 24 -2q86 -6 185 -6q40 0 339 8q283 8 452 -161t169 -459q0 -177 -71.5 -335 t-200.5 -265q-101 -85 -211 -119.5t-279 -34.5q-49 0 -211 4t-198 4q-152 0 -308 -8h-4q-20 0 -20 14zM387 139q0 -98 186 -98q327 0 514 276q71 103 109.5 227.5t38.5 250.5q0 240 -123 383t-330 143q-65 0 -82 -35q-15 -28 -31.5 -81t-99.5 -343l-30 -121h333l-16 -61 h-334l-59 -215q-57 -220 -66.5 -260.5t-9.5 -65.5z" />
<glyph unicode="&#xd1;" horiz-adv-x="1462" d="M-57 10q0 11 9 16.5t32 6.5q30 4 51 8.5t42 15t35 23t29.5 35t27 48.5t25.5 67.5t26.5 87t29.5 110.5l145 543q39 147 39 209q0 57 -56.5 99t-148.5 52q-34 5 -34 23q0 10 8 13t37 3h342q27 -37 67 -117t174 -362q61 -124 295 -615l178 662q32 120 43 172.5t11 89.5 q0 39 -15.5 68.5t-44.5 42.5q-21 11 -38 14.5t-74 7.5q-17 0 -17 13q0 9 4 14t12.5 7.5t24.5 2.5q18 0 68 -3t98 -3q192 0 268 6h6q17 0 17 -14q0 -12 -7.5 -17t-31.5 -6q-48 -6 -78 -17.5t-55.5 -33.5t-46.5 -69.5t-40 -108.5t-46 -166l-240 -899q-14 -59 -49 -59 q-17 0 -27 15t-32 71q-44 109 -88 201t-261 534q-89 179 -161 352l-7 -23q-8 -29 -25 -91t-20 -74l-143 -537q-55 -207 -55 -270q0 -66 34.5 -93.5t125.5 -31.5q16 0 16 -13q0 -24 -33 -24h-33q-120 8 -153 8q-1 0 -32 -1t-69 -3t-79 -3t-60 -1q-20 0 -20 14zM672 1501 q0 46 37 109q76 141 188 141q36 0 85 -17.5t202 -84.5q43 -21 82 -21q74 0 123 115q5 18 20 18q4 0 8 -1.5t7 -4t4.5 -6.5t1.5 -8q0 -16 -7 -40t-18.5 -49.5t-26.5 -50.5t-30 -42q-61 -70 -134 -70q-39 0 -74.5 11.5t-121.5 53.5q-122 58 -180 58q-41 0 -69.5 -24.5 t-51.5 -80.5q-11 -28 -27 -28q-18 0 -18 22z" />
<glyph unicode="&#xd2;" horiz-adv-x="1361" d="M127 496q0 170 85 362t218 322q219 213 471 213q205 0 333 -144t128 -375q0 -160 -67 -326.5t-189 -309.5q-117 -137 -242.5 -202t-271.5 -65q-217 0 -341 140t-124 385zM348 387q0 -179 66.5 -277t187.5 -98q171 0 318 209q98 141 160.5 362.5t62.5 426.5 q0 163 -63 253.5t-177 90.5q-133 0 -244.5 -99.5t-193.5 -291.5q-54 -126 -85.5 -280.5t-31.5 -295.5zM721 1755q0 14 29 14h313l184 -258q25 -33 25 -41q0 -7 -7 -12.5t-16 -5.5q-6 0 -43 21l-467 264q-18 11 -18 18z" />
<glyph unicode="&#xd3;" horiz-adv-x="1361" d="M127 496q0 170 85 362t218 322q219 213 471 213q205 0 333 -144t128 -375q0 -160 -67 -326.5t-189 -309.5q-117 -137 -242.5 -202t-271.5 -65q-217 0 -341 140t-124 385zM348 387q0 -179 66.5 -277t187.5 -98q171 0 318 209q98 141 160.5 362.5t62.5 426.5 q0 163 -63 253.5t-177 90.5q-133 0 -244.5 -99.5t-193.5 -291.5q-54 -126 -85.5 -280.5t-31.5 -295.5zM721 1470q0 8 27 41l182 258h313q29 0 29 -14q0 -9 -19 -18l-467 -264q-37 -21 -43 -21q-9 0 -15.5 5.5t-6.5 12.5z" />
<glyph unicode="&#xd4;" horiz-adv-x="1361" d="M127 496q0 170 85 362t218 322q219 213 471 213q205 0 333 -144t128 -375q0 -160 -67 -326.5t-189 -309.5q-117 -137 -242.5 -202t-271.5 -65q-217 0 -341 140t-124 385zM348 387q0 -179 66.5 -277t187.5 -98q171 0 318 209q98 141 160.5 362.5t62.5 426.5 q0 163 -63 253.5t-177 90.5q-133 0 -244.5 -99.5t-193.5 -291.5q-54 -126 -85.5 -280.5t-31.5 -295.5zM590 1477q0 10 22 28l318 250h241l148 -260q10 -16 10 -20q0 -6 -5 -10.5t-11 -4.5q-9 0 -25 13l-231 163q-20 13 -29 13q-8 0 -37 -13l-358 -163q-18 -9 -27 -9 q-16 0 -16 13z" />
<glyph unicode="&#xd5;" horiz-adv-x="1361" d="M127 496q0 170 85 362t218 322q219 213 471 213q205 0 333 -144t128 -375q0 -160 -67 -326.5t-189 -309.5q-117 -137 -242.5 -202t-271.5 -65q-217 0 -341 140t-124 385zM348 387q0 -179 66.5 -277t187.5 -98q171 0 318 209q98 141 160.5 362.5t62.5 426.5 q0 163 -63 253.5t-177 90.5q-133 0 -244.5 -99.5t-193.5 -291.5q-54 -126 -85.5 -280.5t-31.5 -295.5zM621 1501q0 48 36 109q77 141 189 141q36 0 85 -17.5t202 -84.5q43 -21 81 -21q74 0 123 115q8 18 21 18q20 0 20 -20q0 -32 -25.5 -89.5t-56.5 -92.5q-61 -70 -133 -70 q-39 0 -74.5 11.5t-121.5 53.5q-122 58 -183 58q-40 0 -67.5 -24.5t-50.5 -80.5q-11 -28 -27 -28q-18 0 -18 22z" />
<glyph unicode="&#xd6;" horiz-adv-x="1361" d="M127 496q0 170 85 362t218 322q219 213 471 213q205 0 333 -144t128 -375q0 -160 -67 -326.5t-189 -309.5q-117 -137 -242.5 -202t-271.5 -65q-217 0 -341 140t-124 385zM348 387q0 -179 66.5 -277t187.5 -98q171 0 318 209q98 141 160.5 362.5t62.5 426.5 q0 163 -63 253.5t-177 90.5q-133 0 -244.5 -99.5t-193.5 -291.5q-54 -126 -85.5 -280.5t-31.5 -295.5zM637 1622q0 44 33.5 77.5t79.5 33.5q47 0 82.5 -34.5t35.5 -80.5q0 -47 -33 -82t-79 -35q-47 0 -83 37t-36 84zM1128 1622q0 44 33.5 77.5t79.5 33.5q47 0 83 -34.5 t36 -80.5q0 -47 -33.5 -82t-79.5 -35q-47 0 -83 37t-36 84z" />
<glyph unicode="&#xd7;" d="M180 373l328 325l-326 324l60 59l323 -325l326 327l61 -61l-325 -326l323 -325l-59 -60l-324 326l-325 -326z" />
<glyph unicode="&#xd8;" horiz-adv-x="1361" d="M72 -68l164 199q-111 145 -111 358q0 175 83.5 365t221.5 328q213 213 471 213q164 0 295 -105l160 195l49 -43l-164 -199q58 -67 89.5 -163.5t31.5 -205.5q0 -159 -67.5 -326.5t-188.5 -309.5q-228 -267 -514 -267q-188 0 -311 111l-158 -191zM346 385q0 -64 8 -111 l762 920q-60 162 -213 162q-133 0 -245 -99.5t-195 -291.5q-54 -125 -85.5 -283t-31.5 -297zM373 193q70 -181 229 -181q174 0 318 209q97 141 160 363t63 424q0 54 -8 106z" />
<glyph unicode="&#xd9;" horiz-adv-x="1501" d="M236 319q0 78 30 195l113 424q55 198 55 260q0 85 -59 115q-31 14 -115 20q-16 0 -16 15q0 9 6.5 15.5t15.5 6.5t27 -2q76 -4 262 -4q170 0 305 6h6q17 0 17 -14q0 -12 -7.5 -17t-31.5 -6q-48 -6 -78 -17.5t-55.5 -33.5t-46.5 -69.5t-40 -108.5t-46 -166l-121 -451 q-33 -132 -33 -219q0 -96 49 -145q41 -44 111.5 -69t152.5 -25q262 0 396 241q92 171 208 615l15 53q55 203 55 260q0 83 -59 113q-21 11 -38 14.5t-75 7.5q-16 0 -16 13q0 14 7 19t27 5q14 0 41 -2q49 -4 164 -4q73 0 232 6h6q16 0 16 -14q0 -12 -7.5 -17t-31.5 -6 q-79 -9 -119.5 -40.5t-71 -106.5t-73.5 -248l-16 -57q-135 -511 -244 -682q-148 -228 -448 -228q-212 0 -340.5 95t-128.5 253zM793 1755q0 14 28 14h314l184 -258q24 -32 24 -41q0 -7 -6.5 -12.5t-15.5 -5.5q-6 0 -43 21l-467 264q-18 11 -18 18z" />
<glyph unicode="&#xda;" horiz-adv-x="1501" d="M236 319q0 78 30 195l113 424q55 198 55 260q0 85 -59 115q-31 14 -115 20q-16 0 -16 15q0 9 6.5 15.5t15.5 6.5t27 -2q76 -4 262 -4q170 0 305 6h6q17 0 17 -14q0 -12 -7.5 -17t-31.5 -6q-48 -6 -78 -17.5t-55.5 -33.5t-46.5 -69.5t-40 -108.5t-46 -166l-121 -451 q-33 -132 -33 -219q0 -96 49 -145q41 -44 111.5 -69t152.5 -25q262 0 396 241q92 171 208 615l15 53q55 203 55 260q0 83 -59 113q-21 11 -38 14.5t-75 7.5q-16 0 -16 13q0 14 7 19t27 5q14 0 41 -2q49 -4 164 -4q73 0 232 6h6q16 0 16 -14q0 -12 -7.5 -17t-31.5 -6 q-79 -9 -119.5 -40.5t-71 -106.5t-73.5 -248l-16 -57q-135 -511 -244 -682q-148 -228 -448 -228q-212 0 -340.5 95t-128.5 253zM793 1470q0 9 26 41l182 258h314q28 0 28 -14q0 -7 -18 -18l-467 -264q-37 -21 -43 -21q-9 0 -15.5 5.5t-6.5 12.5z" />
<glyph unicode="&#xdb;" horiz-adv-x="1501" d="M236 319q0 78 30 195l113 424q55 198 55 260q0 85 -59 115q-31 14 -115 20q-16 0 -16 15q0 9 6.5 15.5t15.5 6.5t27 -2q76 -4 262 -4q170 0 305 6h6q17 0 17 -14q0 -12 -7.5 -17t-31.5 -6q-48 -6 -78 -17.5t-55.5 -33.5t-46.5 -69.5t-40 -108.5t-46 -166l-121 -451 q-33 -132 -33 -219q0 -96 49 -145q41 -44 111.5 -69t152.5 -25q262 0 396 241q92 171 208 615l15 53q55 203 55 260q0 83 -59 113q-21 11 -38 14.5t-75 7.5q-16 0 -16 13q0 14 7 19t27 5q14 0 41 -2q49 -4 164 -4q73 0 232 6h6q16 0 16 -14q0 -12 -7.5 -17t-31.5 -6 q-79 -9 -119.5 -40.5t-71 -106.5t-73.5 -248l-16 -57q-135 -511 -244 -682q-148 -228 -448 -228q-212 0 -340.5 95t-128.5 253zM662 1477q0 10 22 28l317 250h242l148 -260q10 -16 10 -20q0 -6 -5.5 -10.5t-11.5 -4.5q-8 0 -24 13l-232 163q-20 13 -28 13t-37 -13l-358 -163 q-18 -9 -27 -9q-16 0 -16 13z" />
<glyph unicode="&#xdc;" horiz-adv-x="1501" d="M236 319q0 78 30 195l113 424q55 198 55 260q0 85 -59 115q-31 14 -115 20q-16 0 -16 15q0 9 6.5 15.5t15.5 6.5t27 -2q76 -4 262 -4q170 0 305 6h6q17 0 17 -14q0 -12 -7.5 -17t-31.5 -6q-48 -6 -78 -17.5t-55.5 -33.5t-46.5 -69.5t-40 -108.5t-46 -166l-121 -451 q-33 -132 -33 -219q0 -96 49 -145q41 -44 111.5 -69t152.5 -25q262 0 396 241q92 171 208 615l15 53q55 203 55 260q0 83 -59 113q-21 11 -38 14.5t-75 7.5q-16 0 -16 13q0 14 7 19t27 5q14 0 41 -2q49 -4 164 -4q73 0 232 6h6q16 0 16 -14q0 -12 -7.5 -17t-31.5 -6 q-79 -9 -119.5 -40.5t-71 -106.5t-73.5 -248l-16 -57q-135 -511 -244 -682q-148 -228 -448 -228q-212 0 -340.5 95t-128.5 253zM709 1622q0 44 33.5 77.5t78.5 33.5q47 0 83 -34.5t36 -80.5q0 -47 -34 -82t-81 -35q-46 0 -81 37t-35 84zM1200 1622q0 44 33.5 77.5t79.5 33.5 q47 0 83 -34.5t36 -80.5q0 -47 -34 -82t-81 -35q-46 0 -81.5 37t-35.5 84z" />
<glyph unicode="&#xdd;" horiz-adv-x="1359" d="M145 967q0 19 24.5 81.5t51.5 112.5q54 100 146 164t182 64q114 0 189 -111t75 -279q0 -35 -8 -186q89 177 225 336q104 126 200 185t195 59q69 0 115.5 -42.5t46.5 -105.5q0 -43 -26.5 -71.5t-67.5 -28.5q-30 0 -52 19t-50 69q-44 78 -97 78q-49 0 -124.5 -67 t-151.5 -177q-118 -168 -184 -334q-83 -208 -103 -284l-6 -21q-55 -205 -55 -270q0 -63 35 -91.5t118 -29.5q52 -1 64 -5t12 -16q0 -20 -35 -20t-210 4t-242 4q-87 0 -160 -8l-53 -2q-35 0 -35 14q0 15 11 19.5t56 9.5q42 8 69.5 16t53.5 20t44 32.5t34.5 45.5t31.5 67.5 t29 89.5t33 120l49 184q43 163 59.5 254t16.5 172q0 125 -44.5 191.5t-127.5 66.5q-85 0 -158 -72t-114 -198q-21 -60 -26 -70t-17 -10q-8 0 -13.5 6t-5.5 15zM721 1470q0 9 24 41l185 258h313q29 0 29 -14q0 -6 -19 -18l-467 -264q-37 -21 -43 -21q-9 0 -15.5 5.5 t-6.5 12.5z" />
<glyph unicode="&#xde;" horiz-adv-x="1204" d="M-82 0l10 37h45q91 0 121.5 27.5t59.5 136.5l258 962q20 81 20 105q0 35 -25.5 48t-95.5 13h-41l9 37h552l-10 -37h-73q-89 0 -117.5 -26t-57.5 -134l-20 -73h272q179 0 256 -39q57 -31 91 -91t34 -132q0 -132 -73.5 -242.5t-201 -174t-280.5 -63.5h-297l-41 -153 q-20 -81 -20 -103q0 -34 24.5 -47.5t85.5 -13.5h84l-10 -37h-559zM369 406h213q107 0 168.5 19.5t128.5 74.5q71 59 114 152.5t43 189.5q0 104 -64 154.5t-196 50.5h-235z" />
<glyph unicode="&#xdf;" horiz-adv-x="1015" d="M18 0l258 961q61 230 168.5 348t255.5 118q126 0 210.5 -80t84.5 -200t-80 -202t-235 -120q138 -25 202 -93t64 -191q0 -137 -68.5 -266t-180.5 -209t-230 -80q-85 0 -147 50.5t-62 119.5q0 41 24 67.5t62 26.5q45 0 63.5 -26.5t18.5 -84.5q0 -110 66 -110q69 0 137 79.5 t110.5 205.5t42.5 253q0 113 -47.5 170.5t-150.5 69.5q-27 3 -27 18q0 22 29 25q123 9 198.5 106t75.5 246q0 85 -40.5 137t-106.5 52q-49 0 -95.5 -27.5t-80.5 -77.5q-51 -72 -97 -237l-280 -1049h-142z" />
<glyph unicode="&#xe0;" horiz-adv-x="927" d="M27 168q0 104 71.5 255t180.5 279q154 179 288 179q83 0 133 -78l50 63h102q-53 -119 -125 -379q-62 -224 -73 -273t-11 -91q0 -43 37 -43q29 0 62 24t89 84q9 9 17 9q7 0 12.5 -6.5t5.5 -14.5q0 -21 -82 -92q-116 -104 -200 -104q-41 0 -64.5 27.5t-23.5 74.5 q0 45 26 149q-8 -12 -14 -18q-50 -68 -71 -92t-58 -55q-100 -86 -189 -86q-71 0 -117 53t-46 135zM184 227q0 -69 25.5 -107t69.5 -38q118 0 227 205q47 87 82 208t35 195q0 55 -30 95t-71 40q-40 0 -89.5 -38.5t-84.5 -96.5q-71 -118 -117.5 -248.5t-46.5 -214.5zM510 1380 q0 23 19.5 39.5t48.5 16.5q34 0 67.5 -26.5t50.5 -66.5l125 -296q6 -15 6 -27q0 -9 -6.5 -15t-15.5 -6q-16 0 -35 25l-215 258q-45 54 -45 98z" />
<glyph unicode="&#xe1;" horiz-adv-x="927" d="M27 168q0 104 71.5 255t180.5 279q154 179 288 179q83 0 133 -78l50 63h102q-53 -119 -125 -379q-62 -224 -73 -273t-11 -91q0 -43 37 -43q29 0 62 24t89 84q9 9 17 9q7 0 12.5 -6.5t5.5 -14.5q0 -21 -82 -92q-116 -104 -200 -104q-41 0 -64.5 27.5t-23.5 74.5 q0 45 26 149q-8 -12 -14 -18q-50 -68 -71 -92t-58 -55q-100 -86 -189 -86q-71 0 -117 53t-46 135zM184 227q0 -69 25.5 -107t69.5 -38q118 0 227 205q47 87 82 208t35 195q0 55 -30 95t-71 40q-40 0 -89.5 -38.5t-84.5 -96.5q-71 -118 -117.5 -248.5t-46.5 -214.5zM510 1020 q0 11 8 27l123 296q19 42 51.5 67.5t67.5 25.5q29 0 48 -15.5t19 -40.5q0 -44 -45 -98l-213 -258q-22 -25 -37 -25q-9 0 -15.5 6.5t-6.5 14.5z" />
<glyph unicode="&#xe2;" horiz-adv-x="927" d="M27 168q0 104 71.5 255t180.5 279q154 179 288 179q83 0 133 -78l50 63h102q-53 -119 -125 -379q-62 -224 -73 -273t-11 -91q0 -43 37 -43q29 0 62 24t89 84q9 9 17 9q7 0 12.5 -6.5t5.5 -14.5q0 -21 -82 -92q-116 -104 -200 -104q-41 0 -64.5 27.5t-23.5 74.5 q0 45 26 149q-8 -12 -14 -18q-50 -68 -71 -92t-58 -55q-100 -86 -189 -86q-71 0 -117 53t-46 135zM184 227q0 -69 25.5 -107t69.5 -38q118 0 227 205q47 87 82 208t35 195q0 55 -30 95t-71 40q-40 0 -89.5 -38.5t-84.5 -96.5q-71 -118 -117.5 -248.5t-46.5 -214.5zM334 1024 q0 12 18 33l371 407h129l55 -407q2 -14 2 -31q0 -27 -26 -27q-16 0 -23.5 9t-21.5 49l-43 104q-36 82 -70 82q-32 0 -94 -47l-219 -174q-33 -23 -52 -23q-12 0 -19 7t-7 18z" />
<glyph unicode="&#xe3;" horiz-adv-x="927" d="M27 168q0 104 71.5 255t180.5 279q154 179 288 179q83 0 133 -78l50 63h102q-53 -119 -125 -379q-62 -224 -73 -273t-11 -91q0 -43 37 -43q29 0 62 24t89 84q9 9 17 9q7 0 12.5 -6.5t5.5 -14.5q0 -21 -82 -92q-116 -104 -200 -104q-41 0 -64.5 27.5t-23.5 74.5 q0 45 26 149q-8 -12 -14 -18q-50 -68 -71 -92t-58 -55q-100 -86 -189 -86q-71 0 -117 53t-46 135zM184 227q0 -69 25.5 -107t69.5 -38q118 0 227 205q47 87 82 208t35 195q0 55 -30 95t-71 40q-40 0 -89.5 -38.5t-84.5 -96.5q-71 -118 -117.5 -248.5t-46.5 -214.5zM346 1112 q0 26 37 113q56 121 164 121q60 0 151 -62q64 -42 95 -56t63 -14q37 0 58.5 21t46.5 80q12 24 24 24q6 0 11 -5.5t5 -12.5q0 -26 -21.5 -81t-41.5 -83q-54 -70 -121 -70q-60 0 -164 66q-78 47 -104 59.5t-51 12.5q-30 0 -62 -30t-49 -75q-6 -17 -10 -22.5t-12 -5.5 t-13.5 5.5t-5.5 14.5z" />
<glyph unicode="&#xe4;" horiz-adv-x="927" d="M27 168q0 104 71.5 255t180.5 279q154 179 288 179q83 0 133 -78l50 63h102q-53 -119 -125 -379q-62 -224 -73 -273t-11 -91q0 -43 37 -43q29 0 62 24t89 84q9 9 17 9q7 0 12.5 -6.5t5.5 -14.5q0 -21 -82 -92q-116 -104 -200 -104q-41 0 -64.5 27.5t-23.5 74.5 q0 45 26 149q-8 -12 -14 -18q-50 -68 -71 -92t-58 -55q-100 -86 -189 -86q-71 0 -117 53t-46 135zM184 227q0 -69 25.5 -107t69.5 -38q118 0 227 205q47 87 82 208t35 195q0 55 -30 95t-71 40q-40 0 -89.5 -38.5t-84.5 -96.5q-71 -118 -117.5 -248.5t-46.5 -214.5zM412 1221 q0 37 28 64.5t66 27.5q40 0 70 -29t30 -67q0 -40 -28.5 -69.5t-67.5 -29.5q-38 0 -68 31t-30 72zM739 1221q0 37 28.5 64.5t66.5 27.5q40 0 70 -29t30 -67q0 -40 -28.5 -69.5t-67.5 -29.5t-69 31t-30 72z" />
<glyph unicode="&#xe5;" horiz-adv-x="927" d="M27 168q0 104 71.5 255t180.5 279q154 179 288 179q83 0 133 -78l50 63h102q-53 -119 -125 -379q-62 -224 -73 -273t-11 -91q0 -43 37 -43q29 0 62 24t89 84q9 9 17 9q7 0 12.5 -6.5t5.5 -14.5q0 -21 -82 -92q-116 -104 -200 -104q-41 0 -64.5 27.5t-23.5 74.5 q0 45 26 149q-8 -12 -14 -18q-50 -68 -71 -92t-58 -55q-100 -86 -189 -86q-71 0 -117 53t-46 135zM184 227q0 -69 25.5 -107t69.5 -38q118 0 227 205q47 87 82 208t35 195q0 55 -30 95t-71 40q-40 0 -89.5 -38.5t-84.5 -96.5q-71 -118 -117.5 -248.5t-46.5 -214.5zM508 1219 q0 64 47.5 110.5t112.5 46.5q68 0 118 -48.5t50 -115.5q0 -66 -48 -114.5t-114 -48.5t-116 51t-50 119zM575 1217q0 -40 29.5 -70.5t69.5 -30.5q38 0 66 29t28 67t-29 67.5t-69 29.5q-38 0 -66.5 -27.5t-28.5 -64.5z" />
<glyph unicode="&#xe6;" horiz-adv-x="1181" d="M20 139q0 132 91.5 279.5t238.5 251.5q130 94 303 152.5t318 58.5q90 0 146.5 -38t56.5 -98q0 -102 -134 -195.5t-360 -148.5q-25 -92 -25 -161q0 -78 33 -128.5t84 -50.5q53 0 112 40t144 132q15 15 25 15q7 0 12.5 -5.5t5.5 -13.5q0 -15 -49 -67q-95 -95 -172 -138.5 t-150 -43.5q-85 0 -137.5 60t-52.5 155q0 12 2 20q-120 -130 -196.5 -182.5t-147.5 -52.5q-67 0 -107.5 43.5t-40.5 115.5zM174 188q0 -40 26 -71t60 -31q95 0 252 201q12 120 116 290t214 252q-204 -29 -357 -135q-123 -85 -217 -237t-94 -269zM696 453q103 17 183 61 q72 38 115.5 108.5t43.5 145.5q0 31 -21.5 53.5t-51.5 22.5q-60 0 -125 -93.5t-144 -297.5z" />
<glyph unicode="&#xe7;" horiz-adv-x="708" d="M41 -360q0 9 7.5 12.5t57.5 21.5q40 15 65.5 41.5t25.5 53.5q0 23 -13 39.5t-53 46.5l115 125q-95 0 -149 63.5t-54 173.5q0 124 57 258t158 250q141 156 279 156q65 0 116.5 -42t51.5 -96q0 -23 -19 -39t-45 -16q-23 0 -38 13t-34 49q-20 42 -38.5 59.5t-41.5 17.5 q-70 0 -141 -116q-64 -102 -105.5 -238t-41.5 -242q0 -87 31 -138.5t83 -51.5q70 0 156 76q18 16 92 106q14 17 25 17q6 0 11 -5.5t5 -11.5q0 -18 -36 -63t-87 -92q-81 -71 -184 -86l-37 -58q72 -35 72 -106q0 -94 -115 -156q-82 -45 -145 -45q-31 0 -31 23z" />
<glyph unicode="&#xe8;" horiz-adv-x="704" d="M53 238q0 130 60 259t166 232q155 152 284 152q59 0 96 -36.5t37 -94.5q0 -88 -66.5 -169t-187.5 -139q-105 -52 -204 -67q-25 -95 -25 -182q0 -68 29.5 -111t76.5 -43q33 0 76 22.5t82 59.5q30 30 78 94q10 16 20 16q15 0 15 -20q0 -29 -53 -92q-114 -142 -258 -142 q-104 0 -165 70.5t-61 190.5zM252 432q78 15 158.5 74t132 135.5t51.5 140.5q0 26 -15 42t-40 16q-75 0 -159.5 -120.5t-127.5 -287.5zM399 1380q0 23 19.5 39.5t48.5 16.5q33 0 67 -27t52 -66l125 -296q6 -15 6 -29q0 -7 -7 -13t-16 -6q-16 0 -35 25l-215 258 q-45 54 -45 98z" />
<glyph unicode="&#xe9;" horiz-adv-x="704" d="M53 238q0 130 60 259t166 232q155 152 284 152q59 0 96 -36.5t37 -94.5q0 -88 -66.5 -169t-187.5 -139q-105 -52 -204 -67q-25 -95 -25 -182q0 -68 29.5 -111t76.5 -43q33 0 76 22.5t82 59.5q30 30 78 94q10 16 20 16q15 0 15 -20q0 -29 -53 -92q-114 -142 -258 -142 q-104 0 -165 70.5t-61 190.5zM252 432q78 15 158.5 74t132 135.5t51.5 140.5q0 26 -15 42t-40 16q-75 0 -159.5 -120.5t-127.5 -287.5zM399 1018q0 14 9 29l122 296q19 42 51.5 67.5t67.5 25.5q29 0 48.5 -15.5t19.5 -40.5q0 -47 -45 -98l-215 -258q-22 -27 -35 -27 q-9 0 -16 6.5t-7 14.5z" />
<glyph unicode="&#xea;" horiz-adv-x="704" d="M53 238q0 130 60 259t166 232q155 152 284 152q59 0 96 -36.5t37 -94.5q0 -88 -66.5 -169t-187.5 -139q-105 -52 -204 -67q-25 -95 -25 -182q0 -68 29.5 -111t76.5 -43q33 0 76 22.5t82 59.5q30 30 78 94q10 16 20 16q15 0 15 -20q0 -29 -53 -92q-114 -142 -258 -142 q-104 0 -165 70.5t-61 190.5zM223 1024q0 11 19 33l370 407h129l56 -407l2 -31q0 -12 -7.5 -19.5t-19.5 -7.5q-17 0 -23.5 8.5t-21.5 49.5l-43 104q-36 82 -70 82q-32 0 -94 -47l-221 -174q-30 -23 -49 -23q-12 0 -19.5 7t-7.5 18zM252 432q78 15 158.5 74t132 135.5 t51.5 140.5q0 26 -15 42t-40 16q-75 0 -159.5 -120.5t-127.5 -287.5z" />
<glyph unicode="&#xeb;" horiz-adv-x="704" d="M53 238q0 130 60 259t166 232q155 152 284 152q59 0 96 -36.5t37 -94.5q0 -88 -66.5 -169t-187.5 -139q-105 -52 -204 -67q-25 -95 -25 -182q0 -68 29.5 -111t76.5 -43q33 0 76 22.5t82 59.5q30 30 78 94q10 16 20 16q15 0 15 -20q0 -29 -53 -92q-114 -142 -258 -142 q-104 0 -165 70.5t-61 190.5zM252 432q78 15 158.5 74t132 135.5t51.5 140.5q0 26 -15 42t-40 16q-75 0 -159.5 -120.5t-127.5 -287.5zM301 1221q0 37 28 64.5t66 27.5q40 0 70.5 -29t30.5 -67q0 -40 -28.5 -69.5t-68.5 -29.5q-38 0 -68 31t-30 72zM629 1221q0 37 28 64.5 t66 27.5q40 0 70 -29t30 -67q0 -40 -28.5 -69.5t-67.5 -29.5q-38 0 -68 31t-30 72z" />
<glyph unicode="&#xec;" horiz-adv-x="565" d="M90 66q0 32 23 102l174 520q16 46 16 68q1 15 -9 28t-24 13q-23 0 -49.5 -19t-77.5 -73q-14 -17 -24 -17q-7 0 -13 6t-6 13q0 16 43 59q120 117 222 117q47 0 72.5 -21t25.5 -61q0 -18 -19 -80l-180 -531q-24 -71 -24 -104q0 -14 7 -23.5t19 -9.5q52 0 174 119 q12 12 21 12q8 0 14 -5.5t6 -12.5q0 -18 -59 -72q-131 -114 -227 -114q-46 0 -75.5 24.5t-29.5 61.5zM236 1380q0 24 19 40t48 16q34 0 68 -26.5t51 -66.5l123 -296q8 -13 8 -29q0 -7 -7 -13t-16 -6q-15 0 -34 25l-215 258q-45 51 -45 98z" />
<glyph unicode="&#xed;" horiz-adv-x="565" d="M90 66q0 32 23 102l174 520q16 46 16 68q1 15 -9 28t-24 13q-23 0 -49.5 -19t-77.5 -73q-14 -17 -24 -17q-7 0 -13 6t-6 13q0 16 43 59q120 117 222 117q47 0 72.5 -21t25.5 -61q0 -18 -19 -80l-180 -531q-24 -71 -24 -104q0 -14 7 -23.5t19 -9.5q52 0 174 119 q12 12 21 12q8 0 14 -5.5t6 -12.5q0 -18 -59 -72q-131 -114 -227 -114q-46 0 -75.5 24.5t-29.5 61.5zM330 1018q0 14 6 29l125 296q19 42 51 67.5t68 25.5q29 0 48 -15.5t19 -40.5q0 -44 -45 -98l-215 -258q-24 -27 -35 -27q-9 0 -15.5 6.5t-6.5 14.5z" />
<glyph unicode="&#xee;" horiz-adv-x="565" d="M90 66q0 32 23 102l174 520q16 46 16 68q1 15 -9 28t-24 13q-23 0 -49.5 -19t-77.5 -73q-14 -17 -24 -17q-7 0 -13 6t-6 13q0 16 43 59q120 117 222 117q47 0 72.5 -21t25.5 -61q0 -18 -19 -80l-180 -531q-24 -71 -24 -104q0 -14 7 -23.5t19 -9.5q52 0 174 119 q12 12 21 12q8 0 14 -5.5t6 -12.5q0 -18 -59 -72q-131 -114 -227 -114q-46 0 -75.5 24.5t-29.5 61.5zM154 1024q0 12 18 33l369 407h131l53 -407q1 -6 2 -13.5t1.5 -11.5t0.5 -6q0 -11 -7.5 -19t-19.5 -8q-17 0 -23.5 8.5t-21.5 49.5l-43 104q-19 44 -35 63t-34 19 q-32 0 -94 -47l-222 -174q-30 -23 -49 -23q-12 0 -19 7t-7 18z" />
<glyph unicode="&#xef;" horiz-adv-x="565" d="M90 66q0 32 23 102l174 520q16 46 16 68q1 15 -9 28t-24 13q-23 0 -49.5 -19t-77.5 -73q-14 -17 -24 -17q-7 0 -13 6t-6 13q0 16 43 59q120 117 222 117q47 0 72.5 -21t25.5 -61q0 -18 -19 -80l-180 -531q-24 -71 -24 -104q0 -14 7 -23.5t19 -9.5q52 0 174 119 q12 12 21 12q8 0 14 -5.5t6 -12.5q0 -18 -59 -72q-131 -114 -227 -114q-46 0 -75.5 24.5t-29.5 61.5zM258 1221q0 37 26.5 64.5t61.5 27.5t60.5 -26.5t25.5 -63.5q0 -40 -26.5 -72.5t-59.5 -32.5q-34 0 -61 31.5t-27 71.5zM553 1221q0 37 26.5 64.5t61.5 27.5t60.5 -26.5 t25.5 -63.5q0 -40 -26.5 -72.5t-59.5 -32.5q-34 0 -61 31.5t-27 71.5z" />
<glyph unicode="&#xf0;" horiz-adv-x="1079" d="M76 309q0 152 83.5 293t221 227t285.5 86q58 0 111.5 -19.5t84.5 -51.5q18 -20 49 -84q-8 157 -43 258t-120 205l-199 -133l-23 38l193 127q-18 15 -57 54q-26 23 -87 61l31 35q36 -15 91.5 -50t82.5 -59l191 127l22 -37l-180 -120q211 -205 211 -549q0 -322 -170 -520 q-92 -107 -208 -166.5t-234 -59.5q-154 0 -245 92t-91 246zM225 279q0 -129 50 -195t147 -66q138 0 250 121q87 95 138.5 228.5t51.5 263.5q0 114 -52.5 175.5t-147.5 61.5q-68 0 -132.5 -29t-111.5 -81q-94 -100 -143.5 -223.5t-49.5 -255.5z" />
<glyph unicode="&#xf1;" horiz-adv-x="1011" d="M72 0l186 559q12 37 24.5 99t12.5 85t-10 36.5t-25 13.5q-17 0 -52 -26t-71 -67q-25 -29 -31.5 -35t-13.5 -6t-12.5 5.5t-5.5 13.5q0 24 76 94q115 109 204 109q43 0 62.5 -24.5t19.5 -78.5q0 -101 -33 -219q53 82 79 118.5t57 70.5q121 133 225 133q51 0 82 -35.5 t31 -93.5q0 -25 -23 -115l-88 -324q-31 -125 -36 -147t-5 -41q0 -18 9.5 -30.5t21.5 -12.5q45 0 151 135q11 14 21 14q7 0 12.5 -6t5.5 -12q0 -22 -74 -104q-59 -68 -109 -98.5t-104 -30.5q-47 0 -72.5 26.5t-25.5 75.5q0 39 33 147l111 373q26 95 26 135q0 30 -10.5 48 t-28.5 18q-69 0 -185 -169.5t-208 -404.5l-90 -229h-137zM387 1112q0 26 37 113q31 63 70 92t94 29q64 0 151 -62q67 -43 97 -56.5t63 -13.5q37 0 58 20.5t47 80.5q12 24 24 24q6 0 11 -5.5t5 -12.5q0 -26 -21.5 -81t-41.5 -83q-54 -70 -123 -70q-60 0 -164 66 q-78 47 -104 59.5t-51 12.5q-30 0 -62 -30t-49 -75q-6 -17 -10 -22.5t-12 -5.5t-13.5 5.5t-5.5 14.5z" />
<glyph unicode="&#xf2;" horiz-adv-x="911" d="M72 348q0 103 43.5 212.5t113.5 182.5q63 66 144.5 102t167.5 36q135 0 216 -98.5t81 -264.5q0 -98 -41.5 -203.5t-112.5 -187.5q-126 -147 -307 -147q-140 0 -222.5 99.5t-82.5 268.5zM219 256q0 -117 37.5 -178.5t108.5 -61.5q67 0 123.5 54.5t109.5 169.5 q88 190 88 403q0 95 -35 147t-100 52q-100 0 -197 -144q-57 -88 -96 -214.5t-39 -227.5zM473 1380q0 23 19.5 39.5t48.5 16.5q34 0 67.5 -26.5t50.5 -66.5l125 -296q7 -18 7 -27t-7 -15t-16 -6q-16 0 -35 25l-215 258q-45 54 -45 98z" />
<glyph unicode="&#xf3;" horiz-adv-x="911" d="M72 348q0 103 43.5 212.5t113.5 182.5q63 66 144.5 102t167.5 36q135 0 216 -98.5t81 -264.5q0 -98 -41.5 -203.5t-112.5 -187.5q-126 -147 -307 -147q-140 0 -222.5 99.5t-82.5 268.5zM219 256q0 -117 37.5 -178.5t108.5 -61.5q67 0 123.5 54.5t109.5 169.5 q88 190 88 403q0 95 -35 147t-100 52q-100 0 -197 -144q-57 -88 -96 -214.5t-39 -227.5zM502 1018q0 5 8 29l125 296q17 41 49.5 67t67.5 26q29 0 48 -15.5t19 -40.5q0 -47 -45 -98l-213 -258q-24 -27 -37 -27q-9 0 -15.5 6.5t-6.5 14.5z" />
<glyph unicode="&#xf4;" horiz-adv-x="911" d="M72 348q0 103 43.5 212.5t113.5 182.5q63 66 144.5 102t167.5 36q135 0 216 -98.5t81 -264.5q0 -98 -41.5 -203.5t-112.5 -187.5q-126 -147 -307 -147q-140 0 -222.5 99.5t-82.5 268.5zM219 256q0 -117 37.5 -178.5t108.5 -61.5q67 0 123.5 54.5t109.5 169.5 q88 190 88 403q0 95 -35 147t-100 52q-100 0 -197 -144q-57 -88 -96 -214.5t-39 -227.5zM328 1024q0 14 16 33l371 407h129l55 -407q2 -12 2 -31q0 -12 -7.5 -19.5t-19.5 -7.5q-15 0 -21.5 8.5t-23.5 49.5l-43 104q-33 82 -69 82q-32 0 -94 -47l-220 -174q-33 -23 -49 -23 q-12 0 -19 7t-7 18z" />
<glyph unicode="&#xf5;" horiz-adv-x="911" d="M72 348q0 103 43.5 212.5t113.5 182.5q63 66 144.5 102t167.5 36q135 0 216 -98.5t81 -264.5q0 -98 -41.5 -203.5t-112.5 -187.5q-126 -147 -307 -147q-140 0 -222.5 99.5t-82.5 268.5zM219 256q0 -117 37.5 -178.5t108.5 -61.5q67 0 123.5 54.5t109.5 169.5 q88 190 88 403q0 95 -35 147t-100 52q-100 0 -197 -144q-57 -88 -96 -214.5t-39 -227.5zM338 1112q0 26 37 113q56 121 164 121q60 0 151 -62q62 -42 93.5 -56t64.5 -14q36 0 57.5 21t46.5 80q11 24 25 24q6 0 11 -5.5t5 -12.5q0 -26 -21.5 -81t-41.5 -83q-54 -70 -123 -70 q-57 0 -164 66q-75 47 -101.5 59.5t-52.5 12.5q-30 0 -61.5 -30t-48.5 -75q-6 -17 -10.5 -22.5t-12.5 -5.5q-18 0 -18 20z" />
<glyph unicode="&#xf6;" horiz-adv-x="911" d="M72 348q0 103 43.5 212.5t113.5 182.5q63 66 144.5 102t167.5 36q135 0 216 -98.5t81 -264.5q0 -98 -41.5 -203.5t-112.5 -187.5q-126 -147 -307 -147q-140 0 -222.5 99.5t-82.5 268.5zM219 256q0 -117 37.5 -178.5t108.5 -61.5q67 0 123.5 54.5t109.5 169.5 q88 190 88 403q0 95 -35 147t-100 52q-100 0 -197 -144q-57 -88 -96 -214.5t-39 -227.5zM403 1221q0 37 28.5 64.5t66.5 27.5q40 0 70 -29t30 -67q0 -40 -28.5 -69.5t-67.5 -29.5t-69 31t-30 72zM731 1221q0 37 28 64.5t66 27.5q40 0 70.5 -29t30.5 -67q0 -40 -28.5 -69.5 t-68.5 -29.5q-38 0 -68 31t-30 72z" />
<glyph unicode="&#xf7;" d="M102 655v84h928v-84h-928zM487 317q0 34 23 57t57 23q32 0 55 -23t23 -55q0 -33 -22.5 -56t-55.5 -23q-34 0 -57 22.5t-23 54.5zM487 1075q0 32 23 55t57 23q32 0 55 -23t23 -55q0 -34 -23 -57t-55 -23q-34 0 -57 23t-23 57z" />
<glyph unicode="&#xf8;" horiz-adv-x="911" d="M18 -70l127 160q-73 106 -73 252q0 145 63 269.5t170.5 197t233.5 72.5q113 0 184 -62l90 113l43 -35l-96 -121q78 -110 78 -254q0 -100 -41.5 -206.5t-112.5 -188.5q-128 -147 -305 -147q-117 0 -197 69l-121 -153zM219 246q0 -24 6 -58l447 564q-31 92 -121 92 q-55 0 -107.5 -42t-92 -109t-70 -147t-46.5 -158.5t-16 -141.5zM240 121q38 -105 127 -105q131 0 231 224q40 88 64 197t24 204v41z" />
<glyph unicode="&#xf9;" horiz-adv-x="989" d="M53 647q0 30 76 109q113 125 215 125q37 0 61.5 -25t24.5 -63q0 -29 -5 -52.5t-36 -144.5l-63 -234q-43 -156 -49.5 -184t-6.5 -53q0 -66 41 -66q34 0 89 54.5t114 148.5q60 96 110 204t152 365l12 29h134q-27 -61 -70 -198l-84 -259q-72 -223 -72 -284q0 -23 8.5 -36 t22.5 -13q26 0 55 22t92 90q17 17 27 17q7 0 13 -5.5t6 -13.5q0 -20 -64 -84q-119 -116 -217 -116q-44 0 -64 24.5t-20 79.5q0 98 37 225q-71 -121 -113 -172q-127 -157 -248 -157q-49 0 -79.5 33t-30.5 87q0 36 6.5 64t44.5 158l55 208q34 124 40.5 152.5t6.5 54.5 q0 41 -30 41q-54 0 -127 -106q-33 -43 -45 -43q-8 0 -13.5 5.5t-5.5 12.5zM541 1380q0 24 19 40t48 16q34 0 68 -26.5t51 -66.5l123 -296q8 -13 8 -27q0 -9 -6.5 -15t-15.5 -6q-16 0 -35 25l-215 258q-45 54 -45 98z" />
<glyph unicode="&#xfa;" horiz-adv-x="989" d="M53 647q0 30 76 109q113 125 215 125q37 0 61.5 -25t24.5 -63q0 -29 -5 -52.5t-36 -144.5l-63 -234q-43 -156 -49.5 -184t-6.5 -53q0 -66 41 -66q34 0 89 54.5t114 148.5q60 96 110 204t152 365l12 29h134q-27 -61 -70 -198l-84 -259q-72 -223 -72 -284q0 -23 8.5 -36 t22.5 -13q26 0 55 22t92 90q17 17 27 17q7 0 13 -5.5t6 -13.5q0 -20 -64 -84q-119 -116 -217 -116q-44 0 -64 24.5t-20 79.5q0 98 37 225q-71 -121 -113 -172q-127 -157 -248 -157q-49 0 -79.5 33t-30.5 87q0 36 6.5 64t44.5 158l55 208q34 124 40.5 152.5t6.5 54.5 q0 41 -30 41q-54 0 -127 -106q-33 -43 -45 -43q-8 0 -13.5 5.5t-5.5 12.5zM541 1018q0 16 8 29l123 296q19 42 51.5 67.5t67.5 25.5q29 0 48 -15.5t19 -40.5q0 -44 -45 -98l-215 -258q-22 -27 -35 -27q-9 0 -15.5 6.5t-6.5 14.5z" />
<glyph unicode="&#xfb;" horiz-adv-x="989" d="M53 647q0 30 76 109q113 125 215 125q37 0 61.5 -25t24.5 -63q0 -29 -5 -52.5t-36 -144.5l-63 -234q-43 -156 -49.5 -184t-6.5 -53q0 -66 41 -66q34 0 89 54.5t114 148.5q60 96 110 204t152 365l12 29h134q-27 -61 -70 -198l-84 -259q-72 -223 -72 -284q0 -23 8.5 -36 t22.5 -13q26 0 55 22t92 90q17 17 27 17q7 0 13 -5.5t6 -13.5q0 -20 -64 -84q-119 -116 -217 -116q-44 0 -64 24.5t-20 79.5q0 98 37 225q-71 -121 -113 -172q-127 -157 -248 -157q-49 0 -79.5 33t-30.5 87q0 36 6.5 64t44.5 158l55 208q34 124 40.5 152.5t6.5 54.5 q0 41 -30 41q-54 0 -127 -106q-33 -43 -45 -43q-8 0 -13.5 5.5t-5.5 12.5zM365 1024q0 12 18 33l369 407h131l53 -407q4 -28 4 -31q0 -12 -7.5 -19.5t-19.5 -7.5q-17 0 -23.5 8.5t-21.5 49.5l-43 104q-19 44 -35 63t-34 19q-32 0 -94 -47l-222 -174q-30 -23 -49 -23 q-12 0 -19 7t-7 18z" />
<glyph unicode="&#xfc;" horiz-adv-x="989" d="M53 647q0 30 76 109q113 125 215 125q37 0 61.5 -25t24.5 -63q0 -29 -5 -52.5t-36 -144.5l-63 -234q-43 -156 -49.5 -184t-6.5 -53q0 -66 41 -66q34 0 89 54.5t114 148.5q60 96 110 204t152 365l12 29h134q-27 -61 -70 -198l-84 -259q-72 -223 -72 -284q0 -23 8.5 -36 t22.5 -13q26 0 55 22t92 90q17 17 27 17q7 0 13 -5.5t6 -13.5q0 -20 -64 -84q-119 -116 -217 -116q-44 0 -64 24.5t-20 79.5q0 98 37 225q-71 -121 -113 -172q-127 -157 -248 -157q-49 0 -79.5 33t-30.5 87q0 36 6.5 64t44.5 158l55 208q34 124 40.5 152.5t6.5 54.5 q0 41 -30 41q-54 0 -127 -106q-33 -43 -45 -43q-8 0 -13.5 5.5t-5.5 12.5zM442 1221q0 37 28.5 64.5t66.5 27.5q41 0 70.5 -28.5t29.5 -67.5q0 -40 -28.5 -69.5t-67.5 -29.5t-69 31t-30 72zM770 1221q0 37 28 64.5t66 27.5q41 0 71 -29t30 -67q0 -40 -28.5 -69.5 t-68.5 -29.5q-38 0 -68 31t-30 72z" />
<glyph unicode="&#xfd;" horiz-adv-x="806" d="M-211 -442q0 40 25.5 68t60.5 28q29 0 45 -11t57 -61q37 -43 68 -43q28 0 73.5 40.5t123.5 133.5q100 124 143 213q-36 309 -48.5 397t-39.5 224q-23 113 -45 159t-53 46q-29 0 -56.5 -39.5t-72.5 -143.5q-12 -26 -27 -26q-20 0 -20 20q0 28 57 137q98 181 188 181 q50 0 83 -47.5t59 -159t53 -320.5q22 -164 37 -245q89 149 139.5 283t50.5 220q0 88 -18 158q-8 40 -8 49q0 25 18 43.5t43 18.5q30 0 48 -27t18 -72q0 -104 -86 -335t-195 -420q-169 -291 -348 -467q-69 -67 -124.5 -97t-111.5 -30q-57 0 -97 36.5t-40 88.5zM451 1018 q0 16 8 29l125 296q17 42 49 67.5t67 25.5q29 0 48.5 -15.5t19.5 -40.5q0 -44 -45 -98l-213 -258q-24 -27 -37 -27q-9 0 -15.5 6.5t-6.5 14.5z" />
<glyph unicode="&#xfe;" horiz-adv-x="1116" d="M-184 -365l10 37h16q66 0 88 23t50 123l364 1364q23 84 23 108q0 20 -13.5 28.5t-44.5 8.5h-30l10 39h243l-153 -575q164 170 369 170q147 0 227 -83t80 -229q0 -116 -45.5 -242.5t-122.5 -226.5q-171 -213 -408 -213q-101 0 -174.5 46t-99.5 126l-86 -321 q-21 -89 -21 -105q0 -23 15 -32t49 -9h63l-10 -37h-399zM240 215q0 -80 63 -134t156 -54q140 0 256 131q76 85 135 242.5t59 277.5q0 103 -55.5 160t-155.5 57q-127 0 -230.5 -82.5t-137.5 -210.5l-78 -287q-12 -59 -12 -100z" />
<glyph unicode="&#xff;" horiz-adv-x="806" d="M-211 -442q0 40 25.5 68t60.5 28q29 0 45 -11t57 -61q37 -43 68 -43q28 0 73.5 40.5t123.5 133.5q100 124 143 213q-36 309 -48.5 397t-39.5 224q-23 113 -45 159t-53 46q-29 0 -56.5 -39.5t-72.5 -143.5q-12 -26 -27 -26q-20 0 -20 20q0 28 57 137q98 181 188 181 q50 0 83 -47.5t59 -159t53 -320.5q22 -164 37 -245q89 149 139.5 283t50.5 220q0 88 -18 158q-8 40 -8 49q0 25 18 43.5t43 18.5q30 0 48 -27t18 -72q0 -104 -86 -335t-195 -420q-169 -291 -348 -467q-69 -67 -124.5 -97t-111.5 -30q-57 0 -97 36.5t-40 88.5zM352 1221 q0 37 28 64.5t66 27.5q41 0 71 -29t30 -67q0 -40 -28.5 -69.5t-67.5 -29.5t-69 31t-30 72zM680 1221q0 37 28 64.5t66 27.5q41 0 70.5 -28.5t29.5 -67.5q0 -40 -28.5 -69.5t-67.5 -29.5q-38 0 -68 31t-30 72z" />
<glyph unicode="&#x152;" horiz-adv-x="2131" d="M121 436q0 187 85 373.5t234 320.5q269 248 549 248q46 0 186 -7t177 -7l131 2h620l15 -240q2 -12 2 -26q0 -33 -17 -33q-11 0 -20 23q-23 54 -65.5 109t-78.5 79q-85 53 -264 53q-49 0 -75 -0.5t-51 -5t-35.5 -9.5t-21.5 -18.5t-16 -28.5t-12 -42l-131 -484 q83 1 132 5.5t89 14t64.5 30t43.5 48t40 74.5q12 23 24 23q15 0 15 -14q0 -5 -4 -21l-109 -409q-6 -20 -10.5 -26.5t-13.5 -6.5q-11 0 -14 9t-3 42q-2 45 -6 73t-16 51t-28.5 35t-48 20t-69 10t-96.5 1l-104 -387q-35 -132 -35 -180q0 -29 15 -53t40 -33q49 -14 143 -14 q156 0 262 24t189 78q54 34 109 91.5t94 119.5q15 21 24 21q6 0 10.5 -7t4.5 -16q0 -19 -105 -346h-663l-342 6q-276 -20 -349 -20q-115 0 -185.5 15.5t-125.5 53.5q-84 57 -134 160.5t-50 220.5zM346 399q0 -188 70 -279t215 -91q272 0 407 362q82 227 130.5 423t48.5 304 q0 100 -50.5 156.5t-144.5 60.5q-115 6 -238 -76.5t-218.5 -215t-157.5 -306t-62 -338.5z" />
<glyph unicode="&#x153;" horiz-adv-x="1290" d="M51 238q0 110 51 227t129.5 208t180 149.5t196.5 58.5q87 0 145.5 -54t77.5 -151q186 205 363 205q58 0 93.5 -30.5t35.5 -80.5q0 -110 -152.5 -211.5t-392.5 -152.5q-49 -118 -49 -199q0 -71 37.5 -112.5t101.5 -41.5q52 0 122.5 32.5t123.5 80.5q17 14 25 14 q16 0 16 -16q0 -21 -61 -68q-153 -116 -308 -116q-92 0 -143 51t-59 149q-75 -106 -147.5 -153t-160.5 -47q-98 0 -161.5 72.5t-63.5 185.5zM205 281q0 -104 40 -170t103 -66q138 0 254 274q90 208 90 336q0 82 -31 128t-88 51q-52 3 -118.5 -38t-116.5 -106 q-59 -82 -96 -196t-37 -213zM793 451q181 41 287 120.5t106 173.5q0 34 -18.5 55t-47.5 21q-71 0 -174 -116q-49 -56 -79.5 -107t-73.5 -147z" />
<glyph unicode="&#x178;" horiz-adv-x="1359" d="M145 967q0 19 24.5 81.5t51.5 112.5q54 100 146 164t182 64q114 0 189 -111t75 -279q0 -35 -8 -186q89 177 225 336q104 126 200 185t195 59q69 0 115.5 -42.5t46.5 -105.5q0 -43 -26.5 -71.5t-67.5 -28.5q-30 0 -52 19t-50 69q-44 78 -97 78q-49 0 -124.5 -67 t-151.5 -177q-118 -168 -184 -334q-83 -208 -103 -284l-6 -21q-55 -205 -55 -270q0 -63 35 -91.5t118 -29.5q52 -1 64 -5t12 -16q0 -20 -35 -20t-210 4t-242 4q-87 0 -160 -8l-53 -2q-35 0 -35 14q0 15 11 19.5t56 9.5q42 8 69.5 16t53.5 20t44 32.5t34.5 45.5t31.5 67.5 t29 89.5t33 120l49 184q43 163 59.5 254t16.5 172q0 125 -44.5 191.5t-127.5 66.5q-85 0 -158 -72t-114 -198q-21 -60 -26 -70t-17 -10q-8 0 -13.5 6t-5.5 15zM635 1622q0 44 33.5 77.5t79.5 33.5q47 0 82.5 -34.5t35.5 -80.5q0 -48 -33.5 -82.5t-80.5 -34.5q-46 0 -81.5 37 t-35.5 84zM1126 1622q0 44 33.5 77.5t79.5 33.5q47 0 83 -34.5t36 -80.5q0 -47 -34 -82t-81 -35q-46 0 -81.5 37t-35.5 84z" />
<glyph unicode="&#x2c6;" d="M383 1024q0 12 18 33l369 407h131l53 -407q4 -28 4 -31q0 -27 -26 -27q-17 0 -23.5 8.5t-21.5 49.5l-43 104q-36 82 -70 82q-32 0 -94 -47l-221 -174q-30 -23 -49 -23q-12 0 -19.5 7t-7.5 18z" />
<glyph unicode="&#x2dc;" d="M393 1112q0 26 37 113q56 121 164 121q64 0 151 -62q64 -42 95.5 -56t64.5 -14q35 0 57.5 21.5t47.5 79.5q11 24 24 24q6 0 11.5 -5.5t5.5 -12.5q0 -26 -22 -82t-42 -82q-54 -70 -123 -70q-60 0 -164 66q-78 47 -104 59.5t-51 12.5q-30 0 -62 -30t-49 -75q-8 -28 -22 -28 q-8 0 -13.5 5.5t-5.5 14.5z" />
<glyph unicode="&#x2000;" horiz-adv-x="892" />
<glyph unicode="&#x2001;" horiz-adv-x="1784" />
<glyph unicode="&#x2002;" horiz-adv-x="892" />
<glyph unicode="&#x2003;" horiz-adv-x="1784" />
<glyph unicode="&#x2004;" horiz-adv-x="594" />
<glyph unicode="&#x2005;" horiz-adv-x="446" />
<glyph unicode="&#x2006;" horiz-adv-x="297" />
<glyph unicode="&#x2007;" horiz-adv-x="297" />
<glyph unicode="&#x2008;" horiz-adv-x="223" />
<glyph unicode="&#x2009;" horiz-adv-x="356" />
<glyph unicode="&#x200a;" horiz-adv-x="99" />
<glyph unicode="&#x2010;" horiz-adv-x="350" d="M-10 395l24 97h353l-27 -97h-350z" />
<glyph unicode="&#x2011;" horiz-adv-x="350" d="M-10 395l24 97h353l-27 -97h-350z" />
<glyph unicode="&#x2012;" horiz-adv-x="350" d="M-10 395l24 97h353l-27 -97h-350z" />
<glyph unicode="&#x2013;" horiz-adv-x="612" d="M-10 395l24 97h613l-25 -97h-612z" />
<glyph unicode="&#x2014;" horiz-adv-x="1052" d="M-10 395l24 97h1053l-25 -97h-1052z" />
<glyph unicode="&#x2018;" horiz-adv-x="432" d="M317 1202q0 78 71 147.5t151 69.5q26 0 26 -20q0 -13 -22 -21q-43 -13 -78 -47.5t-35 -62.5q0 -11 5 -14.5t22 -4.5q35 -5 60.5 -31.5t25.5 -60.5q0 -40 -29 -68t-72 -28q-51 0 -88 41.5t-37 99.5z" />
<glyph unicode="&#x2019;" horiz-adv-x="432" d="M301 1081q0 12 23 21q43 13 77.5 47.5t34.5 62.5q0 11 -4.5 14.5t-21.5 4.5q-35 5 -60.5 31.5t-25.5 60.5q0 40 29 68t71 28q51 0 88 -41.5t37 -99.5q0 -77 -71.5 -147t-149.5 -70q-27 0 -27 20z" />
<glyph unicode="&#x201a;" horiz-adv-x="419" d="M-104 -231q0 13 20 16q80 17 137.5 65.5t57.5 100.5q0 12 -6 18.5t-23 12.5q-32 11 -52 36t-20 56q0 40 26.5 65t69.5 25q51 0 86.5 -42t32.5 -99q-3 -71 -52 -135t-128 -101q-69 -37 -127 -37q-22 0 -22 19z" />
<glyph unicode="&#x201c;" horiz-adv-x="786" d="M317 1202q0 78 71 147.5t151 69.5q26 0 26 -20q0 -13 -22 -21q-43 -13 -78 -47.5t-35 -62.5q0 -11 5 -14.5t22 -4.5q35 -5 60.5 -31.5t25.5 -60.5q0 -40 -29 -68t-72 -28q-51 0 -88 41.5t-37 99.5zM672 1202q0 78 71 147.5t150 69.5q27 0 27 -20q0 -12 -23 -21 q-43 -13 -78 -47.5t-35 -62.5q0 -11 5 -14.5t22 -4.5q35 -5 60.5 -31.5t25.5 -60.5q0 -40 -29 -68t-71 -28q-51 0 -88 41.5t-37 99.5z" />
<glyph unicode="&#x201d;" horiz-adv-x="786" d="M301 1081q0 12 23 21q43 13 77.5 47.5t34.5 62.5q0 11 -4.5 14.5t-21.5 4.5q-35 5 -60.5 31.5t-25.5 60.5q0 40 29 68t71 28q51 0 88 -41.5t37 -99.5q0 -77 -71.5 -147t-149.5 -70q-27 0 -27 20zM655 1081q0 12 23 21q43 13 78 47.5t35 62.5q0 11 -5 14.5t-22 4.5 q-34 5 -59 32t-25 60q0 40 28.5 68t69.5 28q52 0 88.5 -41t36.5 -100q0 -77 -71.5 -147t-149.5 -70q-27 0 -27 20z" />
<glyph unicode="&#x201e;" horiz-adv-x="786" d="M-37 -174q0 11 23 20q42 13 77 48t35 63q0 10 -4.5 13t-21.5 5q-35 5 -60.5 32t-25.5 61q0 40 29 68t71 28q51 0 88 -41.5t37 -99.5q0 -77 -71.5 -147.5t-149.5 -70.5q-27 0 -27 21zM317 -174q0 11 23 20q43 13 78 48t35 63q0 10 -4.5 13t-22.5 5q-34 5 -59 32t-25 61 q0 40 28.5 68t69.5 28q52 0 88.5 -41t36.5 -100q0 -77 -71.5 -147.5t-149.5 -70.5q-27 0 -27 21z" />
<glyph unicode="&#x2022;" horiz-adv-x="1366" d="M457 692q0 120 83.5 202.5t204.5 82.5q114 0 196.5 -83.5t82.5 -199.5q0 -118 -83 -201t-200 -83t-200.5 82.5t-83.5 199.5z" />
<glyph unicode="&#x2026;" horiz-adv-x="1257" d="M35 76q0 35 26.5 61.5t61.5 26.5q39 0 67.5 -27.5t28.5 -64.5t-26.5 -64.5t-63.5 -27.5t-65.5 29t-28.5 67zM455 76q0 35 26.5 61.5t61.5 26.5q39 0 67.5 -27.5t28.5 -64.5t-26.5 -64.5t-63.5 -27.5t-65.5 29t-28.5 67zM872 76q0 35 27 61.5t62 26.5q39 0 67.5 -27.5 t28.5 -64.5t-26.5 -64.5t-63.5 -27.5t-66 29t-29 67z" />
<glyph unicode="&#x202f;" horiz-adv-x="356" />
<glyph unicode="&#x2039;" horiz-adv-x="552" d="M66 440q0 11 3.5 16.5t22.5 22.5l414 367q13 10 18 10q15 0 15 -14q0 -9 -9 -21l-282 -383l100 -377q4 -16 4 -20q0 -5 -4 -8.5t-8 -3.5q-11 0 -21 18l-233 350q-20 29 -20 43z" />
<glyph unicode="&#x203a;" horiz-adv-x="552" d="M20 43q0 11 9 20l280 383l-100 377q-1 4 -2 8.5t-1.5 7t-0.5 3.5q0 14 12 14q10 0 23 -18l233 -351q20 -37 21 -45q0 -9 -4.5 -15t-24.5 -21l-412 -367q-12 -10 -18 -10q-15 0 -15 14z" />
<glyph unicode="&#x205f;" horiz-adv-x="446" />
<glyph unicode="&#x20ac;" horiz-adv-x="1439" d="M78 565l43 78h86q5 30 18 78h-125l43 78h109q100 263 291 428.5t395 165.5q142 0 262 -105q38 -31 55 -31q36 0 91 76q17 25 30 25q8 0 13.5 -6t5.5 -15t-6 -24q-44 -141 -58 -205q-16 -65 -31.5 -131.5t-19.5 -81.5q-6 -35 -25 -35q-16 0 -16 25q3 204 -71.5 333.5 t-194.5 129.5q-145 0 -285 -154t-215 -395h508l-43 -78h-487q-3 -18 -8 -42t-7 -36h457l-43 -78h-426q-4 -78 -4 -94q0 -195 78 -316.5t204 -121.5q95 0 210.5 77.5t203.5 200.5q26 38 32 44.5t13 6.5q6 0 11.5 -5t5.5 -11q0 -13 -32.5 -59.5t-72.5 -91.5 q-99 -106 -214.5 -165t-227.5 -59q-197 0 -319 141.5t-122 368.5q0 1 5 84h-117z" />
<glyph unicode="&#x2122;" horiz-adv-x="2041" d="M213 1157q0 13 8 29q56 144 72 180h725q3 -26 10.5 -107.5t7.5 -91.5q0 -26 -22 -26q-16 0 -21 20q-31 92 -76.5 129t-128.5 37q-31 0 -39 -5t-14 -28l-131 -487q-19 -76 -25 -104.5t-6 -51.5q0 -37 17 -53t57 -16q22 -1 28.5 -4t6.5 -11q0 -22 -31 -22q-27 0 -170 4 q-61 0 -137 -4h-47q-21 0 -21 12t7.5 16.5t27.5 6.5q28 3 45 9.5t32 19.5t27 39.5t23 62t27 96.5l129 479l2 25q0 10 -9 14t-34 4q-100 0 -160.5 -35t-138.5 -139q-11 -14 -25 -14q-16 0 -16 16zM948 559q0 21 35 21q20 2 33.5 6t25.5 10t21.5 18t18 26.5t17 40t17 54 t19.5 72.5l79 299q33 120 33 149q0 43 -20.5 58.5t-83.5 19.5q-7 0 -11 4t-4 9q0 22 29 22l123 -2h109l151 -633q136 220 222.5 348.5t201.5 284.5h147q15 0 107 2q20 0 20 -14q0 -11 -6.5 -15.5t-25.5 -5.5q-34 -4 -53.5 -12.5t-37.5 -34.5t-30.5 -65t-32.5 -115l-80 -299 q-30 -110 -30 -156q0 -38 19 -53t73 -18q16 0 16 -13q0 -10 -8.5 -16t-22.5 -6h-51q-21 1 -42.5 1.5t-35 1t-23 1t-12.5 0.5l-131 -2q-18 -2 -55 -2q-20 0 -20 14q0 10 7.5 14.5t26.5 6.5q28 3 45.5 10t32.5 19t26.5 39.5t22.5 62t27 96.5l129 483q-79 -103 -163.5 -230 t-243.5 -382l-70 -115q-11 -20 -27 -20q-9 0 -12 3.5t-6 16.5l-154 641l-106 -397q-33 -122 -33 -156q0 -38 19.5 -53t74.5 -18q17 0 17 -13q0 -10 -8.5 -16t-22.5 -6l-135 4l-127 -4q-21 0 -21 14z" />
<glyph unicode="&#xe000;" horiz-adv-x="880" d="M0 0v881h881v-881h-881z" />
</font>
</defs>
</svg>
